<svg width="184" height="62" viewBox="0 0 184 62" fill="none" xmlns="http://www.w3.org/2000/svg">
<path d="M71.1147 31.9813C71.1147 29.144 72.0098 26.8724 73.8 25.1667C75.6071 23.4609 77.9124 22.608 80.716 22.608C83.5533 22.608 85.8756 23.4609 87.6827 25.1667C89.4898 26.8724 90.3933 29.144 90.3933 31.9813C90.3933 34.768 89.4813 37.048 87.6573 38.8213C85.8502 40.5778 83.5364 41.456 80.716 41.456C77.9293 41.456 75.6324 40.5778 73.8253 38.8213C72.0182 37.048 71.1147 34.768 71.1147 31.9813ZM74.5853 31.9813C74.5853 33.9067 75.1596 35.4942 76.308 36.744C77.4564 37.9769 78.9342 38.5933 80.7413 38.5933C82.5653 38.5933 84.0516 37.9769 85.2 36.744C86.3484 35.4942 86.9227 33.9067 86.9227 31.9813C86.9227 30.1067 86.3484 28.5444 85.2 27.2947C84.0684 26.0449 82.5822 25.42 80.7413 25.42C78.9173 25.42 77.4311 26.0449 76.2827 27.2947C75.1511 28.5444 74.5853 30.1067 74.5853 31.9813ZM93.3227 28.84H96.236V30.5373H96.312C96.6667 29.98 97.1987 29.4987 97.908 29.0933C98.6343 28.688 99.504 28.4853 100.517 28.4853C102.24 28.4853 103.65 29.0933 104.748 30.3093C105.863 31.5253 106.42 33.0453 106.42 34.8693C106.42 36.6933 105.871 38.2302 104.773 39.48C103.692 40.7298 102.248 41.3547 100.441 41.3547C99.5969 41.3547 98.8116 41.1773 98.0854 40.8227C97.3591 40.468 96.8018 39.9867 96.4134 39.3787H96.3627V47.08H93.3227V28.84ZM102.392 37.6307C103.017 36.8369 103.329 35.9164 103.329 34.8693C103.329 33.8222 103.017 32.9102 102.392 32.1333C101.784 31.3564 100.931 30.968 99.8334 30.968C98.7694 30.968 97.908 31.3733 97.2494 32.184C96.5907 32.9947 96.2614 33.9067 96.2614 34.92C96.2614 35.9333 96.5907 36.8369 97.2494 37.6307C97.908 38.4244 98.7694 38.8213 99.8334 38.8213C100.931 38.8213 101.784 38.4244 102.392 37.6307ZM111.685 33.704H117.917C117.917 32.8596 117.672 32.1587 117.182 31.6013C116.692 31.044 115.983 30.7653 115.054 30.7653C114.159 30.7653 113.39 31.044 112.749 31.6013C112.107 32.1587 111.752 32.8596 111.685 33.704ZM120.957 35.072C120.957 35.4267 120.948 35.6969 120.931 35.8827H111.685C111.752 36.7271 112.124 37.4364 112.799 38.0107C113.475 38.5849 114.26 38.872 115.155 38.872C116.557 38.872 117.63 38.3484 118.373 37.3013L120.399 38.9227C119.2 40.544 117.461 41.3547 115.181 41.3547C113.272 41.3547 111.702 40.7804 110.469 39.632C109.253 38.4836 108.645 36.9382 108.645 34.996C108.645 33.0538 109.253 31.4831 110.469 30.284C111.685 29.0849 113.222 28.4853 115.079 28.4853C116.836 28.4853 118.254 29.0511 119.335 30.1827C120.416 31.3142 120.957 32.944 120.957 35.072ZM123.901 41V28.84H126.789V30.7907H126.839C127.127 30.1489 127.608 29.6084 128.283 29.1693C128.976 28.7133 129.753 28.4853 130.614 28.4853C132.1 28.4853 133.215 28.9667 133.958 29.9293C134.718 30.8751 135.098 32.032 135.098 33.4V41H132.058V34.2613C132.058 32.0996 131.298 31.0187 129.778 31.0187C128.866 31.0187 128.165 31.348 127.675 32.0067C127.186 32.6484 126.941 33.4169 126.941 34.312V41H123.901ZM142.507 41L150.31 23.064H153.071L160.798 41H157.15L155.478 36.896H147.7L146.079 41H142.507ZM148.79 34.16H154.363L151.602 26.864L148.79 34.16ZM162.572 41V23.064H168.424C172.934 23.064 175.188 24.7951 175.188 28.2573C175.188 30.1151 174.547 31.4662 173.263 32.3107C171.979 33.1551 170.299 33.5773 168.222 33.5773H165.764V41H162.572ZM165.764 30.892H167.994C170.645 30.892 171.971 30.0138 171.971 28.2573C171.971 27.2947 171.616 26.636 170.907 26.2813C170.215 25.9267 169.277 25.7493 168.095 25.7493H165.764V30.892ZM178.035 41V23.064H181.227V41H178.035Z" fill="#5B5B5B"/>
<path d="M31 49C35.1421 49 38 46.1421 38 42C38 37.8579 35.1421 34 31 34C26.8579 34 23 37.8579 23 42C23 46.1421 26.8579 49 31 49Z" fill="#36E19F" stroke="#787AF2" stroke-width="1.74501" stroke-miterlimit="10" stroke-linecap="round" stroke-linejoin="round"/>
<path d="M6 47C8.76142 47 11 44.7614 11 42C11 39.2386 8.76142 37 6 37C3.23858 37 1 39.2386 1 42C1 44.7614 3.23858 47 6 47Z" fill="white" stroke="#787AF2" stroke-width="1.74501" stroke-miterlimit="10" stroke-linecap="round" stroke-linejoin="round"/>
<path d="M55 46C57.7614 46 60 43.7614 60 41C60 38.2386 57.7614 36 55 36C52.2386 36 50 38.2386 50 41C50 43.7614 52.2386 46 55 46Z" fill="white" stroke="#787AF2" stroke-width="1.74501" stroke-miterlimit="10" stroke-linecap="round" stroke-linejoin="round"/>
<path d="M31 22C33.7614 22 36 19.7614 36 17C36 14.2386 33.7614 12 31 12C28.2386 12 26 14.2386 26 17C26 19.7614 28.2386 22 31 22Z" fill="white" stroke="#787AF2" stroke-width="1.74501" stroke-miterlimit="10" stroke-linecap="round" stroke-linejoin="round"/>
<path d="M12 29C14.7614 29 17 26.7614 17 24C17 21.2386 14.7614 19 12 19C9.23858 19 7 21.2386 7 24C7 26.7614 9.23858 29 12 29Z" fill="white" stroke="#787AF2" stroke-width="1.74501" stroke-miterlimit="10" stroke-linecap="round" stroke-linejoin="round"/>
<path d="M49 29C51.7614 29 54 26.7614 54 24C54 21.2386 51.7614 19 49 19C46.2386 19 44 21.2386 44 24C44 26.7614 46.2386 29 49 29Z" fill="white" stroke="#787AF2" stroke-width="1.74501" stroke-miterlimit="10" stroke-linecap="round" stroke-linejoin="round"/>
<path d="M31 33V22" stroke="#787AF2" stroke-width="1.74501" stroke-miterlimit="10" stroke-linecap="round" stroke-linejoin="round"/>
<path d="M16 28L26 36" stroke="#787AF2" stroke-width="1.74501" stroke-miterlimit="10" stroke-linecap="round" stroke-linejoin="round"/>
<path d="M36 36L46 28" stroke="#787AF2" stroke-width="1.74501" stroke-miterlimit="10" stroke-linecap="round" stroke-linejoin="round"/>
<path d="M12 42H24" stroke="#787AF2" stroke-width="1.74501" stroke-miterlimit="10" stroke-linecap="round" stroke-linejoin="round"/>
<path d="M39 42H51" stroke="#787AF2" stroke-width="1.74501" stroke-miterlimit="10" stroke-linecap="round" stroke-linejoin="round"/>
</svg>
