<svg width="42" height="42" viewBox="0 0 42 42" fill="none" xmlns="http://www.w3.org/2000/svg">
<path d="M27.0868 1.71846C38.1073 5.11833 44.2707 16.6816 40.8522 27.5423C37.4338 38.4042 25.7294 44.4532 14.7089 41.0533C3.6884 37.6534 -2.475 26.0902 0.943436 15.2294C4.36187 4.36753 16.0663 -1.68142 27.0868 1.71846Z" fill="white"/>
<path fill-rule="evenodd" clip-rule="evenodd" d="M41.7311 24.6924L36.3967 23.0459C37.1608 15.9645 32.7519 9.08542 25.5609 6.86521C18.3687 4.64615 10.791 7.82987 7.35864 14.0858L2.02663 12.4416C6.41578 3.33886 17.0798 -1.40854 27.183 1.70964C37.2873 4.82666 43.3404 14.7319 41.7311 24.6924ZM39.9626 30.3113L34.6295 28.666C31.1971 34.9219 23.6194 38.1056 16.4284 35.8854C9.23622 33.6675 4.82617 26.7861 5.59136 19.7059L0.258194 18.0594C-1.35232 28.0199 4.70076 37.9263 14.8051 41.0433C24.9095 44.1615 35.5723 39.4141 39.9626 30.3113Z" fill="#787AF2"/>
<path d="M14.3813 20.8379C14.3 24.669 17.3713 27.8389 21.2403 27.9182C25.108 27.9999 28.3105 24.9587 28.3895 21.1277C28.4719 17.2978 25.4007 14.1267 21.5329 14.0474C17.6639 13.9657 14.4614 17.008 14.3813 20.8379ZM32.3896 21.2093C32.2619 27.2284 27.2318 32.0045 21.1566 31.8792C15.0792 31.7516 10.2558 26.7719 10.3823 20.7551C10.51 14.7372 15.539 9.96224 21.6153 10.0864C27.6928 10.2129 32.5162 15.1937 32.3896 21.2093Z" fill="#787AF2"/>
<path d="M18.5439 20.8463C18.4673 22.4008 19.6783 23.7219 21.2482 23.7966C22.8181 23.8725 24.1523 22.6733 24.2289 21.1188C24.3044 19.5643 23.0933 18.2421 21.5222 18.1673C19.9535 18.0914 18.6182 19.2907 18.5439 20.8463ZM26.2714 21.2154C26.1413 23.8886 23.848 25.949 21.1495 25.8202C18.451 25.6914 16.3691 23.4206 16.5003 20.7486C16.6315 18.0765 18.9247 16.015 21.6209 16.1449C24.3206 16.2725 26.4026 18.5445 26.2714 21.2154Z" fill="#787AF2"/>
<mask id="mask0_80_4542" style="mask-type:alpha" maskUnits="userSpaceOnUse" x="0" y="-1" width="42" height="43">
<path d="M16.8698 5.80646H40.7686V32.2551H16.8698V5.80646Z" fill="black"/>
<path d="M5.97005 16.8722C3.90203 25.0126 8.95537 33.2863 17.2553 35.3548C25.5564 37.4232 33.9619 32.4999 36.03 24.3595C38.098 16.2191 33.0446 7.94306 24.7436 5.87692C16.4436 3.80963 8.03806 8.73295 5.97005 16.8722ZM41.3724 25.6898C38.5694 36.7241 27.1762 43.3963 15.9246 40.5943C4.6742 37.7911 -2.17544 26.574 0.627585 15.5419C3.43061 4.50869 14.8238 -2.16343 26.0754 0.638557C37.3258 3.4394 44.1754 14.6566 41.3724 25.6898Z" fill="#9DA0F5"/>
</mask>
<g mask="url(#mask0_80_4542)">
<path d="M36.4546 8.99295C36.5162 9.01977 36.5653 9.0613 36.5971 9.11241C36.6289 9.16302 36.6414 9.22136 36.6333 9.28L33.0385 11.0877L36.0643 9.0257C36.1191 8.98916 36.1859 8.96566 36.255 8.9601C36.3246 8.95398 36.3941 8.96602 36.4546 8.99295ZM22.4862 21.2016L22.4856 21.2017L22.504 21.0767L22.4874 21.2015L22.4862 21.2016ZM22.4862 21.2016C22.4204 21.1963 22.3573 21.1812 22.2994 21.1561C22.2415 21.1304 22.19 21.0957 22.1492 21.0529C22.1079 21.0107 22.0776 20.962 22.0595 20.9087C22.0414 20.8558 22.0359 20.8004 22.0442 20.7448C22.0519 20.6892 22.0731 20.6354 22.1057 20.5868C22.1382 20.5381 22.1821 20.4944 22.2345 20.4586L32.5482 13.4418L32.8887 11.0766L32.8962 11.0246L32.9452 10.9911L35.9709 8.92912L35.9715 8.92857C36.0509 8.87577 36.1459 8.84324 36.245 8.83504C36.3435 8.8264 36.4429 8.84285 36.5299 8.88156L36.4546 8.99295M22.4862 21.2016C22.5513 21.2065 22.6174 21.2007 22.6819 21.185C22.7451 21.1683 22.8056 21.1414 22.8576 21.1066L33.1727 14.0857L35.9925 14.2975L36.0553 14.3025L36.1043 14.2685L39.1321 12.2104L39.1327 12.2104C39.2108 12.1567 39.2685 12.0846 39.2989 12.0054C39.3292 11.9251 39.3307 11.8404 39.3037 11.7616C39.2778 11.6823 39.2232 11.6131 39.1477 11.5602C39.0729 11.5079 38.9805 11.4757 38.8818 11.4682L38.8812 11.4683L37.2015 11.3417L38.4399 10.4986L38.4438 10.4957L38.4484 10.4923C38.5415 10.4181 38.5998 10.3183 38.6097 10.2132C38.6196 10.1075 38.5818 10.003 38.5038 9.92174C38.4251 9.84049 38.3121 9.78795 38.1869 9.77476C38.0617 9.76108 37.9334 9.78745 37.8287 9.84852L37.8236 9.8515L37.8184 9.85497L36.58 10.6976L36.7825 9.29058L36.783 9.29002C36.7943 9.20692 36.7767 9.12435 36.7308 9.05131C36.6856 8.97921 36.615 8.91993 36.5286 8.88117L36.4546 8.99295" fill="#36E19F"/>
<path d="M22.4862 21.2016C22.4204 21.1963 22.3573 21.1812 22.2994 21.1561C22.2415 21.1304 22.19 21.0957 22.1492 21.0529C22.1079 21.0107 22.0776 20.962 22.0595 20.9087C22.0414 20.8558 22.0359 20.8004 22.0442 20.7448C22.0519 20.6892 22.0731 20.6354 22.1057 20.5868C22.1382 20.5381 22.1821 20.4944 22.2345 20.4586L32.5482 13.4418L32.8887 11.0766L32.8962 11.0246L32.9452 10.9911L35.9709 8.92912L35.9715 8.92857C36.0509 8.87577 36.1459 8.84324 36.245 8.83504C36.3435 8.8264 36.4429 8.84285 36.5299 8.88156L36.4546 8.99295M22.4862 21.2016C22.5513 21.2065 22.6174 21.2007 22.6819 21.185C22.7451 21.1683 22.8056 21.1414 22.8576 21.1066L33.1727 14.0857L35.9925 14.2975L36.0553 14.3025L36.1043 14.2685L39.1321 12.2104L39.1327 12.2104C39.2108 12.1567 39.2685 12.0846 39.2989 12.0054C39.3292 11.9251 39.3307 11.8404 39.3037 11.7616C39.2778 11.6823 39.2232 11.6131 39.1477 11.5602C39.0729 11.5079 38.9805 11.4757 38.8818 11.4682L38.8812 11.4683L37.2015 11.3417L38.4399 10.4986L38.4438 10.4957L38.4484 10.4923C38.5415 10.4181 38.5998 10.3183 38.6097 10.2132C38.6196 10.1075 38.5818 10.003 38.5038 9.92174C38.4251 9.84049 38.3121 9.78795 38.1869 9.77476C38.0617 9.76108 37.9334 9.78745 37.8287 9.84852L37.8236 9.8515L37.8184 9.85497L36.58 10.6976L36.7825 9.29058L36.783 9.29002C36.7943 9.20692 36.7767 9.12435 36.7308 9.05131C36.6856 8.97921 36.615 8.91993 36.5286 8.88117L36.4546 8.99295M36.4546 8.99295C36.5162 9.01977 36.5653 9.0613 36.5971 9.11241C36.6289 9.16302 36.6414 9.22136 36.6333 9.28L33.0385 11.0877L36.0643 9.0257C36.1191 8.98916 36.1859 8.96566 36.255 8.9601C36.3246 8.95398 36.3941 8.96602 36.4546 8.99295ZM22.4862 21.2016L22.4856 21.2017L22.504 21.0767L22.4874 21.2015L22.4862 21.2016Z" stroke="#36E19F" stroke-width="0.666667"/>
</g>
</svg>
