<svg width="62" height="62" viewBox="0 0 62 62" fill="none" xmlns="http://www.w3.org/2000/svg">
<path d="M40 1.99988C55.8208 6.94838 64.9066 24.1922 60 39.9999C55.0927 55.8076 37.8202 64.9484 22 59.9999C6.17914 55.0508 -2.90665 37.8076 1.99996 21.9999C6.90719 6.19218 24.1791 -2.94861 40 1.99988Z" fill="white"/>
<path fill-rule="evenodd" clip-rule="evenodd" d="M60.9999 35.9998L52.9999 32.9998C54.0921 22.7003 48.2763 13.2272 37.9999 9.99979C27.7235 6.77177 16.9062 10.8974 11.9999 19.9998L3.99988 17.9998C10.2721 4.76003 25.5627 -2.53517 39.9999 1.99979C54.4377 6.53474 63.2989 21.5118 60.9999 35.9998ZM57.9999 43.9998L49.9999 41.9998C45.0942 51.1028 34.2769 55.2278 23.9999 51.9998C13.7229 48.7718 7.90705 39.3005 8.99988 28.9998L0.999882 25.9998C-1.29972 40.4884 7.56206 55.4655 21.9999 59.9998C36.4377 64.5354 51.7277 57.2402 57.9999 43.9998Z" fill="#36E19F"/>
<path d="M32.9999 30.9998C32.9993 30.9998 33.0005 30.9998 32.9999 30.9998C32.9999 30.9998 33.0005 30.9998 32.9999 30.9998ZM32.9999 30.9998C33.215 31.0453 33.7843 31.0353 33.9999 30.9998C34.2162 30.965 34.8144 31.1131 34.9999 30.9998L48.9999 21.9998V20.9998L45.9999 17.9998L32.9999 27.9998C32.8192 28.1119 32.1222 27.8268 31.9999 27.9998C31.8747 28.1778 32.0415 28.7851 31.9999 28.9998C31.9584 29.214 31.9505 29.7857 31.9999 29.9998C32.0493 30.214 31.8704 29.8212 31.9999 29.9998C32.1288 30.1785 32.8138 30.8816 32.9999 30.9998C32.7843 30.9562 33.1861 31.1181 32.9999 30.9998Z" fill="white"/>
<path d="M27.9998 34.9995L24.9998 35.9995C24.4079 36.2668 23.5923 36.9839 22.9998 36.9995L23.9998 39.9995C24.5453 41.1538 26.72 41.5659 27.9998 40.9995C29.2087 40.4441 29.5744 39.2226 28.9998 37.9995L27.9998 34.9995Z" fill="#787AF2"/>
<path d="M39.9998 19.9995C39.7272 19.9189 39.1007 19.7725 38.9998 19.9995L37.9998 21.9995C37.8996 22.226 37.7252 22.9161 37.9998 22.9995C38.2757 23.0818 38.9002 23.2249 38.9998 22.9995L39.9998 20.9995C40.1 20.7725 40.2744 20.083 39.9998 19.9995Z" fill="#787AF2"/>
<path d="M40.9999 25.9996L42.9999 24.9996C43.2241 24.8886 43.1038 24.2384 42.9999 23.9996C42.896 23.7602 42.2235 23.888 41.9999 23.9996L39.9999 24.9996C39.7757 25.1112 39.8954 25.7608 39.9999 25.9996C40.106 26.2444 40.7825 26.1081 40.9999 25.9996Z" fill="#787AF2"/>
<path d="M43.9998 28.9997L41.9998 27.9997C41.7719 27.8991 41.0818 27.7248 40.9998 27.9997C40.9178 28.2759 40.7735 28.8991 40.9998 28.9997L42.9998 29.9996C43.2233 30.0982 43.9167 30.2772 43.9998 29.9996C44.0813 29.7234 44.226 29.0995 43.9998 28.9997Z" fill="#787AF2"/>
<path d="M27.9998 33.9996L24.9998 28.9996L21.9998 29.9996C20.3149 30.7031 19.2173 32.5076 19.9998 33.9996C20.7504 35.4255 23.2201 36.7173 24.9998 35.9996L27.9998 33.9996Z" fill="#787AF2"/>
<path d="M32.9998 21.9995C32.9328 21.8596 32.1598 22.0287 31.9998 21.9995C31.8404 21.9661 32.1233 21.8937 31.9998 21.9995L24.9998 27.9995L27.9998 33.9995L37.9998 32.9995C38.1591 32.98 37.9224 33.1346 37.9998 32.9995C38.0824 32.8644 38.0719 33.1394 37.9998 32.9995L32.9998 21.9995Z" fill="#787AF2"/>
<path d="M34.9998 24.9995L36.9998 29.9995C37.2117 29.7403 37.8824 29.3231 37.9998 28.9995C38.2789 28.2259 38.3467 27.7415 37.9998 26.9995C37.5076 25.9351 36.1585 25.0179 34.9998 24.9995Z" fill="#787AF2"/>
</svg>
