<svg width="42" height="42" viewBox="0 0 42 42" fill="none" xmlns="http://www.w3.org/2000/svg">
<path d="M27.289 1.00533C38.3112 4.46585 44.475 16.2325 41.0566 27.2869C37.6378 38.3413 25.9313 44.4973 14.9095 41.0368C3.88734 37.5759 -2.27641 25.8092 1.14198 14.7548C4.56079 3.70038 16.2668 -2.45518 27.289 1.00533Z" fill="white"/>
<path fill-rule="evenodd" clip-rule="evenodd" d="M41.7369 24.363L36.4031 22.688C37.1676 15.4823 32.7568 8.47961 25.5642 6.22165C18.3717 3.96326 10.7943 7.20151 7.36029 13.5697L2.02686 11.8947C6.41685 2.63189 17.0824 -2.19973 27.1872 0.973026C37.2924 4.14578 43.346 14.2269 41.7369 24.363ZM39.9688 30.082L34.635 28.4069C31.2014 34.7756 23.6236 38.0143 16.4306 35.7559C9.23762 33.4975 4.82684 26.4948 5.59172 19.2882L0.25787 17.6136C-1.35165 27.7502 4.70246 37.8318 14.8077 41.0041C24.9129 44.1773 35.5788 39.3452 39.9688 30.082Z" fill="#787AF2"/>
<path d="M22.3903 20.894C22.3898 20.894 22.3894 20.894 22.389 20.894L22.4327 20.6801L22.3911 20.894C22.3911 20.894 22.3907 20.894 22.3903 20.894ZM22.3903 20.894C22.545 20.9259 22.7045 20.9303 22.8596 20.9054C23.0152 20.8809 23.1638 20.8281 23.2973 20.7486L23.3003 20.7469L33.3999 14.524L33.6149 14.3913L33.4528 14.1974L31.5845 11.9582L31.4541 11.8019L31.2907 11.9224L21.9175 18.8147C21.7875 18.8932 21.6748 18.9963 21.5868 19.1177C21.4967 19.2426 21.4343 19.3841 21.4044 19.5347C21.3745 19.6849 21.3779 19.8399 21.4135 19.9901C21.449 20.1403 21.5157 20.2818 21.6089 20.4071C21.7017 20.5325 21.8187 20.639 21.9526 20.722C22.0865 20.8049 22.2351 20.8634 22.3903 20.894Z" fill="white"/>
<path d="M18.2577 23.979L16.4497 24.9056C16.0622 25.0855 15.6813 25.1755 15.2935 25.1859L16.1754 27.0872C16.5324 27.864 17.4611 28.2495 18.2988 27.8683C19.0902 27.4946 19.4468 26.5518 19.0707 25.7287L18.2577 23.979Z" fill="#787AF2"/>
<path d="M26.3946 13.0367C26.2178 12.973 26.0197 13.0634 25.9543 13.2428L25.3437 14.9235C25.2787 15.1026 25.3701 15.3012 25.5482 15.3672C25.7272 15.4322 25.9235 15.3392 25.9881 15.1611L26.5991 13.4804C26.6641 13.3009 26.5727 13.1027 26.3946 13.0367Z" fill="#787AF2"/>
<path d="M27.4479 16.9386L29.064 16.1819C29.236 16.1015 29.3106 15.8959 29.2308 15.723C29.1511 15.5496 28.947 15.4741 28.7753 15.5548L27.1593 16.3111C26.9873 16.3919 26.9123 16.5976 26.9925 16.7705C27.074 16.9478 27.2811 17.0172 27.4479 16.9386Z" fill="#787AF2"/>
<path d="M29.2504 19.1883L27.575 18.5775C27.3956 18.512 27.2002 18.6054 27.1356 18.7844C27.071 18.9643 27.1633 19.1621 27.3414 19.2276L29.0164 19.8385C29.1923 19.9027 29.3908 19.8123 29.4563 19.6315C29.5204 19.4516 29.4285 19.2534 29.2504 19.1883Z" fill="#787AF2"/>
<path d="M18.2372 23.2117L16.1891 19.3058L14.278 20.2839C13.1768 20.8057 12.7031 22.1156 13.2145 23.2221C13.7051 24.2797 14.9744 24.8225 16.1376 24.2902L18.2372 23.2117Z" fill="#787AF2"/>
<path d="M21.98 14.633C21.9353 14.5325 21.843 14.4635 21.7364 14.4426C21.6302 14.4186 21.5202 14.4496 21.4378 14.5255L16.7722 18.9437L18.9234 23.0474L25.1362 22.4871C25.2423 22.4732 25.3385 22.4077 25.3901 22.3107C25.4451 22.2138 25.4486 22.1003 25.4005 21.9998L21.98 14.633Z" fill="#787AF2"/>
<path d="M23.4282 16.1261L25.1951 19.925C25.3563 19.7281 25.4798 19.5072 25.569 19.2613C25.7814 18.6736 25.7541 18.0378 25.4902 17.4741C25.1157 16.6654 24.3097 16.1401 23.4282 16.1261Z" fill="#787AF2"/>
</svg>
