<svg width="42" height="43" viewBox="0 0 42 43" fill="none" xmlns="http://www.w3.org/2000/svg">
<path d="M27.2596 1.94501C38.2506 5.36989 44.377 17.0783 40.9429 28.0972C37.5099 39.1172 25.8165 45.2727 14.8255 41.8478C3.83459 38.4229 -2.29189 26.7144 1.14112 15.6956C4.57529 4.67679 16.2686 -1.47871 27.2596 1.94501Z" fill="white"/>
<path fill-rule="evenodd" clip-rule="evenodd" d="M41.7378 25.422L36.4054 23.7607C37.1798 16.5812 32.7774 9.60953 25.5863 7.36768C18.3964 5.12816 10.8129 8.36496 7.37057 14.7132L2.0382 13.053C6.44179 3.81742 17.1146 -1.01224 27.2175 2.13633C37.3191 5.28373 43.3608 15.3215 41.7378 25.422ZM39.9615 31.1224L34.6291 29.4611C31.1868 35.8104 23.6045 39.0472 16.4134 36.8077C9.22232 34.567 4.82106 27.5954 5.59427 20.4147L0.261909 18.7534C-1.35997 28.8539 4.68058 38.8917 14.7834 42.0391C24.8851 45.1865 35.5591 40.358 39.9615 31.1224Z" fill="#787AF2"/>
<path d="M22.3159 28.5169L22.3948 30.9062L20.0996 30.9805L20.0264 28.756C18.4521 28.7375 16.9185 28.3671 16.0094 27.8795L16.6224 25.1164C17.6244 25.6226 19.0245 26.0707 20.5431 26.0208C21.8793 25.9767 22.7744 25.4322 22.7431 24.4929C22.7141 23.6013 21.9455 23.0661 20.1924 22.5367C17.6569 21.7762 15.9073 20.6617 15.8318 18.3862C15.7633 16.3243 17.1634 14.6606 19.6537 14.0871L19.5806 11.8615L21.8747 11.7872L21.9432 13.8491C23.514 13.8677 24.5798 14.1614 25.3646 14.5109L24.7725 17.1776C24.1537 16.9396 23.0577 16.4392 21.3697 16.495C19.8476 16.5437 19.3786 17.2183 19.4006 17.8707C19.4262 18.6428 20.2609 19.1083 22.2799 19.7933C25.101 20.6873 26.2678 21.9365 26.3375 24.0448C26.4095 26.1311 24.9931 27.9608 22.3159 28.5169Z" fill="#787AF2"/>
</svg>
