<svg width="42" height="42" viewBox="0 0 42 42" fill="none" xmlns="http://www.w3.org/2000/svg">
<path d="M27.2891 1.00536C38.3113 4.46585 44.475 16.2324 41.0566 27.2867C37.6378 38.3411 25.9313 44.4971 14.9096 41.0366C3.88735 37.5756 -2.27641 25.8091 1.14198 14.7547C4.56079 3.70039 16.2668 -2.45514 27.2891 1.00536Z" fill="white"/>
<path fill-rule="evenodd" clip-rule="evenodd" d="M41.737 24.3627L36.4031 22.6877C37.1676 15.482 32.7568 8.47934 25.5642 6.2214C18.3717 3.96302 10.7943 7.20125 7.36029 13.5694L2.02686 11.8944C6.41685 2.63166 17.0824 -2.19993 27.1872 0.972805C37.2924 4.14554 43.3461 14.2266 41.737 24.3627ZM39.9688 30.0815L34.635 28.4065C31.2014 34.7751 23.6236 38.0138 16.4306 35.7554C9.23763 33.4971 4.82684 26.4944 5.59173 19.2879L0.25787 17.6133C-1.35165 27.7498 4.70246 37.8313 14.8077 41.0036C24.9129 44.1768 35.5788 39.3447 39.9688 30.0815Z" fill="#787AF2"/>
<path d="M22.872 25.0599H20.04V24.1479C20.04 23.3799 20.152 22.7479 20.376 22.2519C20.6 21.7559 21.016 21.2199 21.624 20.6439L22.704 19.6119C23.44 18.9399 23.808 18.2279 23.808 17.4759C23.808 16.8359 23.6 16.3079 23.184 15.8919C22.784 15.4759 22.24 15.2679 21.552 15.2679C20.832 15.2679 20.248 15.5159 19.8 16.0119C19.368 16.4919 19.136 17.0759 19.104 17.7639L16.152 17.4999C16.328 15.9959 16.928 14.8119 17.952 13.9479C18.976 13.0839 20.24 12.6519 21.744 12.6519C23.2 12.6519 24.416 13.0599 25.392 13.8759C26.368 14.6919 26.856 15.8279 26.856 17.2839C26.856 18.2119 26.672 18.9639 26.304 19.5399C25.936 20.1159 25.32 20.7799 24.456 21.5319C23.8 22.1079 23.368 22.5719 23.16 22.9239C22.968 23.2599 22.872 23.7639 22.872 24.4359V25.0599ZM20.136 29.6919C19.752 29.3399 19.56 28.9079 19.56 28.3959C19.56 27.8839 19.744 27.4439 20.112 27.0759C20.496 26.7079 20.952 26.5239 21.48 26.5239C22.008 26.5239 22.456 26.6999 22.824 27.0519C23.208 27.4039 23.4 27.8359 23.4 28.3479C23.4 28.8599 23.208 29.2999 22.824 29.6679C22.456 30.0359 22.008 30.2199 21.48 30.2199C20.968 30.2199 20.52 30.0439 20.136 29.6919Z" fill="#787AF2"/>
</svg>
