<svg width="62" height="62" viewBox="0 0 62 62" fill="none" xmlns="http://www.w3.org/2000/svg">
<path d="M40 1.99988C55.8208 6.94838 64.9066 24.1922 60 39.9999C55.0927 55.8076 37.8202 64.9484 22 59.9999C6.17914 55.0508 -2.90665 37.8076 1.99996 21.9999C6.90719 6.19218 24.1791 -2.94861 40 1.99988Z" fill="white"/>
<path fill-rule="evenodd" clip-rule="evenodd" d="M60.9999 35.9998L52.9999 32.9998C54.0921 22.7003 48.2763 13.2272 37.9999 9.99979C27.7235 6.77177 16.9062 10.8974 11.9999 19.9998L3.99988 17.9998C10.2721 4.76003 25.5627 -2.53517 39.9999 1.99979C54.4377 6.53474 63.2989 21.5118 60.9999 35.9998ZM57.9999 43.9998L49.9999 41.9998C45.0942 51.1028 34.2769 55.2278 23.9999 51.9998C13.7229 48.7718 7.90705 39.3005 8.99988 28.9998L0.999882 25.9998C-1.29972 40.4884 7.56206 55.4655 21.9999 59.9998C36.4377 64.5354 51.7277 57.2402 57.9999 43.9998Z" fill="#36E19F"/>
<path d="M32.9999 30.9998C32.9993 30.9998 33.0005 30.9998 32.9999 30.9998C32.9999 30.9998 33.0005 30.9998 32.9999 30.9998ZM32.9999 30.9998C33.215 31.0453 33.7843 31.0353 33.9999 30.9998C34.2162 30.965 34.8144 31.1131 34.9999 30.9998L48.9999 21.9998V20.9998L45.9999 17.9998L32.9999 27.9998C32.8192 28.1119 32.1222 27.8268 31.9999 27.9998C31.8747 28.1778 32.0415 28.7851 31.9999 28.9998C31.9584 29.214 31.9505 29.7857 31.9999 29.9998C32.0493 30.214 31.8704 29.8212 31.9999 29.9998C32.1288 30.1785 32.8138 30.8816 32.9999 30.9998C32.7843 30.9562 33.1861 31.1181 32.9999 30.9998Z" fill="white"/>
<g clip-path="url(#clip0_99_2649)">
<path d="M42.0001 23.9998C42.0122 23.9069 42.0122 24.0927 42.0001 23.9998C41.989 23.9215 42.0313 24.0719 42.0001 23.9998C42.0429 24.0589 41.9663 23.9346 42.0001 23.9998C41.9515 23.9155 42.07 23.0658 42.0001 22.9998H41.0001C40.9264 22.9424 41.0871 23.0308 41.0001 22.9998C40.9223 22.9211 41.0996 23.0445 41.0001 22.9998H34.0001C33.6614 22.9998 33.2396 22.7498 33.0001 22.9998C32.7606 23.2499 33.0001 23.6462 33.0001 23.9998C33.0001 24.3534 32.7606 24.7498 33.0001 24.9998C33.2396 25.2499 33.6614 25.9998 34.0001 25.9998H38.0001L33.0001 31.9998L27.0001 28.9998C26.7388 28.8375 26.2997 27.946 26.0001 27.9998C25.7004 28.0536 26.1945 28.7558 26.0001 28.9998L19.0001 36.9998C18.8925 37.1345 19.0499 36.8323 19.0001 36.9998C18.9502 37.1673 18.9847 37.8252 19.0001 37.9998C19.0155 38.1744 18.9217 37.8447 19.0001 37.9998C19.0784 38.1549 18.8708 38.8879 19.0001 38.9998C19.2299 39.1986 19.7017 39.0004 20.0001 38.9998C20.1877 39.0001 20.8301 39.0828 21.0001 38.9998C21.1701 38.9168 20.88 39.1503 21.0001 38.9998L27.0001 30.9998L32.0001 34.9998C32.2587 35.16 32.7034 35.051 33.0001 34.9998C33.2968 34.9486 33.8046 35.2384 34.0001 34.9998L39.0001 27.9998V30.9998C39.0001 31.3534 39.7606 31.7498 40.0001 31.9998C40.2396 32.2499 40.6614 31.9998 41.0001 31.9998C41.3388 31.9998 41.7606 32.2499 42.0001 31.9998C42.2396 31.7498 42.0001 31.3534 42.0001 30.9998V23.9998Z" fill="#787AF2"/>
</g>
<defs>
<clipPath id="clip0_99_2649">
<rect width="31" height="31" fill="white" transform="translate(15 15)"/>
</clipPath>
</defs>
</svg>
