<svg width="62" height="62" viewBox="0 0 62 62" fill="none" xmlns="http://www.w3.org/2000/svg">
<path d="M40 1.99988C55.8208 6.94838 64.9066 24.1922 60 39.9999C55.0927 55.8076 37.8202 64.9484 22 59.9999C6.17914 55.0508 -2.90665 37.8076 1.99996 21.9999C6.90719 6.19218 24.1791 -2.94861 40 1.99988Z" fill="white"/>
<path fill-rule="evenodd" clip-rule="evenodd" d="M60.9999 35.9998L52.9999 32.9998C54.0921 22.7003 48.2763 13.2272 37.9999 9.99979C27.7235 6.77177 16.9062 10.8974 11.9999 19.9998L3.99988 17.9998C10.2721 4.76003 25.5627 -2.53517 39.9999 1.99979C54.4377 6.53474 63.2989 21.5118 60.9999 35.9998ZM57.9999 43.9998L49.9999 41.9998C45.0942 51.1028 34.2769 55.2278 23.9999 51.9998C13.7229 48.7718 7.90705 39.3005 8.99988 28.9998L0.999882 25.9998C-1.29972 40.4884 7.56206 55.4655 21.9999 59.9998C36.4377 64.5354 51.7277 57.2402 57.9999 43.9998Z" fill="#36E19F"/>
<path d="M32.9999 30.9998C32.9993 30.9998 33.0005 30.9998 32.9999 30.9998C32.9999 30.9998 33.0005 30.9998 32.9999 30.9998ZM32.9999 30.9998C33.215 31.0453 33.7843 31.0353 33.9999 30.9998C34.2162 30.965 34.8144 31.1131 34.9999 30.9998L48.9999 21.9998V20.9998L45.9999 17.9998L32.9999 27.9998C32.8192 28.1119 32.1222 27.8268 31.9999 27.9998C31.8747 28.1778 32.0415 28.7851 31.9999 28.9998C31.9584 29.214 31.9505 29.7857 31.9999 29.9998C32.0493 30.214 31.8704 29.8212 31.9999 29.9998C32.1288 30.1785 32.8138 30.8816 32.9999 30.9998C32.7843 30.9562 33.1861 31.1181 32.9999 30.9998Z" fill="white"/>
<g clip-path="url(#clip0_99_2591)">
<path d="M32 35.9999C31.2418 35.9999 29.6304 36.4211 29 35.9999C28.3696 35.5787 28.2901 34.7004 28 33.9999C27.7099 33.2995 27.8521 32.7435 28 31.9999C28.1479 31.2563 28.4639 30.536 29 29.9999C29.5361 29.4638 30.2564 29.1478 31 28.9999C31.7436 28.852 32.2996 28.7098 33 28.9999C33.7004 29.2901 34.5788 29.3695 35 29.9999C35.4212 30.6303 35 31.2418 35 31.9999C35 33.0166 34.7189 34.281 34 34.9999C33.2811 35.7188 33.0167 35.9999 32 35.9999ZM37 39.9999C37 39.2374 36.5392 38.5391 36 37.9999C35.4608 37.4608 34.7625 36.9999 34 36.9999H29C28.2375 36.9999 27.5392 37.4608 27 37.9999C26.4608 38.5391 26 39.2374 26 39.9999V42.9999H37V39.9999ZM37 27.9999C36.2418 27.9999 35.6304 27.4211 35 26.9999C34.3696 26.5787 34.2901 25.7004 34 24.9999C33.7099 24.2995 32.8521 23.7435 33 22.9999C33.1479 22.2563 34.4639 21.536 35 20.9999C35.5361 20.4638 36.2564 20.1478 37 19.9999C37.7436 19.852 38.2995 19.7098 39 19.9999C39.7005 20.2901 39.5788 21.3695 40 21.9999C40.4212 22.6303 41 23.2418 41 23.9999C41 25.0166 40.7189 26.281 40 26.9999C39.2811 27.7188 38.0167 27.9999 37 27.9999ZM26 27.9999C25.2418 27.9999 24.6304 27.4211 24 26.9999C23.3696 26.5787 22.2901 25.7004 22 24.9999C21.7099 24.2995 21.8521 23.7435 22 22.9999C22.1479 22.2563 22.4639 21.536 23 20.9999C23.5361 20.4638 24.2564 20.1478 25 19.9999C25.7436 19.852 26.2996 19.7098 27 19.9999C27.7004 20.2901 28.5788 21.3695 29 21.9999C29.4212 22.6303 30 23.2418 30 23.9999C30 25.0166 28.7189 26.281 28 26.9999C27.2811 27.7188 27.0167 27.9999 26 27.9999ZM26 31.9999C25.9995 30.5839 26.0514 30.0513 27 28.9999H23C22.2375 28.9999 21.5392 28.4608 21 28.9999C20.4608 29.5391 20 31.2374 20 31.9999V33.9999H26C25.7799 33.3848 26.0013 32.6532 26 31.9999ZM37 33.9999H43V31.9999C43 31.2374 42.5392 29.5391 42 28.9999C41.4608 28.4608 40.7625 28.9999 40 28.9999H36C36.6923 29.7656 36.7995 29.9873 37 30.9999C37.2005 32.0126 37.3483 33.0282 37 33.9999Z" fill="#787AF2"/>
</g>
<defs>
<clipPath id="clip0_99_2591">
<rect width="23" height="23" fill="white" transform="translate(20 20)"/>
</clipPath>
</defs>
</svg>
