<svg width="42" height="42" viewBox="0 0 42 42" fill="none" xmlns="http://www.w3.org/2000/svg">
<path d="M27.289 1.00653C38.3113 4.46697 44.475 16.2333 41.0567 27.2875C37.6378 38.3417 25.9313 44.4975 14.9095 41.0371C3.88724 37.5762 -2.27654 25.8099 1.14186 14.7557C4.56069 3.70152 16.2668 -2.4539 27.289 1.00653Z" fill="white"/>
<path fill-rule="evenodd" clip-rule="evenodd" d="M41.7361 24.3625L36.4014 22.6875C37.1685 15.4819 32.7568 8.47942 25.5629 6.22152C18.369 3.96318 10.7938 7.20135 7.3615 13.5694L2.02676 11.8944C6.41676 2.63184 17.0819 -2.19967 27.188 0.973011C37.2898 4.14569 43.3439 14.2266 41.7361 24.3625ZM39.968 30.0813L34.6333 28.4063C31.201 34.7748 23.6214 38.0134 16.4319 35.7551C9.23798 33.4967 4.82631 26.4942 5.59337 19.2878L0.258624 17.6132C-1.3535 27.7496 4.70063 37.8309 14.8067 41.0031C24.9129 44.1762 35.578 39.3443 39.968 30.0813Z" fill="#787AF2"/>
<path d="M20.5705 29.3432C22.1263 29.3506 23.6431 28.8812 24.9259 27.9987C26.2086 27.1158 27.1924 25.8609 27.751 24.4008C27.8203 24.2196 27.7298 24.0156 27.5478 23.9453L20.9172 21.3468V14.1801C20.9172 13.9867 20.7608 13.8295 20.5658 13.8295C18.5511 13.8666 16.6265 14.7006 15.2141 16.1512C13.8014 17.6017 13.0083 19.5535 13.0083 21.5861C13.0083 23.6196 13.8014 25.571 15.2141 27.022C16.6265 28.4725 18.5511 29.3061 20.5658 29.3432H20.5705Z" fill="#787AF2"/>
<path d="M21.5674 20.6366C21.6237 20.6715 21.6887 20.6894 21.7537 20.689C21.8057 20.689 21.8621 20.6741 21.9097 20.647L28.1498 17.3966C28.2369 17.3543 28.2976 17.2783 28.3279 17.187C28.3539 17.0997 28.3452 17.005 28.3019 16.9251C26.9411 14.2584 24.8133 12.8415 21.7537 12.5795C21.6627 12.58 21.5761 12.6145 21.5067 12.6769C21.4374 12.7459 21.4027 12.8402 21.4027 12.9385V20.3357C21.4027 20.4584 21.4634 20.5728 21.5674 20.6366Z" fill="#787AF2"/>
<path d="M22.7327 20.8675C22.6157 20.9326 22.5424 21.0623 22.5554 21.1994C22.5637 21.3356 22.6508 21.4553 22.7765 21.5037L28.5571 23.725C28.7309 23.7835 28.9212 23.6966 28.9948 23.5263C29.3506 22.6582 29.5149 21.7216 29.4676 20.7833C29.4239 19.8445 29.1725 18.928 28.7353 18.0988C28.6962 18.0106 28.6178 17.9437 28.5272 17.9154C28.4926 17.9027 28.4579 17.8966 28.4189 17.897C28.3621 17.8966 28.3058 17.911 28.2581 17.9389L22.7327 20.8675Z" fill="#787AF2"/>
</svg>
