<svg width="62" height="61" viewBox="0 0 62 61" fill="none" xmlns="http://www.w3.org/2000/svg">
<path d="M40.0002 2.00006C55.8207 6.86554 64.9076 23.4575 60.0002 39.0001C55.0929 54.5442 37.8207 63.8655 22.0002 59.0001C6.17968 54.1346 -2.90714 37.5426 2.00021 22.0001C6.90756 6.45589 24.1797 -2.86541 40.0002 2.00006Z" fill="white"/>
<path fill-rule="evenodd" clip-rule="evenodd" d="M61.0001 34.9999L53.0001 32.9999C54.0919 22.8705 48.2757 13.1758 38.0001 9.99992C27.7229 6.82573 16.9048 11.0513 12.0001 19.9999L4.0001 17.9999C10.272 4.97916 25.5632 -2.46039 40.0001 1.99992C54.4387 6.45859 63.2998 20.7522 61.0001 34.9999ZM58.0001 42.9999L50.0001 40.9999C45.0954 49.9485 34.2757 54.1758 24.0001 50.9999C13.7229 47.8274 7.90667 38.1277 9.0001 27.9999L1.0001 25.9999C-1.30124 40.2476 7.56152 54.5413 22.0001 58.9999C36.4387 63.4602 51.7266 56.0207 58.0001 42.9999Z" fill="#36E19F"/>
<path d="M22.0001 29.9999C21.8856 35.4483 25.5514 39.8871 31.0001 39.9999C36.4472 40.116 40.8889 36.4483 41.0001 30.9999C41.1162 25.5531 37.4472 21.1127 32.0001 20.9999C26.5514 20.8838 22.1129 24.5531 22.0001 29.9999ZM47.0001 30.9999C46.8202 39.5601 39.5558 46.1781 31.0001 45.9999C22.4411 45.8184 15.8219 38.5568 16.0001 29.9999C16.18 21.4414 23.4428 14.8233 32.0001 14.9999C40.5591 15.1798 47.1783 22.4446 47.0001 30.9999Z" fill="#787AF2"/>
<path d="M28 29.9999C27.8903 32.2465 29.7534 33.8919 32 33.9999C34.2466 34.1095 35.8903 32.2465 36 29.9999C36.108 27.7532 34.2483 26.1079 32 25.9999C29.7551 25.8902 28.1064 27.7516 28 29.9999ZM39 29.9999C38.8139 33.8633 35.8618 37.186 32 36.9999C28.1382 36.8138 24.8122 33.8617 25 29.9999C25.1878 26.138 28.1416 22.8121 32 22.9999C35.8635 23.1843 39.1878 26.1397 39 29.9999Z" fill="#787AF2"/>
<mask id="mask0_99_2610" style="mask-type:alpha" maskUnits="userSpaceOnUse" x="1" y="0" width="60" height="59">
<path d="M25 7.99951H59V45.9995H25V7.99951Z" fill="black"/>
<path d="M10.0001 23.9997C7.04578 35.6474 14.1431 48.0401 26.0001 50.9997C37.8588 53.9593 49.0458 46.6474 52.0001 34.9997C54.9544 23.352 47.8588 10.956 36.0001 7.99969C24.1431 5.04169 12.9544 12.3536 10.0001 23.9997ZM60.0001 36.9997C55.9958 52.7883 40.0737 62.009 24.0001 57.9997C7.92808 53.9888 -2.00423 37.785 2.00008 21.9997C6.0044 6.21273 21.9264 -3.00956 38.0001 0.999695C54.0721 5.00731 64.0044 21.2127 60.0001 36.9997Z" fill="#9DA0F5"/>
</mask>
<g mask="url(#mask0_99_2610)">
<path d="M53.4908 12.1358C53.5798 12.1744 53.4449 12.0623 53.4908 12.1358C53.5366 12.2086 53.5915 13.0475 53.5798 13.1318L48.7771 15.5619L53.4908 12.1358C53.3911 12.1439 53.5699 12.0832 53.4908 12.1358C53.4035 12.0971 53.5913 12.127 53.4908 12.1358ZM33.9963 29.9119C33.9013 29.9043 33.0837 30.0356 33.0001 29.9995C32.9165 29.9627 33.0589 30.061 33.0001 29.9995C32.9406 29.9388 33.0262 30.0762 33.0001 29.9995C32.9741 29.9235 32.899 29.0835 32.9111 29.0035C32.9223 28.9235 32.8641 29.0735 32.9111 29.0035C32.9581 28.9334 32.8354 29.0551 32.9111 29.0035L48.0481 18.6376L48.7771 15.5619L53.4908 12.1358C53.6054 12.0598 53.3478 12.1477 53.4908 12.1358C53.6329 12.1233 53.3653 12.0802 53.4908 12.1358M33.9963 29.9119C34.0903 29.9188 33.9031 29.9346 33.9963 29.9119C34.0876 29.8879 33.9213 29.962 33.9963 29.9119L49.1333 19.546L53.207 20.1916L57.9206 16.7655C58.0334 16.6882 57.8767 16.8795 57.9206 16.7655C57.9645 16.6501 57.9596 16.8788 57.9206 16.7655C57.8834 16.6514 57.9405 15.8454 57.8316 15.7695C57.7236 15.6942 56.9779 15.8678 56.8354 15.8571L54.8431 16.0323L56.7464 14.8611C56.8809 14.7543 56.6429 14.0163 56.6573 13.8651C56.6717 13.7131 56.77 13.982 56.6573 13.8651C56.5439 13.7482 56.838 13.884 56.6573 13.8651C56.4766 13.8455 55.8123 13.8648 55.6612 13.9527L53.7579 15.1239L54.576 13.0442C54.5924 12.9247 54.5531 12.1533 54.4869 12.0482C54.4218 11.9445 53.6154 12.1915 53.4908 12.1358" fill="#787AF2"/>
<path d="M33.9963 29.9119C33.9013 29.9043 33.0837 30.0356 33.0001 29.9995C32.9165 29.9627 33.0589 30.061 33.0001 29.9995C32.9406 29.9388 33.0262 30.0762 33.0001 29.9995C32.9741 29.9235 32.899 29.0835 32.9111 29.0035C32.9223 28.9235 32.8641 29.0735 32.9111 29.0035C32.9581 28.9334 32.8354 29.0551 32.9111 29.0035L48.0481 18.6376L48.7771 15.5619V15.5619V15.5619L53.4908 12.1358V12.1358C53.6054 12.0598 53.3478 12.1477 53.4908 12.1358C53.6329 12.1233 53.3653 12.0802 53.4908 12.1358V12.1358M33.9963 29.9119C34.0903 29.9188 33.9031 29.9346 33.9963 29.9119C34.0876 29.8879 33.9213 29.962 33.9963 29.9119L49.1333 19.546L53.207 20.1916V20.1916V20.1916L57.9206 16.7655V16.7655C58.0334 16.6882 57.8767 16.8795 57.9206 16.7655C57.9645 16.6501 57.9596 16.8788 57.9206 16.7655C57.8834 16.6514 57.9405 15.8454 57.8316 15.7695C57.7236 15.6942 56.9779 15.8678 56.8354 15.8571V15.8571L54.8431 16.0323L56.7464 14.8611V14.8611V14.8611C56.8809 14.7543 56.6429 14.0163 56.6573 13.8651C56.6717 13.7131 56.77 13.982 56.6573 13.8651C56.5439 13.7482 56.838 13.884 56.6573 13.8651C56.4766 13.8455 55.8123 13.8648 55.6612 13.9527V13.9527V13.9527L53.7579 15.1239L54.576 13.0442V13.0442C54.5924 12.9247 54.5531 12.1533 54.4869 12.0482C54.4218 11.9445 53.6154 12.1915 53.4908 12.1358V12.1358M53.4908 12.1358C53.5798 12.1744 53.4449 12.0623 53.4908 12.1358C53.5366 12.2086 53.5915 13.0475 53.5798 13.1318L48.7771 15.5619L53.4908 12.1358C53.5699 12.0832 53.3911 12.1439 53.4908 12.1358C53.5913 12.127 53.4035 12.0971 53.4908 12.1358ZM33.9963 29.9119V29.9119V29.9119V29.9119V29.9119Z" stroke="#787AF2" stroke-width="1.09333"/>
</g>
</svg>
