<svg width="48" height="48" viewBox="0 0 48 48" fill="none" xmlns="http://www.w3.org/2000/svg">
<g clip-path="url(#clip0_192_12824)">
<path d="M27.0002 24L35.0002 15C35.3764 14.6237 36.0002 14.5322 36.0002 14C36.0002 13.4678 35.3764 13.3763 35.0002 13C34.6239 12.6237 34.5323 12 34.0002 12C33.4681 12 33.3764 12.6237 33.0002 13L24.0002 21L15.0002 13C14.6239 12.6237 14.5323 12 14.0002 12C13.4681 12 13.3764 12.6237 13.0002 13C12.6239 13.3763 12.0002 13.4678 12.0002 14C12.0002 14.5322 12.6239 14.6237 13.0002 15L21.0002 24L13.0002 33C12.8129 33.1858 12.1016 32.7565 12.0002 33C11.8987 33.2435 12.0002 33.7362 12.0002 34C12.0002 34.2638 11.8987 34.7565 12.0002 35C12.1016 35.2435 12.8129 34.8142 13.0002 35C13.1859 35.1873 12.7567 35.8985 13.0002 36C13.2436 36.1015 13.7364 36 14.0002 36C14.2639 36 14.7567 36.1015 15.0002 36C15.2436 35.8985 14.8144 35.1873 15.0002 35L24.0002 27L33.0002 35C33.1859 35.1873 32.7567 35.8985 33.0002 36C33.2436 36.1015 33.7364 36 34.0002 36C34.2639 36 34.7567 36.1015 35.0002 36C35.2436 35.8985 34.8144 35.1873 35.0002 35C35.1874 34.8142 35.8987 35.2435 36.0002 35C36.1016 34.7565 36.0002 34.2638 36.0002 34C36.0002 33.7362 36.1016 33.2435 36.0002 33C35.8987 32.7565 35.1874 33.1858 35.0002 33L27.0002 24Z" fill="white"/>
</g>
<defs>
<clipPath id="clip0_192_12824">
<rect width="48" height="48" fill="white"/>
</clipPath>
</defs>
</svg>
