<svg width="24" height="24" viewBox="0 0 24 24" fill="none" xmlns="http://www.w3.org/2000/svg">
<g clip-path="url(#clip0_130_206)">
<path d="M21.0003 6.00001H20.0003V5.00001C20.0003 4.73479 20.1879 4.18754 20.0003 4.00001C19.8128 3.81247 19.2656 4.00001 19.0003 4.00001C18.7351 4.00001 18.1879 3.81247 18.0003 4.00001C17.8128 4.18754 18.0003 4.73479 18.0003 5.00001V6.00001H17.0003C16.7351 6.00001 16.1879 5.81247 16.0003 6.00001C15.8128 6.18754 16.0003 6.73479 16.0003 7.00001C16.0003 7.26522 15.8128 7.81247 16.0003 8.00001C16.1879 8.18754 16.7351 8.00001 17.0003 8.00001H18.0003V9.00001C18.0003 9.26522 17.8128 9.81247 18.0003 10C18.1879 10.1875 18.7351 10 19.0003 10C19.2656 10 19.8128 10.1875 20.0003 10C20.1879 9.81247 20.0003 9.26522 20.0003 9.00001V8.00001H21.0003C21.2656 8.00001 21.8128 8.18754 22.0003 8.00001C22.1879 7.81247 22.0003 7.26522 22.0003 7.00001C22.0003 6.73479 22.1879 6.18754 22.0003 6.00001C21.8128 5.81247 21.2656 6.00001 21.0003 6.00001Z" fill="#787AF2"/>
<path d="M10 11C10.7911 11 11.3422 10.4395 12 9.99999C12.6578 9.56047 13.6972 9.7309 14 8.99999C14.3028 8.26909 14.1543 6.77592 14 5.99999C13.8457 5.22407 13.5594 4.5594 13 3.99999C12.4406 3.44058 11.7759 3.15433 11 2.99999C10.2241 2.84565 8.7309 2.69724 8 2.99999C7.2691 3.30274 7.43953 4.3422 7 4.99999C6.56047 5.65779 6 6.20887 6 6.99999C6 8.06086 6.24985 9.24985 7 9.99999C7.75015 10.7501 8.93913 11 10 11ZM10 4.99999C10.3956 4.99999 10.6711 4.78023 11 4.99999C11.3289 5.21976 11.8486 5.63454 12 5.99999C12.1514 6.36545 12.0772 6.61203 12 6.99999C11.9228 7.38795 11.2797 7.72029 11 7.99999C10.7203 8.2797 10.388 8.92282 10 8.99999C9.61204 9.07716 9.36545 9.15137 9 8.99999C8.63455 8.84862 8.21976 8.32889 8 7.99999C7.78024 7.67109 8 7.39556 8 6.99999C8 6.46956 8.62493 6.37507 9 5.99999C9.37507 5.62492 9.46957 4.99999 10 4.99999Z" fill="#787AF2"/>
<path d="M10.0003 13C8.14383 13 6.3131 13.6872 5.00034 15C3.68759 16.3128 3.00034 18.1435 3.00034 20C3.00034 20.2652 2.81281 20.8125 3.00034 21C3.18788 21.1875 3.73513 21 4.00034 21C4.26556 21 4.81281 21.1875 5.00034 21C5.18788 20.8125 5.00034 20.2652 5.00034 20C5.00034 18.6739 5.06266 16.9377 6.00034 16C6.93802 15.0623 8.67426 15 10.0003 15C11.3264 15 13.0627 15.0623 14.0003 16C14.938 16.9377 15.0003 18.6739 15.0003 20C15.0003 20.2652 14.8128 20.8125 15.0003 21C15.1879 21.1875 15.7351 21 16.0003 21C16.2656 21 16.8128 21.1875 17.0003 21C17.1879 20.8125 17.0003 20.2652 17.0003 20C17.0003 18.1435 16.3131 16.3128 15.0003 15C13.6876 13.6872 11.8569 13 10.0003 13Z" fill="#787AF2"/>
</g>
<defs>
<clipPath id="clip0_130_206">
<rect width="24" height="24" fill="white"/>
</clipPath>
</defs>
</svg>
