<svg width="20" height="20" viewBox="0 0 20 20" fill="none" xmlns="http://www.w3.org/2000/svg">
<path d="M16.9998 16L13.9998 13C14.9137 11.8357 15.0017 10.48 14.9998 8.99995C14.9998 7.68183 14.7321 6.09593 13.9998 4.99995C13.2675 3.90398 12.2176 3.50437 10.9998 2.99995C9.78205 2.49553 8.29262 1.7428 6.99983 1.99995C5.70704 2.2571 4.93188 3.0679 3.99983 3.99995C3.06778 4.932 2.25698 5.70716 1.99983 6.99995C1.74268 8.29274 2.49541 9.78217 2.99983 11C3.50425 12.2177 3.90386 13.2676 4.99983 14C6.0958 14.7323 7.68171 15 8.99983 15C10.4799 15.0018 11.8356 14.9138 12.9998 14L15.9998 17C16.0773 17.078 15.8983 16.9577 15.9998 17C16.1013 17.0422 15.8899 17 15.9998 17C16.1098 17 15.8983 17.0422 15.9998 17C16.1013 16.9577 16.9224 17.078 16.9998 17C17.0779 16.9225 16.9575 16.1015 16.9998 16C16.9998 16.1099 17.0421 15.8984 16.9998 16C17.0421 16.1015 16.9998 15.89 16.9998 16C17.0779 16.0774 16.9575 15.8984 16.9998 16ZM3.99983 8.99995C3.99983 8.01136 4.4506 6.82193 4.99983 5.99995C5.54906 5.17797 6.08649 4.37827 6.99983 3.99995C7.91317 3.62164 9.03024 3.80709 9.99983 3.99995C10.9694 4.19282 11.3008 4.30091 11.9998 4.99995C12.6989 5.69899 13.807 7.03036 13.9998 7.99995C14.1927 8.96954 13.3781 10.0866 12.9998 11C12.6215 11.9133 11.8218 12.4507 10.9998 13C10.1778 13.5492 9.98842 14 8.99983 14C7.67417 14 5.93721 12.9373 4.99983 12C4.06245 11.0626 3.99983 10.3256 3.99983 8.99995Z" fill="#5B5B5B"/>
</svg>
