<svg width="18" height="18" viewBox="0 0 18 18" fill="none" xmlns="http://www.w3.org/2000/svg">
<g clip-path="url(#clip0_130_275)">
<path d="M14 16C10.9441 15.9961 7.16086 15.1652 5 13C2.83914 10.8349 2.00396 7.06203 2 4.00004C2 3.08506 2.35429 2.64703 3 2.00004C3.64571 1.35305 4.08683 1.00004 5 1.00004C5.19337 0.998563 5.81007 0.963648 6 1.00004C6.18362 1.02726 6.8252 0.937482 7 1.00004C7.12294 1.04326 6.91467 0.901386 7 1.00004C7.08533 1.09869 6.97478 1.87196 7 2.00004L8 6.00004C8.02764 6.12218 8.03399 6.87951 8 7.00004C7.96601 7.12056 8.08736 6.91046 8 7.00004C7.90269 7.10504 7.92066 7.52005 7 8.00004C7.73727 9.62066 8.38563 10.2547 10 11C10.4865 10.0701 10.8952 10.0975 11 10C11.0894 9.91251 10.8797 10.0341 11 10C11.1203 9.96598 11.8781 9.97234 12 10L16 11C16.1237 11.0288 16.9057 10.9148 17 11C17.0943 11.0853 16.9588 10.8796 17 11C17.0632 11.1781 16.9685 11.8138 17 12C17.0301 12.1885 17.0002 12.8091 17 13C16.9862 13.9111 16.6507 14.3635 16 15C15.3493 15.6366 14.9093 16.0081 14 16ZM5 3.00004C4.48447 3.00201 4.36454 2.63478 4 3.00004C3.63546 3.3653 3.00197 3.48348 3 4.00004C3.00198 6.66482 4.11945 10.1158 6 12C7.88055 13.8843 11.3405 13.9981 14 14C14.5155 13.9981 14.6355 14.3653 15 14C15.3645 13.6348 14.998 13.5166 15 13V12L12 11V12C11.6632 12.6525 11.6287 13.255 11 13C9.75964 12.5552 7.92961 11.9354 7 11C6.07039 10.0647 5.43879 8.2447 5 7.00004C4.73054 6.41505 5.35629 6.33753 6 6.00004V3.00004H5Z" fill="#36E19F"/>
</g>
<defs>
<clipPath id="clip0_130_275">
<rect width="18" height="18" fill="white"/>
</clipPath>
</defs>
</svg>
