<svg width="17" height="18" viewBox="0 0 17 18" fill="none" xmlns="http://www.w3.org/2000/svg">
<g clip-path="url(#clip0_130_268)">
<path d="M9 2C7.55079 1.99992 6.02988 2.88773 5 4C3.97012 5.11227 3.01449 6.41913 3 8C3 12.11 7.79375 16.805 8 17C8.12453 17.1162 8.83613 17 9 17C9.16387 17 8.87547 17.1162 9 17C9.24062 16.805 14 12.11 14 8C13.9855 6.41913 13.0299 5.11227 12 4C10.9701 2.88773 10.4492 1.99992 9 2ZM9 15C7.85188 13.8075 4 10.7975 4 8C4 6.80653 5.22641 5.84391 6 5C6.77359 4.15609 7.90598 3 9 3C10.094 3 10.2264 4.15609 11 5C11.7736 5.84391 13 6.80653 13 8C13 10.775 10.1481 13.8075 9 15Z" fill="#36E19F"/>
<path d="M8.99996 5.00002C8.5055 5.00002 7.41108 4.72532 6.99996 5.00002C6.58883 5.27472 6.18918 6.5432 5.99996 7.00002C5.81074 7.45684 5.90349 7.51507 5.99996 8.00002C6.09642 8.48497 6.65033 8.65039 6.99996 9.00002C7.34959 9.34965 7.515 9.90356 7.99996 10C8.48491 10.0965 8.54314 10.1892 8.99996 10C9.45677 9.8108 10.7253 9.41114 11 9.00002C11.2747 8.5889 11 7.49447 11 7.00002C11 6.33698 10.4688 6.46886 9.99996 6.00002C9.53112 5.53118 9.663 5.00002 8.99996 5.00002ZM8.99996 9.00002C8.78805 9.00002 8.17615 8.11775 7.99996 8.00002C7.82376 7.88229 8.08105 8.1958 7.99996 8.00002C7.91886 7.80424 6.95862 7.20786 6.99996 7.00002C7.0413 6.79218 7.85012 7.14986 7.99996 7.00002C8.1498 6.85018 7.79212 6.04136 7.99996 6.00002C8.20779 5.95868 8.80418 6.91893 8.99996 7.00002C9.19574 7.08111 8.88223 6.82382 8.99996 7.00002C9.11769 7.17622 9.99996 6.78811 9.99996 7.00002C9.99996 7.28418 9.20089 7.79909 8.99996 8.00002C8.79903 8.20095 9.28412 9.00002 8.99996 9.00002Z" fill="#36E19F"/>
</g>
<defs>
<clipPath id="clip0_130_268">
<rect width="17" height="18" fill="white"/>
</clipPath>
</defs>
</svg>
