<svg width="18" height="18" viewBox="0 0 18 18" fill="none" xmlns="http://www.w3.org/2000/svg">
<g clip-path="url(#clip0_130_283)">
<path d="M17 9C17 8.01509 16.3769 7.90994 16 7C15.6231 6.09006 15.6964 4.69644 15 4C14.3036 3.30356 12.9099 3.37691 12 3C11.0901 2.62309 9.98491 2 9 2C7.01088 2 5.40652 2.59348 4 4C2.59348 5.40652 2 7.01088 2 9C2 10.9891 2.59348 13.5935 4 15C5.40652 16.4065 7.01088 17 9 17C10.9891 17 13.5935 16.4065 15 15C16.4065 13.5935 17 10.9891 17 9ZM15 9H13C12.8763 7.23611 13.0194 5.44476 12 4C13.0473 4.37198 13.3034 5.13392 14 6C14.6966 6.86608 14.8613 7.89725 15 9ZM7 10H12C11.8081 11.8529 10.2683 13.6356 9 15C7.73255 13.6413 7.15089 11.852 7 10ZM7 9C7.17466 7.15637 7.75319 5.36929 9 4C10.2785 5.35459 11.8201 7.14603 12 9H7ZM8 4C6.97516 5.45277 6.1386 7.22754 6 9H4C4.14168 7.88362 4.28783 6.87131 5 6C5.71217 5.12869 6.93414 4.361 8 4ZM4 10H6C6.12352 11.771 6.97091 13.5535 8 15C6.93798 14.6372 5.70929 13.8697 5 13C4.29071 12.1303 4.14176 11.1133 4 10ZM11 15C12.0263 13.553 12.858 11.7683 13 10H15C14.8582 11.1102 14.7064 12.1319 14 13C13.2936 13.8681 12.0582 14.6355 11 15Z" fill="#36E19F"/>
</g>
<defs>
<clipPath id="clip0_130_283">
<rect width="18" height="18" fill="white"/>
</clipPath>
</defs>
</svg>
