<svg width="30" height="125" viewBox="0 0 30 125" fill="none" xmlns="http://www.w3.org/2000/svg">
<g clip-path="url(#clip0_181_9796)">
<path d="M-1.54902e-05 0.00010595C11.2119 5.52808 26.3515 34.9582 29 56.0001C31.9133 78.7361 29.4478 92.2519 17 119C18.7656 118.643 19.6757 118.178 21 118C22.5008 117.733 24.4992 116.911 26 117C26.4414 117 26.9117 118.465 27 119C27.0883 119.535 26.4414 119.822 26 120C21.7624 121.605 17.3258 123.484 13 125C11.5875 125.446 11.4414 124.516 11 123C9.58746 117.205 7.32422 111.885 5.99998 106C5.73513 104.663 5.99998 102.783 5.99998 101C9.79613 102.427 10.0289 105.682 11 108C12.0594 110.407 11.9406 112.879 13 116C17.9438 108.6 21.0578 100.935 23 93.0001C30.2391 63.9337 25.0674 37.6976 8.99998 13.0001C6.88121 9.79032 4.20705 6.12073 1.99998 3.00011C1.55857 2.01934 0.882808 1.51584 -1.54902e-05 0.00010595Z" fill="#787AF2"/>
</g>
<defs>
<clipPath id="clip0_181_9796">
<rect width="125" height="30" fill="white" transform="translate(30) rotate(90)"/>
</clipPath>
</defs>
</svg>
