<svg width="128" height="144" viewBox="0 0 128 144" fill="none" xmlns="http://www.w3.org/2000/svg">
<path d="M22.848 19.224H4.8L36.96 87L45.696 68.664L45.984 68.088L30.912 36.216L22.848 19.224ZM51.072 19.32L40.224 42.264L39.936 42.84L48.96 61.944L50.688 58.392L69.216 19.32H51.072Z" fill="#787AF2"/>
<path d="M80.704 53.048L97.024 69.368H122.752V53.048H80.704ZM121.888 92.6L121.6 91.928C121.6 91.832 121.6 91.736 121.6 91.64L121.312 90.776L121.216 90.584C121.024 90.2 120.832 89.816 120.64 89.432L120.544 89.336C120.256 88.76 119.968 88.184 119.68 87.608L119.584 87.416C119.488 87.32 119.392 87.224 119.296 87.128C119.2 87.032 119.104 86.936 119.008 86.84C118.912 86.648 118.816 86.456 118.72 86.264L118.624 86.168C118.528 86.072 118.432 85.976 118.336 85.88C118.336 85.784 118.336 85.688 118.336 85.592L118.144 85.4C118.048 85.304 117.952 85.208 117.856 85.112C117.568 84.824 117.28 84.536 116.992 84.248C116.896 84.152 116.8 84.056 116.704 83.96C116.608 83.864 116.512 83.864 116.416 83.864L116.224 83.672C116.128 83.576 116.032 83.48 115.936 83.384C115.744 83.192 115.552 83.096 115.456 83C115.072 82.712 114.688 82.424 114.304 82.136L114.208 82.04C114.016 81.944 113.824 81.848 113.632 81.752C113.44 81.656 113.248 81.56 113.056 81.464L112.576 81.176C112.288 80.984 112 80.792 111.712 80.6C111.52 80.504 111.328 80.408 111.136 80.312C111.04 80.312 110.944 80.312 110.848 80.312C110.56 80.216 110.272 80.12 109.984 80.024H109.888C109.696 79.928 109.504 79.832 109.312 79.736H109.216C108.832 79.64 108.448 79.544 108.064 79.448H107.968C107.776 79.352 107.584 79.256 107.392 79.16C107.296 79.16 107.2 79.16 107.104 79.16L106.912 79.064H106.816C106.624 78.968 106.432 78.872 106.24 78.872H106.144C105.952 78.872 105.76 78.872 105.568 78.872H105.28C105.088 78.872 104.896 78.872 104.704 78.872H104.608C104.512 78.872 104.416 78.872 104.32 78.872C104.128 78.872 103.936 78.872 103.744 78.872C103.648 78.872 103.552 78.872 103.456 78.872H103.36C103.264 78.872 103.168 78.872 103.072 78.872C102.88 78.872 102.688 78.872 102.496 78.872H102.304C102.208 78.872 102.112 78.872 102.016 78.872H101.92C101.824 78.872 101.728 78.872 101.632 78.872H76.768C74.464 78.872 72.544 76.952 72.544 74.648C72.544 72.344 74.464 70.424 76.768 70.424H88.96L72.928 54.392L72.256 54.584C71.776 54.68 71.296 54.776 70.816 54.968C67.552 55.928 64.576 57.752 62.176 60.152C59.776 62.552 57.952 65.528 56.992 68.792C56.416 70.712 56.128 72.728 56.128 74.744C56.128 76.76 56.416 78.776 56.992 80.696C57.952 83.96 59.776 86.936 62.176 89.336C64.576 91.736 67.552 93.56 70.816 94.52C72.736 95.096 74.752 95.384 76.768 95.384H101.632C103.936 95.384 105.856 97.304 105.856 99.608C105.856 101.912 103.936 103.832 101.632 103.832H56.224V120.152H101.632C106.144 120.152 110.464 118.712 114.016 116.024C117.472 113.432 120.064 109.688 121.312 105.56C121.888 103.64 122.176 101.624 122.176 99.608C122.176 97.592 121.888 95.576 121.312 93.656L121.888 92.6Z" fill="#787AF2"/>
<line x1="87.1989" y1="3.32605" x2="34.326" y2="115.801" stroke="#36E19F" stroke-width="5" stroke-linecap="round"/>
</svg>
