<svg width="661" height="657" viewBox="0 0 661 657" fill="none" xmlns="http://www.w3.org/2000/svg">
<g opacity="0.169998">
<path d="M512.46 93.9602C519.93 84.1068 518.01 69.9721 507.962 62.5399C498.109 55.0665 483.97 56.9938 476.538 67.0381C469.069 76.8879 470.992 91.03 481.04 98.4622C491.084 105.891 504.991 103.814 512.46 93.9602Z" fill="white"/>
</g>
<g opacity="0.490005">
<path d="M507.033 89.4215C511.8 83.1269 510.573 74.1042 504.162 69.3627C497.875 64.5913 488.849 65.8188 484.103 72.2331C479.336 78.5239 480.563 87.5503 486.978 92.2918C493.392 97.0296 502.265 95.7085 507.033 89.4215Z" fill="white"/>
</g>
<path d="M502.614 86.0923C505.597 82.204 504.774 76.6879 500.885 73.7053C496.997 70.7301 491.481 71.5497 488.498 75.438C485.519 79.3262 486.343 84.8424 490.231 87.8212C494.168 90.729 499.759 89.9544 502.614 86.0923Z" fill="white"/>
<g opacity="0.169998">
<path d="M80.4605 577.96C87.9301 568.107 86.0103 553.972 75.9622 546.54C66.1088 539.067 51.9703 540.994 44.5381 551.038C37.0685 560.888 38.992 575.03 49.0401 582.462C59.0845 589.891 72.9909 587.814 80.4605 577.96Z" fill="#36E19F"/>
</g>
<g opacity="0.490005">
<path d="M75.0325 573.421C79.8002 567.127 78.5727 558.104 72.1622 553.363C65.8751 548.591 56.8487 549.819 52.1034 556.233C47.3357 562.524 48.5632 571.55 54.9775 576.292C61.3918 581.03 70.2648 579.709 75.0325 573.421Z" fill="#36E19F"/>
</g>
<path d="M70.6143 570.092C73.5969 566.204 72.7736 560.688 68.8854 557.705C64.9971 554.73 59.481 555.55 56.4984 559.438C53.5195 563.326 54.3428 568.842 58.231 571.821C62.1679 574.729 67.7589 573.954 70.6143 570.092Z" fill="#36E19F"/>
<path d="M329 637C499.623 637 638 498.912 638 328.5C638 158.088 499.623 20 329 20C158.377 20 20 158.088 20 328.5C20 498.912 158.377 637 329 637Z" stroke="#787AF2" stroke-opacity="0.05" stroke-width="40"/>
<path d="M172.167 51.4645C186.301 55.9018 194.205 70.9898 189.821 85.1645C185.438 99.3393 170.426 107.233 156.293 102.796C142.16 98.3578 134.256 83.2698 138.639 69.095C143.023 54.9203 158.034 47.0272 172.167 51.4645Z" fill="white"/>
<path fill-rule="evenodd" clip-rule="evenodd" d="M190.694 81.4148L183.854 79.2669C184.834 70.0273 179.178 61.0479 169.956 58.1526C160.733 55.2568 151.016 59.4091 146.613 67.5748L139.773 65.427C145.403 53.5496 159.079 47.3541 172.037 51.4225C184.994 55.4908 192.757 68.4175 190.694 81.4148ZM188.426 88.7479L181.587 86.6001C177.184 94.7664 167.467 98.9193 158.244 96.0235C149.02 93.1276 143.364 84.1483 144.345 74.9075L137.505 72.7602C135.442 85.758 143.205 98.6853 156.163 102.753C169.12 106.822 182.797 100.626 188.426 88.7479" fill="#787AF2"/>
<path fill-rule="evenodd" clip-rule="evenodd" d="M164.985 80.8258C164.985 80.5066 164.731 80.2507 164.414 80.2507C164.034 80.2507 163.78 80.5066 163.78 80.8258C163.78 81.2093 164.034 81.4646 164.414 81.4646C164.731 81.4646 164.985 81.2093 164.985 80.8258ZM173.861 69.6466C173.861 68.7524 173.227 67.9853 172.466 67.9853H156.362C155.601 67.9853 154.967 68.7524 154.967 69.6466V80.5066C154.967 81.4652 155.601 82.2317 156.362 82.2317H172.466C173.227 82.2317 173.861 81.4652 173.861 80.5066V69.6466ZM166.379 83.3174H162.448V85.0419H160.99C160.103 85.0419 160.103 86.384 160.99 86.384H167.774C168.662 86.384 168.662 85.0419 167.774 85.0419H166.379V83.3174Z" fill="#787AF2"/>
<path d="M582.979 530.252C601.736 536.141 612.225 556.164 606.408 574.976C600.59 593.787 580.669 604.263 561.913 598.374C543.156 592.484 532.666 572.461 538.484 553.65C544.302 534.838 564.222 524.363 582.979 530.252Z" fill="white"/>
<path fill-rule="evenodd" clip-rule="evenodd" d="M607.566 569.999L598.49 567.149C599.791 554.887 592.284 542.97 580.045 539.128C567.805 535.285 554.91 540.795 549.066 551.632L539.99 548.782C547.461 533.019 565.611 524.797 582.806 530.196C600.003 535.595 610.305 552.751 607.566 569.999ZM604.558 579.731L595.481 576.881C589.638 587.719 576.742 593.23 564.502 589.387C552.261 585.544 544.755 573.627 546.057 561.363L536.98 558.514C534.241 575.763 544.543 592.919 561.74 598.318C578.936 603.717 597.087 595.495 604.558 579.731" fill="#787AF2"/>
<path d="M578.313 571.138C577.067 571.138 576.045 572.172 576.045 573.429C576.045 574.685 577.067 575.72 578.313 575.72C579.559 575.72 580.581 574.685 580.581 573.429C580.581 572.172 579.559 571.138 578.313 571.138ZM569.178 571.138C567.932 571.138 566.909 572.172 566.909 573.429C566.909 574.685 567.932 575.72 569.178 575.72C570.424 575.72 571.446 574.685 571.446 573.429C571.446 572.172 570.424 571.138 569.178 571.138ZM558.598 550.692C557.819 550.667 557.687 551.805 558.451 551.962L560.833 552.489L561.444 555.424C561.445 555.427 561.445 555.427 561.445 555.43L564.481 569.28C564.545 569.574 564.804 569.783 565.103 569.783H582.292C583.153 569.795 583.153 568.487 582.292 568.499H565.614L565.029 565.826H583.16C583.458 565.826 583.717 565.616 583.781 565.323L585.949 555.43C586.037 555.029 585.734 554.65 585.328 554.65C577.746 554.65 570.165 554.65 562.583 554.646L561.994 551.819C561.943 551.572 561.752 551.378 561.507 551.323L558.724 550.708C558.683 550.698 558.641 550.693 558.598 550.691V550.692Z" fill="#787AF2"/>
<path d="M611.624 191.715C621.231 194.731 626.603 204.987 623.624 214.622C620.644 224.257 610.44 229.623 600.833 226.606C591.226 223.59 585.854 213.334 588.833 203.699C591.813 194.064 602.016 188.698 611.624 191.715Z" fill="white"/>
<path fill-rule="evenodd" clip-rule="evenodd" d="M624.216 212.073L619.566 210.613C620.235 204.332 616.389 198.229 610.119 196.261C603.849 194.292 597.246 197.115 594.254 202.665L589.604 201.205C593.431 193.132 602.727 188.92 611.536 191.686C620.34 194.451 625.617 203.238 624.216 212.073ZM622.675 217.057L618.025 215.598C615.033 221.148 608.427 223.971 602.16 222.003C595.89 220.034 592.045 213.931 592.713 207.65L588.063 206.19C586.658 215.025 591.935 223.812 600.744 226.577C609.552 229.343 618.848 225.131 622.675 217.057" fill="#787AF2"/>
<path d="M605.768 216.414C607.124 216.42 608.446 216.011 609.564 215.242C610.682 214.473 611.54 213.379 612.026 212.106C612.087 211.948 612.008 211.77 611.849 211.709L606.07 209.444V203.197C606.07 203.029 605.934 202.892 605.764 202.892C604.008 202.924 602.33 203.651 601.099 204.915C599.868 206.18 599.176 207.881 599.176 209.653C599.176 211.425 599.868 213.126 601.099 214.391C602.33 215.655 604.008 216.382 605.764 216.414H605.768Z" fill="#787AF2"/>
<path d="M606.636 208.825C606.686 208.856 606.742 208.871 606.799 208.871C606.844 208.871 606.893 208.858 606.935 208.835L612.374 206.001C612.45 205.964 612.503 205.898 612.529 205.819C612.552 205.743 612.544 205.66 612.506 205.59C611.32 203.266 609.466 202.031 606.799 201.803C606.72 201.803 606.644 201.833 606.584 201.888C606.523 201.948 606.493 202.03 606.493 202.116V208.563C606.493 208.67 606.546 208.77 606.636 208.825Z" fill="#787AF2"/>
<path d="M607.652 209.026C607.55 209.083 607.487 209.196 607.498 209.315C607.505 209.434 607.581 209.539 607.691 209.581L612.729 211.517C612.881 211.568 613.046 211.492 613.111 211.344C613.421 210.587 613.564 209.771 613.523 208.953C613.485 208.135 613.265 207.336 612.884 206.613C612.85 206.536 612.782 206.478 612.703 206.453C612.673 206.442 612.643 206.437 612.609 206.437C612.559 206.437 612.51 206.449 612.468 206.474L607.652 209.026Z" fill="#787AF2"/>
<g opacity="0.169998">
<path d="M413.68 623.38C417.498 618.344 416.516 611.119 411.381 607.32C406.344 603.501 399.118 604.486 395.319 609.62C391.502 614.654 392.485 621.882 397.621 625.681C402.754 629.478 409.862 628.416 413.68 623.38Z" fill="white"/>
</g>
<g opacity="0.490005">
<path d="M410.906 621.06C413.342 617.843 412.715 613.231 409.439 610.808C406.225 608.369 401.612 608.996 399.186 612.275C396.749 615.49 397.377 620.104 400.655 622.527C403.934 624.949 408.469 624.273 410.906 621.06Z" fill="white"/>
</g>
<path d="M408.647 619.358C410.172 617.371 409.751 614.552 407.764 613.027C405.776 611.507 402.957 611.925 401.433 613.913C399.91 615.9 400.331 618.719 402.318 620.242C404.33 621.728 407.188 621.332 408.647 619.358Z" fill="white"/>
<g opacity="0.169998">
<path d="M657.279 473.582C661.762 467.668 660.61 459.185 654.579 454.725C648.666 450.24 640.181 451.396 635.72 457.424C631.237 463.336 632.392 471.823 638.422 476.283C644.45 480.742 652.796 479.495 657.279 473.582Z" fill="white"/>
</g>
<g opacity="0.490005">
<path d="M654.022 470.857C656.883 467.08 656.146 461.665 652.299 458.819C648.526 455.956 643.109 456.692 640.261 460.542C637.4 464.317 638.136 469.734 641.986 472.58C645.835 475.423 651.161 474.631 654.022 470.857Z" fill="white"/>
</g>
<path d="M651.37 468.86C653.16 466.526 652.666 463.215 650.333 461.425C647.999 459.64 644.689 460.132 642.899 462.465C641.111 464.799 641.605 468.109 643.938 469.897C646.301 471.642 649.657 471.177 651.37 468.86Z" fill="white"/>
</svg>
