<svg width="524" height="523" viewBox="0 0 524 523" fill="none" xmlns="http://www.w3.org/2000/svg">
<circle cx="262.5" cy="261.5" r="261.5" fill="url(#paint0_linear_205_4)"/>
<path fill-rule="evenodd" clip-rule="evenodd" d="M510.208 345.077C519.042 318.854 523.829 290.771 523.829 261.569C523.829 117.185 406.783 0.138672 262.399 0.138672C158.023 0.138672 67.9334 61.306 26.0207 149.75L510.208 345.077ZM483.614 400.952C437.309 474.289 355.542 523 262.399 523C118.015 523 0.968018 405.953 0.968018 261.569C0.968018 243.361 2.82958 225.587 6.37277 208.428L483.614 400.952Z" fill="#787AF2"/>
<circle cx="260.526" cy="267.813" r="189.053" fill="white"/>
<mask id="mask0_205_4" style="mask-type:alpha" maskUnits="userSpaceOnUse" x="71" y="78" width="379" height="379">
<circle cx="260.526" cy="267.813" r="189.053" fill="white"/>
</mask>
<g mask="url(#mask0_205_4)">
<path d="M224.102 472.408L225.22 400.437L255.062 400.9L254.048 466.186L224.102 472.408Z" fill="url(#paint1_linear_205_4)"/>
<path d="M225.092 403.891L244.5 403.891L233.891 467.083L224.088 468.488L225.092 403.891Z" fill="url(#paint2_linear_205_4)"/>
</g>
<defs>
<linearGradient id="paint0_linear_205_4" x1="1" y1="0" x2="524" y2="523" gradientUnits="userSpaceOnUse">
<stop stop-color="white"/>
<stop offset="1" stop-color="#F2F2F2"/>
</linearGradient>
<linearGradient id="paint1_linear_205_4" x1="239.951" y1="405.905" x2="236.867" y2="464.741" gradientUnits="userSpaceOnUse">
<stop stop-color="#282828"/>
<stop offset="0.0001"/>
<stop offset="0.460848" stop-color="#282828"/>
<stop offset="1"/>
</linearGradient>
<linearGradient id="paint2_linear_205_4" x1="215.974" y1="429.556" x2="232.072" y2="430.484" gradientUnits="userSpaceOnUse">
<stop stop-color="#2E2E2E"/>
<stop offset="1" stop-color="#252525"/>
</linearGradient>
</defs>
</svg>
