<svg width="165" height="71" viewBox="0 0 165 71" fill="none" xmlns="http://www.w3.org/2000/svg">
<g filter="url(#filter0_i_192_12627)">
<path d="M149 31.9999C149.163 32.0924 149.905 31.8348 150 31.9999C150.094 32.165 150 32.808 150 32.9999C150 33.1915 150.094 33.8348 150 33.9999C149.905 34.165 149.163 33.9075 149 33.9999L143 37.9999C142.841 38.0893 142.18 38.003 142 37.9999C141.819 37.9968 142.155 38.0949 142 37.9999C141.844 37.9052 141.089 37.1619 141 36.9999C140.91 36.8382 141 37.1862 141 36.9999V28.9999C141 28.8136 140.91 29.1616 141 28.9999C141.089 28.8379 141.844 28.0946 142 27.9999C142.155 27.9052 141.82 28.003 142 27.9999C142.18 27.9971 142.842 27.9102 143 27.9999L149 31.9999Z" fill="white"/>
</g>
<path d="M2 50H12L22 34L17 26L2 50ZM23 15L18 23L32 47L34 50H44L23 15ZM80 23C79.9501 22.95 80 23 80 23C76.8065 18.35 71.5886 16 66 16H49V25L58 34V24H66C68.7943 24 71.4033 25.65 73 28C73.998 29.45 75 31.25 75 33C75 34.75 73.998 36.55 73 38C71.5031 40.2 69.5947 40.8 67 41C66.8503 41 66.1996 41 66 41H58V38L49 29V50H66C71.5886 50 76.8065 47.6 80 43C80 42.95 80 43.05 80 43C81.946 40.15 83 36.45 83 33C83 29.5 81.946 25.85 80 23ZM88 50H97V39L88 30V50ZM121 16L106 32L90 16H88V26L97 35L106 44L114 35V50H123V16H121ZM157 21C153.757 17.75 149.591 16 145 16C141.158 16 137.044 16.65 134 19V20L140 26C141.347 25.15 143.353 24 145 24C147.295 24 149.403 25.35 151 27C152.647 28.6 153 30.7 153 33C153 34.65 152.848 35.65 152 37V38L158 44V43C160.345 39.95 162 36.85 162 33C162 28.4 160.243 24.25 157 21ZM149 40C147.653 40.9 146.647 42 145 42C142.705 42 140.597 40.65 139 39C137.353 37.4 136 35.3 136 33C136 31.35 137.102 29.35 138 28L132 22H131C128.605 25.05 128 29.15 128 33C128 37.6 129.757 41.75 133 45C136.243 48.25 140.409 50 145 50C148.842 50 151.956 48.4 155 46H156L150 40H149Z" fill="white"/>
<defs>
<filter id="filter0_i_192_12627" x="140.96" y="27.9585" width="9.08203" height="13.083" filterUnits="userSpaceOnUse" color-interpolation-filters="sRGB">
<feFlood flood-opacity="0" result="BackgroundImageFix"/>
<feBlend mode="normal" in="SourceGraphic" in2="BackgroundImageFix" result="shape"/>
<feColorMatrix in="SourceAlpha" type="matrix" values="0 0 0 0 0 0 0 0 0 0 0 0 0 0 0 0 0 0 127 0" result="hardAlpha"/>
<feOffset dy="4"/>
<feGaussianBlur stdDeviation="1.5"/>
<feComposite in2="hardAlpha" operator="arithmetic" k2="-1" k3="1"/>
<feColorMatrix type="matrix" values="0 0 0 0 0 0 0 0 0 0 0 0 0 0 0 0 0 0 0.13 0"/>
<feBlend mode="normal" in2="shape" result="effect1_innerShadow_192_12627"/>
</filter>
</defs>
</svg>
