<svg width="165" height="71" viewBox="0 0 165 71" fill="none" xmlns="http://www.w3.org/2000/svg">
<g filter="url(#filter0_i_80_2470)">
<path d="M149.804 31.4917C149.965 31.5803 150.1 31.7108 150.193 31.8692C150.287 32.0275 150.336 32.2084 150.336 32.3924C150.336 32.5762 150.287 32.7571 150.193 32.9154C150.1 33.0738 149.965 33.2042 149.804 33.2929L142.951 37.0618C142.795 37.1475 142.618 37.1915 142.44 37.1885C142.261 37.1856 142.087 37.1363 141.933 37.0452C141.779 36.9544 141.652 36.825 141.564 36.6696C141.475 36.5144 141.429 36.339 141.429 36.1602V28.6243C141.429 28.4456 141.475 28.2701 141.564 28.115C141.652 27.9596 141.78 27.8302 141.934 27.7394C142.087 27.6486 142.262 27.5993 142.441 27.5963C142.619 27.5936 142.795 27.6376 142.952 27.7236L149.805 31.4917H149.804Z" fill="#36E19F"/>
</g>
<path d="M2.49106 49.834H12.4055L22.0211 33.9369L17.0887 25.7642L2.49106 49.834ZM23.6153 14.9502L18.683 23.123L32.7825 46.4453L34.875 49.834H44.7895L23.6153 14.9502ZM80.8213 23.0233C80.7715 22.9735 80.7715 22.9735 80.7715 22.9735C77.5829 18.3389 72.3517 15.598 66.7717 15.598H49.7826V25.3157L58.2522 33.8373V24.1695H66.7717C69.5617 24.1695 72.2022 25.515 73.7965 27.8572C74.7929 29.3024 75.2912 30.9967 75.2912 32.7409C75.2912 34.4851 74.7929 36.1296 73.7965 37.5748V37.6246C72.3019 39.8173 69.9104 41.113 67.3197 41.3124C67.1703 41.3124 66.971 41.3124 66.7717 41.3124H58.2522V37.6745L49.7826 29.2027V49.834H66.7717C72.3517 49.834 77.5829 47.0931 80.7715 42.5084C80.7715 42.4585 80.8213 42.4087 80.8213 42.3589C82.7644 39.5183 83.8106 36.1795 83.8106 32.7409C83.8106 29.2525 82.7644 25.8638 80.8213 23.0233ZM88.8027 49.834H97.2723V38.6712L88.8027 30.1496V49.834ZM121.685 15.598L105.891 31.3954L90.098 15.598H88.8027V26.3123L97.2723 34.7841L105.891 43.4054L114.56 34.7841V49.834H123.03V15.598H121.685ZM157.213 20.6313C153.975 17.3921 149.69 15.598 145.107 15.598C141.27 15.598 137.633 16.8439 134.594 19.1861L133.996 19.6844L140.025 25.7143L140.523 25.4153C141.868 24.5682 143.462 24.1196 145.107 24.1196C147.398 24.1196 149.59 25.0167 151.185 26.6612C152.829 28.2559 153.726 30.4486 153.726 32.7409C153.726 34.3854 153.277 35.9801 152.43 37.3256L152.131 37.824L158.16 43.8539L158.658 43.2559C161 40.216 162.245 36.5781 162.245 32.7409C162.245 28.1562 160.452 23.8705 157.213 20.6313ZM149.69 40.0167C148.345 40.9137 146.751 41.3622 145.107 41.3622C142.815 41.3622 140.623 40.4652 139.028 38.8207C137.384 37.226 136.487 35.0333 136.487 32.7409C136.487 31.0964 136.936 29.5017 137.833 28.1562L138.131 27.6579L132.053 21.6279L131.605 22.226C129.213 25.2658 128.018 28.9037 128.018 32.7409C128.018 37.3256 129.762 41.6114 133 44.8506C136.238 48.0898 140.523 49.834 145.107 49.834C148.943 49.834 152.58 48.638 155.619 46.2459L156.217 45.7974L150.188 39.7177L149.69 40.0167Z" fill="#787AF2"/>
<defs>
<filter id="filter0_i_80_2470" x="141.429" y="27.5962" width="8.90784" height="12.5925" filterUnits="userSpaceOnUse" color-interpolation-filters="sRGB">
<feFlood flood-opacity="0" result="BackgroundImageFix"/>
<feBlend mode="normal" in="SourceGraphic" in2="BackgroundImageFix" result="shape"/>
<feColorMatrix in="SourceAlpha" type="matrix" values="0 0 0 0 0 0 0 0 0 0 0 0 0 0 0 0 0 0 127 0" result="hardAlpha"/>
<feOffset dy="4"/>
<feGaussianBlur stdDeviation="1.5"/>
<feComposite in2="hardAlpha" operator="arithmetic" k2="-1" k3="1"/>
<feColorMatrix type="matrix" values="0 0 0 0 0 0 0 0 0 0 0 0 0 0 0 0 0 0 0.13 0"/>
<feBlend mode="normal" in2="shape" result="effect1_innerShadow_80_2470"/>
</filter>
</defs>
</svg>
