<svg width="24" height="24" viewBox="0 0 24 24" fill="none" xmlns="http://www.w3.org/2000/svg">
<g clip-path="url(#clip0_122_3780)">
<path d="M12.0001 7C10.9507 7 9.85146 7.3864 9.00014 8C8.14881 8.6136 7.33199 9.00444 7.00014 10C6.66828 10.9956 6.68724 11.9983 7.00014 13C7.31304 14.0017 8.16061 15.3704 9.00014 16V20C9.00014 20.5304 9.62506 20.6249 10.0001 21C10.3752 21.3751 10.4697 22 11.0001 22H13.0001C13.5306 22 13.6251 21.3751 14.0001 21C14.3752 20.6249 15.0001 20.5304 15.0001 20V16C15.8397 15.3704 16.6872 14.0017 17.0001 13C17.313 11.9983 17.332 10.9956 17.0001 10C16.6683 9.00444 15.8515 8.6136 15.0001 8C14.1488 7.3864 13.0495 7 12.0001 7V7ZM14.0001 15C13.8475 15.0881 13.0879 14.8472 13.0001 15C12.9123 15.1528 12.9994 14.8238 13.0001 15V20H11.0001V15C11.0008 14.8238 11.0879 15.1528 11.0001 15C10.9123 14.8472 11.1527 15.0881 11.0001 15C10.5453 14.7374 9.26337 13.4545 9.00014 13C8.7369 12.5455 9.00155 12.5252 9.00014 12C9.00014 11.2044 9.43753 10.5626 10.0001 10C10.5627 9.43739 11.2045 9 12.0001 9C12.7958 9 13.4375 9.43739 14.0001 10C14.5627 10.5626 15.0001 11.2044 15.0001 12C14.9987 12.5252 15.2634 12.5455 15.0001 13C14.7369 13.4545 14.455 14.7374 14.0001 15Z" fill="#787AF2"/>
<path d="M11.9999 5.99998C12.2651 5.99998 12.8123 6.18751 12.9999 5.99998C13.1874 5.81244 12.9999 5.26519 12.9999 4.99998V2.99998C12.9999 2.73476 13.1874 2.18751 12.9999 1.99998C12.8123 1.81244 12.2651 1.99998 11.9999 1.99998C11.7346 1.99998 11.1874 1.81244 10.9999 1.99998C10.8123 2.18751 10.9999 2.73476 10.9999 2.99998V4.99998C10.9999 5.26519 10.8123 5.81244 10.9999 5.99998C11.1874 6.18751 11.7346 5.99998 11.9999 5.99998Z" fill="#787AF2"/>
<path d="M20.9999 11H18.9999C18.7346 11 18.1874 10.8124 17.9999 11C17.8123 11.1875 17.9999 11.7348 17.9999 12C17.9999 12.2652 17.8123 12.8124 17.9999 13C18.1874 13.1875 18.7346 13 18.9999 13H20.9999C21.2651 13 21.8123 13.1875 21.9999 13C22.1874 12.8124 21.9999 12.2652 21.9999 12C21.9999 11.7348 22.1874 11.1875 21.9999 11C21.8123 10.8124 21.2651 11 20.9999 11Z" fill="#787AF2"/>
<path d="M4.99985 11H2.99985C2.73464 11 2.18739 10.8124 1.99985 11C1.81232 11.1875 1.99985 11.7348 1.99985 12C1.99985 12.2652 1.81232 12.8124 1.99985 13C2.18739 13.1875 2.73464 13 2.99985 13H4.99985C5.26507 13 5.81232 13.1875 5.99985 13C6.18739 12.8124 5.99985 12.2652 5.99985 12C5.99985 11.7348 6.18739 11.1875 5.99985 11C5.81232 10.8124 5.26507 11 4.99985 11Z" fill="#787AF2"/>
<path d="M7.99978 6.00003L5.99978 5.00003C5.83118 4.83821 6.23173 4.99345 5.99978 5.00003C5.76784 5.00662 5.1592 4.8289 4.99978 5.00003C4.84036 5.17117 4.99329 5.7646 4.99978 6.00003C5.00627 6.23547 4.83118 6.83821 4.99978 7.00003L6.99978 8.00003C7.08336 8.08195 6.8913 7.9578 6.99978 8.00003C7.10826 8.04227 6.88367 8.0042 6.99978 8.00003C7.11629 7.99958 6.89277 8.0468 6.99978 8.00003C7.10679 7.95327 7.91939 8.08563 7.99978 8.00003C8.15417 7.82868 8.00951 7.23203 7.99978 7.00003C7.99005 6.76804 8.16795 6.15745 7.99978 6.00003V6.00003Z" fill="#787AF2"/>
<path d="M19 4.99997C18.8364 4.8347 18.2306 4.99997 18 4.99997C17.7694 4.99997 18.1636 4.8347 18 4.99997L16 5.99997C15.8374 6.16623 16 6.76554 16 6.99997C16 7.2344 15.8374 7.83371 16 7.99997C16.0811 8.08649 16.892 7.9527 17 7.99997C17.108 8.04724 16.8824 7.99951 17 7.99997C17.2248 7.99906 16.8382 8.15852 17 7.99997L19 6.99997C19.0818 6.91748 18.9557 6.1081 19 5.99997C19.0443 5.89183 19 6.11711 19 5.99997C19 5.88283 19.0443 6.1081 19 5.99997C18.9557 5.89183 19.0818 5.08246 19 4.99997V4.99997Z" fill="#787AF2"/>
</g>
<defs>
<clipPath id="clip0_122_3780">
<rect width="24" height="24" fill="white"/>
</clipPath>
</defs>
</svg>
