<svg width="131" height="116" viewBox="0 0 131 116" fill="none" xmlns="http://www.w3.org/2000/svg">
<g filter="url(#filter0_d_474_4)">
<circle cx="95" cy="70" r="22" fill="white"/>
</g>
<g clip-path="url(#clip0_474_4)">
<path d="M95.0001 65C93.9507 65 92.8515 65.3864 92.0001 66C91.1488 66.6136 90.332 67.0044 90.0001 68C89.6683 68.9956 89.6872 69.9983 90.0001 71C90.313 72.0017 91.1606 73.3704 92.0001 74V78C92.0001 78.5304 92.6251 78.6249 93.0001 79C93.3752 79.3751 93.4697 80 94.0001 80H96.0001C96.5306 80 96.6251 79.3751 97.0001 79C97.3752 78.6249 98.0001 78.5304 98.0001 78V74C98.8397 73.3704 99.6872 72.0017 100 71C100.313 69.9983 100.332 68.9956 100 68C99.6683 67.0044 98.8515 66.6136 98.0001 66C97.1488 65.3864 96.0495 65 95.0001 65V65ZM97.0001 73C96.8475 73.0881 96.0879 72.8472 96.0001 73C95.9123 73.1528 95.9994 72.8238 96.0001 73V78H94.0001V73C94.0008 72.8238 94.0879 73.1528 94.0001 73C93.9123 72.8472 94.1527 73.0881 94.0001 73C93.5453 72.7374 92.2634 71.4545 92.0001 71C91.7369 70.5455 92.0016 70.5252 92.0001 70C92.0001 69.2044 92.4375 68.5626 93.0001 68C93.5627 67.4374 94.2045 67 95.0001 67C95.7958 67 96.4375 67.4374 97.0001 68C97.5627 68.5626 98.0001 69.2044 98.0001 70C97.9987 70.5252 98.2634 70.5455 98.0001 71C97.7369 71.4545 97.455 72.7374 97.0001 73Z" fill="#787AF2"/>
<path d="M94.9999 64C95.2651 64 95.8123 64.1875 95.9999 64C96.1874 63.8124 95.9999 63.2652 95.9999 63V61C95.9999 60.7348 96.1874 60.1875 95.9999 60C95.8123 59.8124 95.2651 60 94.9999 60C94.7346 60 94.1874 59.8124 93.9999 60C93.8123 60.1875 93.9999 60.7348 93.9999 61V63C93.9999 63.2652 93.8123 63.8124 93.9999 64C94.1874 64.1875 94.7346 64 94.9999 64Z" fill="#787AF2"/>
<path d="M104 69H102C101.735 69 101.187 68.8124 101 69C100.812 69.1875 101 69.7348 101 70C101 70.2652 100.812 70.8124 101 71C101.187 71.1875 101.735 71 102 71H104C104.265 71 104.812 71.1875 105 71C105.187 70.8124 105 70.2652 105 70C105 69.7348 105.187 69.1875 105 69C104.812 68.8124 104.265 69 104 69Z" fill="#787AF2"/>
<path d="M87.9999 69H85.9999C85.7346 69 85.1874 68.8124 84.9999 69C84.8123 69.1875 84.9999 69.7348 84.9999 70C84.9999 70.2652 84.8123 70.8124 84.9999 71C85.1874 71.1875 85.7346 71 85.9999 71H87.9999C88.2651 71 88.8123 71.1875 88.9999 71C89.1874 70.8124 88.9999 70.2652 88.9999 70C88.9999 69.7348 89.1874 69.1875 88.9999 69C88.8123 68.8124 88.2651 69 87.9999 69Z" fill="#787AF2"/>
<path d="M90.9998 64L88.9998 63C88.8312 62.8382 89.2317 62.9934 88.9998 63C88.7678 63.0066 88.1592 62.8289 87.9998 63C87.8404 63.1712 87.9933 63.7646 87.9998 64C88.0063 64.2355 87.8312 64.8382 87.9998 65L89.9998 66C90.0834 66.082 89.8913 65.9578 89.9998 66C90.1083 66.0423 89.8837 66.0042 89.9998 66C90.1163 65.9996 89.8928 66.0468 89.9998 66C90.1068 65.9533 90.9194 66.0856 90.9998 66C91.1542 65.8287 91.0095 65.232 90.9998 65C90.9901 64.768 91.1679 64.1575 90.9998 64V64Z" fill="#787AF2"/>
<path d="M102 63C101.836 62.8347 101.231 63 101 63C100.769 63 101.164 62.8347 101 63L99 64C98.8374 64.1662 99 64.7655 99 65C99 65.2344 98.8374 65.8337 99 66C99.0811 66.0865 99.892 65.9527 100 66C100.108 66.0472 99.8824 65.9995 100 66C100.225 65.9991 99.8382 66.1585 100 66L102 65C102.082 64.9175 101.956 64.1081 102 64C102.044 63.8918 102 64.1171 102 64C102 63.8828 102.044 64.1081 102 64C101.956 63.8918 102.082 63.0825 102 63V63Z" fill="#787AF2"/>
</g>
<g filter="url(#filter1_d_474_4)">
<circle cx="36" cy="26" r="22" fill="white"/>
</g>
<g clip-path="url(#clip1_474_4)">
<path d="M44.9999 21C45.0094 20.9303 45.0094 21.0697 44.9999 21C44.9912 20.9413 45.0244 21.054 44.9999 21C44.9735 20.9511 45.0334 20.0443 44.9999 20C44.9619 19.9367 45.0546 20.0494 44.9999 20V20C44.9422 19.9569 44.068 20.0232 43.9999 20V20C43.939 19.941 44.0778 20.0335 43.9999 20H38.9999C38.7348 20 38.1873 19.8124 37.9999 20C37.8125 20.1875 37.9999 20.7348 37.9999 21C37.9999 21.2652 37.8125 21.8124 37.9999 22C38.1873 22.1875 38.7348 22 38.9999 22H41.9999L37.9999 27L33.9999 24C33.7954 23.8783 33.2344 23.9596 32.9999 24C32.7654 24.0403 32.1521 23.8169 31.9999 24L26.9999 30C26.9157 30.101 27.0389 30.8744 26.9999 31C26.9609 31.1256 26.9878 30.869 26.9999 31C27.012 31.131 26.9386 30.8836 26.9999 31C27.0612 31.1163 26.8987 31.916 26.9999 32C27.1797 32.1491 27.7664 32.0004 27.9999 32C28.1467 32.0002 27.8669 32.0622 27.9999 32C28.1329 31.9378 28.9059 32.1129 28.9999 32L32.9999 26L36.9999 29C37.2023 29.1201 37.7677 29.0384 37.9999 29C38.2321 28.9616 38.8469 29.1789 38.9999 29L42.9999 24V26C42.9999 26.2652 42.8125 26.8124 42.9999 27C43.1873 27.1875 43.7348 27 43.9999 27C44.265 27 44.8125 27.1875 44.9999 27C45.1873 26.8124 44.9999 26.2652 44.9999 26V21Z" fill="#36E19F"/>
</g>
<defs>
<filter id="filter0_d_474_4" x="59" y="44" width="72" height="72" filterUnits="userSpaceOnUse" color-interpolation-filters="sRGB">
<feFlood flood-opacity="0" result="BackgroundImageFix"/>
<feColorMatrix in="SourceAlpha" type="matrix" values="0 0 0 0 0 0 0 0 0 0 0 0 0 0 0 0 0 0 127 0" result="hardAlpha"/>
<feOffset dy="10"/>
<feGaussianBlur stdDeviation="7"/>
<feComposite in2="hardAlpha" operator="out"/>
<feColorMatrix type="matrix" values="0 0 0 0 0.815686 0 0 0 0 0.815686 0 0 0 0 0.984314 0 0 0 0.3 0"/>
<feBlend mode="normal" in2="BackgroundImageFix" result="effect1_dropShadow_474_4"/>
<feBlend mode="normal" in="SourceGraphic" in2="effect1_dropShadow_474_4" result="shape"/>
</filter>
<filter id="filter1_d_474_4" x="0" y="0" width="72" height="72" filterUnits="userSpaceOnUse" color-interpolation-filters="sRGB">
<feFlood flood-opacity="0" result="BackgroundImageFix"/>
<feColorMatrix in="SourceAlpha" type="matrix" values="0 0 0 0 0 0 0 0 0 0 0 0 0 0 0 0 0 0 127 0" result="hardAlpha"/>
<feOffset dy="10"/>
<feGaussianBlur stdDeviation="7"/>
<feComposite in2="hardAlpha" operator="out"/>
<feColorMatrix type="matrix" values="0 0 0 0 0.815686 0 0 0 0 0.815686 0 0 0 0 0.984314 0 0 0 0.3 0"/>
<feBlend mode="normal" in2="BackgroundImageFix" result="effect1_dropShadow_474_4"/>
<feBlend mode="normal" in="SourceGraphic" in2="effect1_dropShadow_474_4" result="shape"/>
</filter>
<clipPath id="clip0_474_4">
<rect width="24" height="24" fill="white" transform="translate(83 58)"/>
</clipPath>
<clipPath id="clip1_474_4">
<rect width="24" height="24" fill="white" transform="translate(24 14)"/>
</clipPath>
</defs>
</svg>
