<svg width="24" height="24" viewBox="0 0 24 24" fill="none" xmlns="http://www.w3.org/2000/svg">
<path d="M20.9999 6.99998C21.0094 6.9303 21.0094 7.06966 20.9999 6.99998C20.9912 6.94126 21.0244 7.05405 20.9999 6.99998C20.9735 6.9511 21.0334 6.0443 20.9999 5.99998C20.9619 5.93673 21.0546 6.04944 20.9999 5.99998V5.99998C20.9422 5.95693 20.068 6.02319 19.9999 5.99998V5.99998C19.939 5.94097 20.0778 6.03353 19.9999 5.99998H14.9999C14.7348 5.99998 14.1873 5.81244 13.9999 5.99998C13.8125 6.18751 13.9999 6.73476 13.9999 6.99998C13.9999 7.26519 13.8125 7.81244 13.9999 7.99998C14.1873 8.18751 14.7348 7.99998 14.9999 7.99998H17.9999L13.9999 13L9.99989 9.99998C9.79538 9.87828 9.23441 9.95965 8.99989 9.99998C8.76538 10.0403 8.15206 9.81694 7.99989 9.99998L2.99989 16C2.91573 16.101 3.03892 16.8744 2.99989 17C2.96087 17.1256 2.98782 16.869 2.99989 17C3.01196 17.131 2.93857 16.8836 2.99989 17C3.06122 17.1163 2.89869 17.916 2.99989 18C3.17972 18.1491 3.76636 18.0004 3.99989 18C4.14673 18.0002 3.86688 18.0622 3.99989 18C4.13291 17.9378 4.90592 18.1129 4.99989 18L8.99989 12L12.9999 15C13.2023 15.1201 13.7677 15.0384 13.9999 15C14.2321 14.9616 14.8469 15.1789 14.9999 15L18.9999 9.99998V12C18.9999 12.2652 18.8125 12.8124 18.9999 13C19.1873 13.1875 19.7348 13 19.9999 13C20.265 13 20.8125 13.1875 20.9999 13C21.1873 12.8124 20.9999 12.2652 20.9999 12V6.99998Z" fill="#36E19F"/>
</svg>
