<svg width="523" height="523" viewBox="0 0 523 523" fill="none" xmlns="http://www.w3.org/2000/svg">
<circle cx="261.5" cy="261.5" r="261.5" fill="url(#paint0_linear_146_869)"/>
<path fill-rule="evenodd" clip-rule="evenodd" d="M509.48 344.718C518.249 318.577 523 290.593 523 261.5C523 117.078 405.922 0 261.5 0C157.214 0 67.1852 61.0464 25.2005 149.354L509.48 344.718ZM482.835 400.824C436.528 474.234 354.709 523 261.5 523C117.078 523 0 405.922 0 261.5C0 243.247 1.87012 225.431 5.42921 208.233L482.835 400.824Z" fill="url(#paint1_linear_146_869)"/>
<circle cx="259" cy="268" r="189" fill="white"/>
<mask id="mask0_146_869" style="mask-type:alpha" maskUnits="userSpaceOnUse" x="70" y="79" width="378" height="378">
<circle cx="259" cy="268" r="189" fill="white"/>
</mask>
<g mask="url(#mask0_146_869)">
<path d="M222.882 472.991L224 401L253.996 401.466L252.987 466.458L222.882 472.991Z" fill="url(#paint2_linear_146_869)"/>
<path d="M224 404L242.998 404.295L233.02 467.148L222.99 468.992L224 404Z" fill="url(#paint3_linear_146_869)"/>
</g>
<defs>
<linearGradient id="paint0_linear_146_869" x1="0" y1="0" x2="523" y2="523" gradientUnits="userSpaceOnUse">
<stop stop-color="white"/>
<stop offset="1" stop-color="#F2F2F2"/>
</linearGradient>
<linearGradient id="paint1_linear_146_869" x1="-26.5" y1="238.5" x2="428.5" y2="67" gradientUnits="userSpaceOnUse">
<stop stop-color="#36E19F"/>
<stop offset="1" stop-color="#787AF2"/>
</linearGradient>
<linearGradient id="paint2_linear_146_869" x1="238.808" y1="406.471" x2="235.733" y2="465.324" gradientUnits="userSpaceOnUse">
<stop stop-color="#282828"/>
<stop offset="0.0001"/>
<stop offset="0.460848" stop-color="#282828"/>
<stop offset="1"/>
</linearGradient>
<linearGradient id="paint3_linear_146_869" x1="215.06" y1="430.007" x2="230.822" y2="430.901" gradientUnits="userSpaceOnUse">
<stop stop-color="#2E2E2E"/>
<stop offset="1" stop-color="#252525"/>
</linearGradient>
</defs>
</svg>
