<svg width="658" height="657" viewBox="0 0 658 657" fill="none" xmlns="http://www.w3.org/2000/svg">
<g opacity="0.169998">
<path d="M80 578C87.4696 568.13 86.0481 554.445 76 547C66.1465 539.514 52.4322 540.939 45 551C37.5304 560.866 38.9519 575.555 49 583C59.0443 590.441 72.5304 587.87 80 578Z" fill="#36E19F"/>
</g>
<g opacity="0.490005">
<path d="M74.9999 573C79.8137 566.634 78.4724 557.795 71.9999 553C65.6521 548.175 56.791 549.513 51.9999 556C47.1862 562.362 48.5237 571.205 54.9999 576C61.4762 580.791 70.1862 579.358 74.9999 573Z" fill="#36E19F"/>
</g>
<path d="M71.0001 570C74.0309 566.04 72.9512 561.038 69.0001 558C65.049 554.97 60.0309 556.04 57.0001 560C53.9731 563.96 55.049 568.966 59.0001 572C63.0006 574.962 68.0986 573.934 71.0001 570Z" fill="#36E19F"/>
<path d="M329 637C499.623 637 638 498.912 638 328.5C638 158.088 499.623 20 329 20C158.377 20 20 158.088 20 328.5C20 498.912 158.377 637 329 637Z" stroke="#787AF2" stroke-opacity="0.05" stroke-width="40"/>
<path d="M172 51C186.239 55.4537 194.416 70.7731 190 85C185.584 99.227 170.238 107.454 156 103C141.761 98.5458 133.584 83.227 138 69C142.417 54.7731 157.761 46.5464 172 51Z" fill="white"/>
<path fill-rule="evenodd" clip-rule="evenodd" d="M191 81L184 79C184.983 69.7305 179.249 60.9046 170 58C160.751 55.0948 150.415 58.8078 146 67L140 65C145.645 53.0842 159.006 46.9185 172 51C184.994 55.0814 193.069 67.9608 191 81ZM188 89L182 87C177.585 95.1927 167.249 98.9052 158 96C148.751 93.0948 143.016 84.2706 144 75L137 73C134.93 86.0398 143.006 98.9191 156 103C168.994 107.082 182.355 100.916 188 89Z" fill="#787AF2"/>
<path fill-rule="evenodd" clip-rule="evenodd" d="M165 81C165 80.6878 165.319 80 165 80C164.618 80 164 80.6878 164 81C164 81.3752 164.618 81 165 81C165 81.3752 165.319 81 165 81ZM174 70C174 69.1252 173.765 68 173 68H156C155.236 68 155 69.1252 155 70V80C155 80.9378 155.236 82 156 82H173C173.765 82 174 80.9378 174 80V70ZM166 83H163V85H161C160.108 85 160.108 86 161 86H168C168.892 86 168.892 85 168 85H166V83Z" fill="#787AF2"/>
<path d="M612 192C621.756 195.052 627.026 205.252 624 215C620.974 224.748 610.756 230.052 601 227C591.244 223.948 585.974 213.748 589 204C592.026 194.252 602.244 188.949 612 192Z" fill="white"/>
<path fill-rule="evenodd" clip-rule="evenodd" d="M625 212L620 211C620.676 204.649 617.338 197.99 611 196C604.662 194.009 597.024 197.387 594 203L590 201C593.868 192.835 603.096 189.203 612 192C620.901 194.797 626.417 203.066 625 212ZM623 218L619 216C615.976 221.613 608.335 224.991 602 223C595.662 221.009 592.324 214.352 593 208L588 207C586.58 215.935 592.096 224.204 601 227C609.904 229.797 619.132 226.165 623 218Z" fill="#787AF2"/>
<path d="M606 217C607.37 217.007 607.871 216.796 609 216C610.129 215.203 611.508 214.318 612 213C612.061 212.837 612.16 212.064 612 212L606 210V203C606 202.826 606.172 203 606 203C604.226 203.034 602.243 203.691 601 205C599.756 206.309 599 208.166 599 210C599 211.835 599.756 213.691 601 215C602.243 216.309 604.226 216.967 606 217Z" fill="#787AF2"/>
<path d="M607 209C607.049 209.03 606.944 209.001 607 209C607.045 209 606.959 209.023 607 209L613 206C613.075 205.964 612.974 206.079 613 206C613.022 205.925 613.037 206.069 613 206C611.823 203.698 609.645 202.226 607 202C606.921 202.001 607.06 201.946 607 202C606.94 202.06 607 201.915 607 202V209C606.91 208.945 607 209.106 607 209Z" fill="#787AF2"/>
<path d="M608 210C607.898 210.056 607.989 209.883 608 210C608.007 210.117 607.891 209.959 608 210L613 212C613.15 212.05 613.936 212.146 614 212C614.308 211.258 614.041 209.803 614 209C613.962 208.197 613.379 207.709 613 207C612.966 206.925 613.078 207.024 613 207C612.97 206.989 613.034 207 613 207C612.951 207 613.041 206.976 613 207L608 210Z" fill="#787AF2"/>
<path d="M573 541C591.194 546.608 600.643 565.087 595 583C589.357 600.915 570.194 610.608 552 605C533.806 599.392 524.357 580.913 530 563C535.643 545.085 554.806 535.392 573 541Z" fill="white"/>
<path fill-rule="evenodd" clip-rule="evenodd" d="M597 578L588 576C589.256 564.325 581.817 552.66 570 549C558.181 545.342 545.64 550.686 540 561L531 558C538.213 542.993 556.398 535.859 573 541C589.604 546.139 599.645 561.579 597 578ZM594 588L585 585C579.36 595.314 566.817 600.66 555 597C543.181 593.343 535.743 581.673 537 570L528 568C525.354 584.421 535.396 599.861 552 605C568.604 610.141 586.786 603.007 594 588Z" fill="#787AF2"/>
<path d="M552 572C551.867 578.327 556.673 582.869 563 583C569.326 583.135 573.871 578.327 574 572C574.135 565.675 569.326 561.131 563 561C556.673 560.865 552.131 565.675 552 572ZM581 572C580.791 581.941 572.936 590.207 563 590C553.061 589.789 544.793 581.937 545 572C545.209 562.061 553.063 553.795 563 554C572.94 554.209 581.207 562.065 581 572Z" fill="#787AF2"/>
<path d="M558 572C557.875 574.568 560.433 576.877 563 577C565.568 577.125 567.875 574.568 568 572C568.124 569.432 565.57 567.123 563 567C560.434 566.875 558.122 569.431 558 572ZM571 572C570.787 576.415 567.414 580.213 563 580C558.587 579.787 554.786 576.414 555 572C555.215 567.587 558.59 563.785 563 564C567.415 564.211 571.215 567.588 571 572Z" fill="#787AF2"/>
<mask id="mask0_280_8" style="mask-type:alpha" maskUnits="userSpaceOnUse" x="527" y="537" width="71" height="70">
<path d="M556 547H595V591H556V547Z" fill="black"/>
<path d="M538 566C534.603 579.424 542.365 592.589 556 596C569.638 599.411 583.603 591.424 587 578C590.398 564.575 582.638 551.407 569 548C555.365 544.591 541.398 552.577 538 566ZM596 580C591.395 598.197 572.485 609.621 554 605C535.517 600.377 524.395 582.193 529 564C533.605 545.805 552.515 534.379 571 539C589.483 543.619 600.605 561.805 596 580Z" fill="#9DA0F5"/>
</mask>
<g mask="url(#mask0_280_8)">
<path d="M588.3 552.789C588.403 552.832 588.248 552.706 588.3 552.789C588.353 552.87 588.403 553.69 588.389 553.785L582.59 556.303L587.304 552.876C587.396 552.817 587.189 552.886 587.304 552.876C587.42 552.866 588.2 552.745 588.3 552.789ZM564.996 572.912C564.887 572.904 564.097 573.04 564 573C563.904 572.959 564.068 573.069 564 573C563.932 572.932 563.941 572.09 563.911 572.004C563.882 571.919 563.897 572.094 563.911 572.004C563.925 571.914 563.857 572.083 563.911 572.004C563.966 571.925 563.824 572.062 563.911 572.004L581.949 560.375L581.594 556.391L582.59 556.303L587.304 552.876C587.437 552.79 587.139 552.89 587.304 552.876C587.468 552.862 588.156 552.726 588.3 552.789M564.996 572.912C565.105 572.92 564.889 572.938 564.996 572.912C565.102 572.885 564.91 572.969 564.996 572.912L582.038 561.371L587.108 561.929L592.818 558.414C592.948 558.326 592.767 558.542 592.818 558.414C592.869 558.284 592.774 557.545 592.729 557.418C592.687 557.289 592.855 557.503 592.729 557.418C592.605 557.333 591.897 557.517 591.733 557.505L589.652 556.685L591.555 555.513C591.711 555.393 591.538 555.684 591.555 555.513C591.572 555.342 591.596 554.648 591.467 554.517C591.336 554.386 590.679 554.626 590.47 554.605C590.262 554.583 590.645 554.506 590.47 554.605L588.567 555.777L588.389 553.785C588.409 553.65 588.377 552.907 588.3 552.789C588.226 552.672 588.444 552.851 588.3 552.789" fill="#36E19F"/>
<path d="M564.996 572.912C564.887 572.904 564.097 573.04 564 573C563.904 572.959 564.068 573.069 564 573C563.932 572.932 563.941 572.09 563.911 572.004C563.882 571.919 563.897 572.094 563.911 572.004C563.925 571.914 563.857 572.083 563.911 572.004C563.966 571.925 563.824 572.062 563.911 572.004L581.949 560.375L581.594 556.391V556.391L582.59 556.303L587.304 552.876V552.876C587.437 552.79 587.139 552.89 587.304 552.876C587.468 552.862 588.156 552.726 588.3 552.789V552.789M564.996 572.912C565.105 572.92 564.889 572.938 564.996 572.912C565.102 572.885 564.91 572.969 564.996 572.912L582.038 561.371L587.108 561.929V561.929V561.929L592.818 558.414V558.414C592.948 558.326 592.767 558.542 592.818 558.414C592.869 558.284 592.774 557.545 592.729 557.418C592.687 557.289 592.855 557.503 592.729 557.418C592.605 557.333 591.897 557.517 591.733 557.505V557.505L589.652 556.685L591.555 555.513V555.513V555.513C591.711 555.393 591.538 555.684 591.555 555.513C591.572 555.342 591.596 554.648 591.467 554.517C591.336 554.386 590.679 554.626 590.47 554.605C590.262 554.583 590.645 554.506 590.47 554.605V554.605V554.605L588.567 555.777L588.389 553.785V553.785C588.409 553.65 588.377 552.907 588.3 552.789C588.226 552.672 588.444 552.851 588.3 552.789V552.789M588.3 552.789C588.403 552.832 588.248 552.706 588.3 552.789C588.353 552.87 588.403 553.69 588.389 553.785L582.59 556.303L587.304 552.876C587.396 552.817 587.189 552.886 587.304 552.876C587.42 552.866 588.2 552.745 588.3 552.789ZM564.996 572.912V572.912V572.912V572.912V572.912Z" stroke="#36E19F" stroke-width="1.09333"/>
</g>
</svg>
