<svg width="731" height="726" viewBox="0 0 731 726" fill="none" xmlns="http://www.w3.org/2000/svg">
<g filter="url(#filter0_f_281_10)">
<ellipse rx="210" ry="211.5" transform="matrix(0.687921 0.725786 -0.726603 0.687058 298.14 297.728)" fill="url(#paint0_radial_281_10)"/>
</g>
<g filter="url(#filter1_f_281_10)">
<ellipse rx="226.5" ry="228" transform="matrix(0.687984 0.725726 -0.726663 0.686995 408.502 404.012)" fill="url(#paint1_radial_281_10)"/>
</g>
<g opacity="0.169998">
<path d="M511.353 412C515.123 407.009 513.425 399.765 508.353 396C503.379 392.214 496.105 393.912 492.353 399C488.582 403.989 490.281 411.235 495.353 415C500.423 418.763 507.582 416.991 511.353 412Z" fill="white"/>
</g>
<g opacity="0.490005">
<path d="M506.353 410C508.716 406.722 508.531 402.469 505.353 400C502.236 397.515 499.705 397.66 497.353 401C494.99 404.276 495.173 409.531 498.353 412C501.532 414.467 503.99 413.274 506.353 410Z" fill="white"/>
</g>
<path d="M506.353 408C507.946 405.912 507.43 403.601 505.353 402C503.277 400.403 500.946 400.912 499.353 403C497.762 405.088 498.277 407.401 500.353 409C502.456 410.561 504.828 410.074 506.353 408Z" fill="white"/>
<g opacity="0.169998">
<path d="M432.353 226C435.177 222.26 435.151 216.821 431.353 214C427.628 211.163 422.162 211.187 419.353 215C416.529 218.738 416.554 224.179 420.353 227C424.15 229.819 429.529 229.74 432.353 226Z" fill="#36E19F"/>
</g>
<g opacity="0.490005">
<path d="M430.353 224C432.097 221.688 431.699 217.741 429.353 216C427.052 214.247 423.089 214.644 421.353 217C419.608 219.31 420.006 223.258 422.353 225C424.7 226.74 428.608 226.309 430.353 224Z" fill="#36E19F"/>
</g>
<path d="M429.353 223C430.519 221.473 430.873 219.171 429.353 218C427.833 216.831 425.519 216.473 424.353 218C423.188 219.527 422.833 221.83 424.353 223C425.892 224.142 428.237 224.517 429.353 223Z" fill="#36E19F"/>
<g opacity="0.169998">
<path d="M234.353 478C240.495 469.866 239.615 458.135 231.353 452C223.251 445.831 211.464 446.709 205.353 455C199.211 463.13 200.091 474.865 208.353 481C216.612 487.132 228.211 486.134 234.353 478Z" fill="white"/>
</g>
<g opacity="0.490005">
<path d="M231.353 474C235.216 468.882 233.547 460.855 228.353 457C223.26 453.121 215.198 454.785 211.353 460C207.491 465.115 209.157 473.145 214.353 477C219.55 480.852 227.491 479.112 231.353 474Z" fill="white"/>
</g>
<path d="M224.353 471C226.753 467.709 226.482 463.524 223.353 461C220.225 458.482 217.753 458.709 215.353 462C212.956 465.291 213.225 470.479 216.353 473C219.521 475.461 222.056 474.268 224.353 471Z" fill="white"/>
<path d="M359.353 489.506C440.233 489.506 505.859 424.17 505.859 343.5C505.859 262.83 440.233 197.494 359.353 197.494C278.473 197.494 212.847 262.83 212.847 343.5C212.847 424.17 278.473 489.506 359.353 489.506Z" stroke="#787AF2" stroke-opacity="0.05" stroke-width="19.0123"/>
<g clip-path="url(#clip0_281_10)">
<path d="M482.353 447C493.705 450.482 499.874 461.878 496.353 473C492.832 484.123 480.705 490.482 469.353 487C458.001 483.518 451.832 472.122 455.353 461C458.874 449.877 471.001 443.518 482.353 447Z" fill="white"/>
<path fill-rule="evenodd" clip-rule="evenodd" d="M499.353 470L493.353 469C494.152 461.767 489.875 454.268 482.353 452C474.83 449.733 465.943 453.61 462.353 460L456.353 458C460.944 448.702 473.784 443.815 484.353 447C494.923 450.184 501.036 459.826 499.353 470ZM497.353 476L491.353 474C487.763 480.39 478.875 484.268 471.353 482C463.83 479.735 459.553 472.232 460.353 465L454.353 464C452.668 474.174 458.783 483.816 469.353 487C479.923 490.185 492.76 485.298 497.353 476" fill="#787AF2"/>
<path d="M469.353 467C469.268 470.865 472.312 473.92 476.353 474C480.392 474.082 484.27 470.865 484.353 467C484.439 463.136 481.392 460.08 477.353 460C473.312 459.918 469.436 463.136 469.353 467ZM488.353 467C488.219 473.072 482.698 478.126 476.353 478C470.006 477.871 465.221 473.07 465.353 467C465.486 460.929 471.007 455.875 477.353 456C483.7 456.128 488.485 460.931 488.353 467" fill="#787AF2"/>
<path d="M473.353 466C473.275 467.601 474.752 468.923 476.353 469C477.954 469.078 479.275 467.601 479.353 466C479.43 464.399 477.955 463.077 476.353 463C474.753 462.922 473.429 464.397 473.353 466ZM481.353 466C481.22 468.754 479.105 471.133 476.353 471C473.601 470.867 471.219 468.752 471.353 466C471.487 463.247 473.603 460.866 476.353 461C479.107 461.131 481.487 463.249 481.353 466Z" fill="#787AF2"/>
<mask id="mask0_281_10" style="mask-type:alpha" maskUnits="userSpaceOnUse" x="456" y="445" width="44" height="42">
<path d="M473.353 451H497.353V478H473.353V451Z" fill="black"/>
<path d="M462.353 462C460.175 470.553 465.612 478.827 474.353 481C483.095 483.173 491.175 478.553 493.353 470C495.531 461.447 490.095 453.171 481.353 451C472.612 448.828 464.531 453.448 462.353 462ZM498.353 471C495.401 482.594 484.202 488.944 472.353 486C460.505 483.055 454.401 472.591 457.353 461C460.305 449.407 471.504 443.056 483.353 446C495.201 448.943 501.305 459.407 498.353 471Z" fill="#9DA0F5"/>
</mask>
<g mask="url(#mask0_281_10)">
<path d="M493.312 454.735C493.373 454.761 494.277 454.598 494.308 454.648C494.34 454.697 494.316 454.59 494.308 454.648L490.502 456.989L493.312 454.735C493.367 454.699 493.244 454.741 493.312 454.735C493.381 454.729 493.252 454.709 493.312 454.735ZM479.353 467V467V467V467V467ZM479.353 467C479.287 466.995 479.41 467.025 479.353 467C479.295 466.975 479.393 467.042 479.353 467C479.312 466.959 479.371 467.052 479.353 467C479.335 466.948 479.344 467.055 479.353 467C479.36 466.945 479.231 466.052 479.263 466.004C479.296 465.956 479.211 466.039 479.263 466.004L489.685 459.068L490.502 456.989V456.989V456.989L493.312 454.735V454.735C493.391 454.683 493.214 454.743 493.312 454.735C493.41 454.727 493.226 454.697 493.312 454.735V454.735M479.353 467C479.417 467.005 480.285 466.928 480.349 466.913C480.412 466.896 480.297 466.947 480.349 466.913L490.771 459.977L492.763 459.802L493.759 459.715V459.715L496.658 458.457V458.457C496.736 458.405 496.539 457.539 496.569 457.461C496.599 457.383 496.596 457.539 496.569 457.461C496.543 457.383 496.644 457.513 496.569 457.461C496.495 457.41 496.667 457.469 496.569 457.461V457.461L494.576 457.636L495.483 456.553V456.553V456.553C495.576 456.48 495.473 456.656 495.483 456.553C495.493 456.449 495.471 455.636 495.394 455.557C495.316 455.477 495.518 455.569 495.394 455.557C495.269 455.543 495.498 455.497 495.394 455.557V455.557V455.557L493.491 456.727L494.308 454.648V454.648C494.32 454.566 494.354 454.719 494.308 454.648C494.264 454.577 493.398 454.773 493.312 454.735V454.735" fill="#36E19F"/>
<path d="M479.353 467C479.287 466.995 479.41 467.025 479.353 467C479.295 466.975 479.393 467.042 479.353 467C479.312 466.959 479.371 467.052 479.353 467C479.335 466.948 479.344 467.055 479.353 467C479.36 466.945 479.231 466.052 479.263 466.004C479.296 465.956 479.211 466.039 479.263 466.004L489.685 459.068L490.502 456.989V456.989V456.989L493.312 454.735V454.735C493.391 454.683 493.214 454.743 493.312 454.735C493.41 454.727 493.226 454.697 493.312 454.735V454.735M479.353 467C479.417 467.005 480.285 466.928 480.349 466.913C480.412 466.896 480.297 466.947 480.349 466.913L490.771 459.977L492.763 459.802L493.759 459.715V459.715L496.658 458.457V458.457C496.736 458.405 496.539 457.539 496.569 457.461C496.599 457.383 496.596 457.539 496.569 457.461C496.543 457.383 496.644 457.513 496.569 457.461C496.495 457.41 496.667 457.469 496.569 457.461V457.461L494.576 457.636L495.483 456.553V456.553V456.553C495.576 456.48 495.473 456.656 495.483 456.553C495.493 456.449 495.471 455.636 495.394 455.557C495.316 455.477 495.518 455.569 495.394 455.557C495.269 455.543 495.498 455.497 495.394 455.557V455.557V455.557L493.491 456.727L494.308 454.648V454.648C494.32 454.566 494.354 454.719 494.308 454.648C494.264 454.577 493.398 454.773 493.312 454.735V454.735M493.312 454.735C493.373 454.761 494.277 454.598 494.308 454.648C494.34 454.697 494.316 454.59 494.308 454.648L490.502 456.989L493.312 454.735C493.367 454.699 493.244 454.741 493.312 454.735C493.381 454.729 493.252 454.709 493.312 454.735ZM479.353 467V467V467V467V467Z" stroke="#36E19F" stroke-width="0.68"/>
</g>
</g>
<path d="M226.353 245C235.753 248.095 241.268 258.113 238.353 268C235.438 277.888 226.753 283.095 217.353 280C207.953 276.905 202.438 266.888 205.353 257C208.269 247.113 216.953 241.905 226.353 245Z" fill="white"/>
<path fill-rule="evenodd" clip-rule="evenodd" d="M241.353 265L236.353 264C237.013 257.605 233.545 251.004 227.353 249C221.161 246.996 213.307 250.349 210.353 256L206.353 254C210.131 245.78 219.655 242.184 228.353 245C237.048 247.816 242.737 256.005 241.353 265ZM239.353 271L235.353 269C232.399 274.652 224.541 278.004 218.353 276C212.161 273.996 208.693 267.396 209.353 261L204.353 260C202.966 268.996 208.655 277.185 217.353 280C226.051 282.816 235.575 279.221 239.353 271" fill="#787AF2"/>
<path d="M222.353 270C223.705 270.007 224.239 269.788 225.353 269C226.467 268.212 227.868 267.303 228.353 266C228.413 265.838 228.511 265.063 228.353 265L222.353 263V256C222.353 255.827 222.522 256 222.353 256C220.603 256.033 218.58 256.705 217.353 258C216.126 259.295 215.353 261.186 215.353 263C215.353 264.815 216.126 266.705 217.353 268C218.58 269.295 220.603 269.967 222.353 270V270Z" fill="#787AF2"/>
<path d="M223.353 262C223.401 262.03 223.298 262 223.353 262C223.397 262 223.313 262.023 223.353 262L229.353 259C229.427 258.964 229.327 259.077 229.353 259C229.375 258.926 229.39 259.068 229.353 259C228.203 256.74 225.939 255.222 223.353 255C223.276 255 223.412 254.947 223.353 255C223.294 255.059 223.353 254.917 223.353 255V262C223.353 262.104 223.265 261.946 223.353 262Z" fill="#787AF2"/>
<path d="M224.353 263C224.258 263.053 224.342 262.888 224.353 263C224.36 263.112 224.251 262.96 224.353 263L229.353 265C229.494 265.048 230.293 265.14 230.353 265C230.643 264.288 230.391 262.77 230.353 262C230.317 261.23 229.709 260.68 229.353 260C229.321 259.928 229.427 260.023 229.353 260C229.325 259.99 229.385 260 229.353 260C229.307 260 229.392 259.977 229.353 260L224.353 263Z" fill="#787AF2"/>
<path d="M487.353 239C494.369 241.16 498.529 247.1 496.353 254C494.177 260.9 489.368 264.16 482.353 262C475.338 259.84 471.178 253.9 473.353 247C475.529 240.1 480.338 236.84 487.353 239Z" fill="white"/>
<path fill-rule="evenodd" clip-rule="evenodd" d="M497.353 252L493.353 251C493.834 246.453 490.88 243.425 486.353 242C481.827 240.575 477.514 242.981 475.353 247L471.353 246C474.116 240.154 480.994 236.998 487.353 239C493.713 241.002 498.366 245.603 497.353 252ZM496.353 255L492.353 254C490.192 258.019 485.88 260.425 481.353 259C476.826 257.575 473.872 254.548 474.353 250L470.353 249C469.34 255.397 473.993 259.998 480.353 262C486.713 264.003 493.59 260.846 496.353 255" fill="#787AF2"/>
<path fill-rule="evenodd" clip-rule="evenodd" d="M484.353 251C484.353 250.844 484.504 251 484.353 251C484.172 251 483.353 250.844 483.353 251C483.353 251.188 484.172 252 484.353 252C484.504 252 484.353 251.188 484.353 251ZM488.353 246C488.353 245.563 487.715 245 487.353 245H480.353C479.991 245 479.353 245.563 479.353 246V251C479.353 251.469 479.991 252 480.353 252H487.353C487.715 252 488.353 251.469 488.353 251V246ZM484.353 252H483.353V253H482.353C481.93 253 481.93 254 482.353 254H485.353C485.776 254 485.776 253 485.353 253H484.353V252Z" fill="#787AF2"/>
<defs>
<filter id="filter0_f_281_10" x="32.2222" y="32.1421" width="531.836" height="531.171" filterUnits="userSpaceOnUse" color-interpolation-filters="sRGB">
<feFlood flood-opacity="0" result="BackgroundImageFix"/>
<feBlend mode="normal" in="SourceGraphic" in2="BackgroundImageFix" result="shape"/>
<feGaussianBlur stdDeviation="27.5" result="effect1_foregroundBlur_281_10"/>
</filter>
<filter id="filter1_f_281_10" x="95.0547" y="90.9558" width="626.895" height="626.112" filterUnits="userSpaceOnUse" color-interpolation-filters="sRGB">
<feFlood flood-opacity="0" result="BackgroundImageFix"/>
<feBlend mode="normal" in="SourceGraphic" in2="BackgroundImageFix" result="shape"/>
<feGaussianBlur stdDeviation="43" result="effect1_foregroundBlur_281_10"/>
</filter>
<radialGradient id="paint0_radial_281_10" cx="0" cy="0" r="1" gradientUnits="userSpaceOnUse" gradientTransform="translate(210 211.5) rotate(89.8491) scale(199.897 198.479)">
<stop stop-color="#787AF2"/>
<stop offset="1" stop-color="#787AF2" stop-opacity="0"/>
</radialGradient>
<radialGradient id="paint1_radial_281_10" cx="0" cy="0" r="1" gradientUnits="userSpaceOnUse" gradientTransform="translate(226.5 228) rotate(90) scale(228 226.5)">
<stop stop-color="#36E19F"/>
<stop offset="0.942708" stop-color="#36E19F" stop-opacity="0"/>
</radialGradient>
<clipPath id="clip0_281_10">
<rect width="50" height="50" fill="white" transform="translate(449.353 442)"/>
</clipPath>
</defs>
</svg>
