<svg width="108" height="108" viewBox="0 0 108 108" fill="none" xmlns="http://www.w3.org/2000/svg">
<g opacity="0.169998">
<path d="M97 86C114.927 62.313 110.116 28.8575 86 11C62.3602 -6.97441 28.8376 -2.1638 11 22C-6.93639 45.678 -2.11579 79.1515 22 97C46.1158 114.875 79.0726 109.678 97 86Z" fill="#36E19F"/>
</g>
<g opacity="0.490005">
<path d="M91 82C106.285 61.829 102.547 32.2004 82 17C61.8723 1.69166 32.2006 6.42078 17 27C1.73943 47.1711 5.45277 75.7757 26 91C46.5353 106.212 75.7394 102.183 91 82Z" fill="#36E19F"/>
</g>
<path d="M81 75.0001C92.6051 59.8197 89.1479 38.6301 74 27.0001C58.8522 15.3701 37.5905 18.8197 26 34.0001C14.3804 49.1951 17.8522 70.3555 33 82.0001C48.352 93.3379 69.8761 90.0928 81 75.0001Z" fill="#36E19F"/>
<g clip-path="url(#clip0_99_2163)">
<path d="M54 39C50.8381 38.9998 48.247 39.7755 46 42C43.753 44.2245 42.0316 47.8382 42 51C42 59.22 52.55 68.61 53 69C53.2717 69.2324 53.6425 69 54 69C54.3575 69 54.7283 69.2324 55 69C55.525 68.61 66 59.22 66 51C65.9684 47.8382 64.247 44.2245 62 42C59.753 39.7755 57.1619 38.9998 54 39ZM54 65C51.495 62.615 45 56.595 45 51C45 48.6131 46.3122 46.6878 48 45C49.6878 43.3122 51.6131 42 54 42C56.3869 42 58.3122 43.3122 60 45C61.6878 46.6878 63 48.6131 63 51C63 56.55 56.505 62.615 54 65Z" fill="white"/>
<path d="M54.9999 45C53.9121 45 51.9044 45.3957 50.9999 46C50.0954 46.6043 49.4162 46.995 48.9999 48C48.5836 49.005 48.7877 50.9331 48.9999 52C49.2121 53.0669 50.2307 53.2308 50.9999 54C51.7691 54.7692 51.933 55.7878 52.9999 56C54.0668 56.2122 55.9949 56.4163 56.9999 56C58.0049 55.5837 58.3956 54.9045 58.9999 54C59.6043 53.0955 59.9999 51.0878 59.9999 50C59.9999 48.5413 59.0314 48.0314 57.9999 47C56.9685 45.9686 56.4586 45 54.9999 45ZM54.9999 53C54.5337 53 53.3875 52.259 52.9999 52C52.6123 51.741 52.1783 51.4307 51.9999 51C51.8215 50.5693 51.909 50.4572 51.9999 50C52.0909 49.5428 52.6703 49.3297 52.9999 49C53.3296 48.6703 53.5427 48.091 53.9999 48C54.4571 47.909 54.5692 47.8216 54.9999 48C55.4306 48.1784 55.7409 48.6124 55.9999 49C56.2589 49.3876 56.9999 49.5338 56.9999 50C56.9999 50.6252 56.442 51.558 55.9999 52C55.5579 52.442 55.6251 53 54.9999 53Z" fill="white"/>
</g>
<defs>
<clipPath id="clip0_99_2163">
<rect width="36" height="36" fill="white" transform="translate(36 36)"/>
</clipPath>
</defs>
</svg>
