<svg width="374" height="937" viewBox="0 0 374 937" fill="none" xmlns="http://www.w3.org/2000/svg">
<g clip-path="url(#clip0_181_2421)">
<g opacity="0.240005">
<path d="M624 103L566 148M624 103L441 91.0001M624 103L727 273L596 248M624 103L864 152M624 103L858 81.0001M596 248L627 349M596 248L566 148M281 306L244 266M281 306L81 444M281 306L627 349M281 306H280M81 444L-160 426M81 444L627 349M81 444L22 306M81 444L200 565M81 444L36 660M81 444L107 542M-160 426L-351 172L-92 272M-160 426L-92 272M-160 426L22 306M-160 426L36 660M-160 426L-220 856L-41 901L256 795M-92 272L47 152M-92 272L22 306M47 152L239 130M47 152L22 306M47 152L92 56.0001M47 152C47 148.979 12.5512 76.3109 -5 40.0001M627 349L432 241M627 349L960 266M627 349L414 457M627 349L536 703M566 148L441 91.0001M566 148L337 194M441 91.0001L448 46.0001M441 91.0001L337 194M441 91.0001L239 130M441 91.0001L332 46.0001M337 194L184 248M337 194L280 306M337 194L432 241M337 194L239 130M184 248L239 130M184 248L22 306M280 306L337 255M280 306H22M280 306L253 372M432 241L337 255M432 241L419 288L414 457M337 255L307 511M239 130L332 46.0001M239 130L216 84.0001M239 130L130 218L22 306M332 46.0001L216 84.0001M216 84.0001L92 56.0001M22 306L-29 311M960 266L864 152M960 266L1091 59.0001M960 266L1107 288L1091 59.0001M864 152L1091 59.0001M1091 59.0001L858 81.0001M1091 59.0001L864 -137L858 81.0001M92 56.0001L133 134M92 56.0001L-2 117M200 565L36 660M200 565L256 795M200 565L194 489M200 565L264 574M200 565L307 511M36 660L256 795M36 660L-104 831M256 795L414 457M256 795L536 703M256 795C332.835 842.137 487 935.797 487 931C487 926.203 519.5 776.954 536 703M256 795L242 875M414 457L307 511M307 511L169 408" stroke="#706ED0" stroke-width="0.5"/>
</g>
<g opacity="0.490005">
<path d="M196.404 481.803L196.404 481.803L196.395 481.796C194.651 480.469 192.116 480.813 190.805 482.593L190.805 482.593L190.798 482.603C189.475 484.354 189.821 486.879 191.596 488.197L191.596 488.197C193.38 489.522 195.875 489.151 197.202 487.397C198.526 485.644 198.18 483.121 196.404 481.803Z" stroke="#787AF2" stroke-width="2"/>
</g>
<g opacity="0.5">
<g opacity="0.490005">
<path d="M270.404 570.803L270.404 570.803L270.395 570.796C268.651 569.469 266.116 569.813 264.805 571.593L264.805 571.593L264.798 571.603C263.475 573.354 263.821 575.879 265.596 577.197L265.596 577.197C267.38 578.522 269.875 578.151 271.202 576.397C272.526 574.644 272.18 572.121 270.404 570.803Z" stroke="#787AF2" stroke-width="2"/>
</g>
</g>
<path d="M247 269C248.084 267.577 248.416 266.09 247 265C245.586 263.912 244.085 263.577 243 265C241.917 266.421 241.585 267.91 243 269C244.432 270.06 245.962 270.412 247 269Z" fill="#36E19F"/>
<g opacity="0.490005">
<path d="M220 88C221.655 85.8095 221.227 82.6521 219 81C216.818 79.3389 213.646 79.7652 212 82C210.345 84.1906 210.775 87.348 213 89C215.227 90.6521 218.344 90.1919 220 88Z" fill="#787AF2"/>
</g>
<path d="M218 87C219.084 85.5786 219.416 84.089 218 83C216.586 81.911 215.084 81.5786 214 83C212.917 84.4215 212.585 85.911 214 87C215.432 88.0617 216.962 88.4105 218 87Z" fill="white"/>
<g opacity="0.169998">
<path d="M51 158C53.3631 154.724 53.1788 150.469 50 148C46.8839 145.515 44.35 145.66 42 149C39.6357 152.273 39.8211 157.533 43 160C46.1788 162.47 48.6369 161.273 51 158Z" fill="#36E19F"/>
</g>
<g opacity="0.490005">
<path d="M52.0001 156C53.6561 153.81 53.2263 150.651 51.0001 149C48.818 147.336 45.6457 147.765 44.0001 150C42.3453 152.19 42.7738 155.347 45.0001 157C47.2263 158.651 50.3453 158.192 52.0001 156Z" fill="#36E19F"/>
</g>
<path d="M49.9998 156C51.0833 154.579 51.414 153.089 49.9998 152C48.5855 150.911 47.0833 150.579 45.9998 152C44.9149 153.422 44.5855 154.91 45.9998 156C47.4331 157.061 48.9612 157.413 49.9998 156Z" fill="#36E19F"/>
<g opacity="0.169998">
<path d="M187 252C189.364 248.724 189.179 244.47 186 242C182.884 239.516 180.35 239.659 178 243C175.636 246.273 175.821 251.533 179 254C182.179 256.47 184.637 255.273 187 252Z" fill="#787AF2"/>
</g>
<g opacity="0.490005">
<path d="M188 250C189.656 247.81 189.226 244.651 187 243C184.818 241.336 181.646 241.765 180 244C178.345 246.19 178.774 249.347 181 251C183.226 252.651 186.345 252.192 188 250Z" fill="#787AF2"/>
</g>
<path d="M186 249C187.084 247.579 187.414 246.089 186 245C184.586 243.911 183.084 243.579 182 245C180.915 246.421 180.586 247.91 182 249C183.433 250.061 184.961 250.412 186 249Z" fill="#9597F2"/>
<g opacity="0.169998">
<path d="M340 198C342.363 194.726 342.179 190.468 339 188C335.884 185.515 333.351 185.66 331 189C328.636 192.273 328.821 197.533 332 200C335.179 202.471 337.637 201.273 340 198Z" fill="#787AF2"/>
</g>
<g opacity="0.490005">
<path d="M341 196C342.656 193.81 342.226 190.65 340 189C337.819 187.338 334.647 187.765 333 190C331.345 192.19 331.774 195.347 334 197C336.225 198.652 339.347 198.192 341 196Z" fill="#787AF2"/>
</g>
<path d="M339 196C340.083 194.579 340.414 193.089 339 192C337.586 190.911 336.082 190.579 335 192C333.915 193.422 333.586 194.91 335 196C336.433 197.061 337.961 197.413 339 196Z" fill="#9597F2"/>
<g opacity="0.169998">
<path d="M259 800C261.363 796.726 261.179 792.468 258 790C254.884 787.515 252.351 787.66 250 791C247.636 794.273 247.821 799.533 251 802C254.179 804.471 256.637 803.273 259 800Z" fill="#36E19F"/>
</g>
<g opacity="0.490005">
<path d="M260 798C261.656 795.81 261.226 792.65 259 791C256.819 789.338 253.647 789.765 252 792C250.345 794.19 250.774 797.347 253 799C255.225 800.652 258.346 800.192 260 798Z" fill="#36E19F"/>
</g>
<path d="M258 798C259.083 796.579 259.414 795.089 258 794C256.586 792.911 255.082 792.579 254 794C252.915 795.422 252.586 796.91 254 798C255.433 799.061 256.961 799.413 258 798Z" fill="#36E19F"/>
<g opacity="0.169998">
<path d="M202 567C204.363 563.726 204.179 559.468 201 557C197.884 554.515 195.351 554.66 193 558C190.636 561.273 190.821 566.533 194 569C197.179 571.471 199.637 570.273 202 567Z" fill="#36E19F"/>
</g>
<g opacity="0.490005">
<path d="M203 565C204.656 562.81 204.226 559.65 202 558C199.819 556.338 196.647 556.765 195 559C193.345 561.19 193.774 564.347 196 566C198.225 567.652 201.346 567.192 203 565Z" fill="#36E19F"/>
</g>
<path d="M201 565C202.083 563.579 202.414 562.089 201 561C199.586 559.911 198.082 559.579 197 561C195.915 562.422 195.586 563.91 197 565C198.433 566.061 199.961 566.413 201 565Z" fill="#36E19F"/>
<g opacity="0.169998">
<path d="M84 446C86.3631 442.726 86.1788 438.468 83 436C79.8839 433.515 77.3512 433.66 75 437C72.6357 440.273 72.8211 445.533 76 448C79.1788 450.471 81.6369 449.273 84 446Z" fill="#787AF2"/>
</g>
<g opacity="0.490005">
<path d="M84.9999 444C86.6559 441.81 86.2262 438.65 83.9999 437C81.819 435.338 78.6469 435.765 76.9998 438C75.3451 440.19 75.7735 443.347 77.9998 445C80.2249 446.652 83.3464 446.192 84.9999 444Z" fill="#787AF2"/>
</g>
<path d="M82.9998 444C84.0834 442.579 84.4142 441.089 82.9998 440C81.5855 438.911 80.082 438.579 78.9998 440C77.9149 441.422 77.5855 442.91 78.9998 444C80.4332 445.061 81.9612 445.413 82.9998 444Z" fill="#9597F2"/>
<g opacity="0.169998">
<path d="M334 50C336.363 46.7243 336.179 42.4685 333 40C329.884 37.5153 327.351 37.6596 325 41C322.636 44.2731 322.821 49.5327 326 52C329.179 54.4698 331.637 53.2731 334 50Z" fill="#787AF2"/>
</g>
<g opacity="0.490005">
<path d="M335 49C336.656 46.8097 336.226 43.6506 334 42C331.819 40.3365 328.647 40.7654 327 43C325.345 45.1903 325.774 48.3469 328 50C330.225 51.6506 333.347 51.1916 335 49Z" fill="#787AF2"/>
</g>
<path d="M333 48C334.084 46.5793 334.414 45.0885 333 44C331.586 42.9102 330.082 42.5793 329 44C327.915 45.4221 327.586 46.9102 329 48C330.433 49.0611 331.961 49.4125 333 48Z" fill="#9597F2"/>
<g opacity="0.0299988">
<path d="M425 348L374 379M425 348L427 240M425 348L362 274M374 379L386 483M374 379L362 274M374 379L214 514M427 240L362 274M427 240L249 196M-169 479L109 481M-169 479L54 379M-169 479L-403 418M-169 479L-202 333M109 481L386 483M109 481L52 378M109 481L108 483M109 481L188 627M54 379L386 483M54 379L52 378M-403 418L-432 227L-307 279M-403 418L-307 279M-403 418L-202 333M-307 279L-149 186M-307 279L-202 333M-149 186L43 199M-149 186L-202 333M386 483L214 341M386 483L374 667L220 767M386 483L449 809M386 483L188 627M362 274L249 196M362 274L128 278M362 274L214 341M249 196L128 278M249 196L43 199M249 196L150 132L43 199M128 278L-32 304M128 278L52 378M128 278L214 341M128 278L43 199M-32 304L43 199M-32 304L-202 333M52 378L133 360L214 341M52 378L-202 333M43 199L-79 266L-202 333M72 625L183 714M72 625L66 865M72 625L-42 561L108 483M72 625L108 483M72 625L188 627M183 714L325 657M183 714L109 724L220 767M183 714L188 627M325 657L310 885M325 657L449 809M325 657L304 630M214 514L304 630M214 514L188 627M220 767L66 865M220 767L-116 825L66 865M220 767L310 885M220 767L449 809M220 767L199 848M66 865L-102 907L61 914L66 865ZM66 865L183 929M66 865L199 848M310 885L449 809M310 885L183 929M449 809L507 936M183 929L199 848M304 630L188 627" stroke="#706ED0" stroke-width="1.5"/>
</g>
<g opacity="0.0399933">
<path d="M294 466C296.895 463.332 296.722 457.903 294 455C291.341 452.095 285.894 452.266 283 455C280.105 457.669 280.278 463.096 283 466C285.724 468.904 291.105 468.669 294 466Z" fill="#787AF2"/>
</g>
<g opacity="0.0500031">
<path d="M293 465C294.986 463.169 295.868 459.993 294 458C292.177 456.005 288.985 455.124 287 457C285.014 458.83 284.132 462.006 286 464C287.868 465.993 291.014 466.834 293 465Z" fill="#9597F2"/>
</g>
<g opacity="0.139999">
<path d="M291 463C292.316 461.8 292.196 460.32 291 459C289.803 457.679 288.316 457.8 287 459C285.683 460.201 285.803 461.68 287 463C288.219 464.298 289.729 464.2 291 463Z" fill="#D0D0FB"/>
</g>
<g opacity="0.0399933">
<path d="M17 464C19.8949 461.331 19.7235 455.906 17 453C14.3407 450.095 8.89368 450.266 6.00001 453C3.10515 455.668 3.27768 461.095 6.00001 464C8.72353 466.903 14.1052 466.669 17 464Z" fill="#787AF2"/>
</g>
<g opacity="0.0500031">
<path d="M15.0003 463C16.9861 461.167 17.8685 457.993 16.0003 456C14.1756 454.005 10.9848 453.124 9.00032 455C7.01452 456.831 6.13216 460.007 8.00032 462C9.86721 463.993 13.0145 464.831 15.0003 463Z" fill="#9597F2"/>
</g>
<g opacity="0.139999">
<path d="M13.9999 461C15.3168 459.799 15.1972 458.321 13.9999 457C12.8027 455.68 11.3168 455.799 9.99992 457C8.68444 458.201 8.80267 459.677 9.99992 461C11.2203 462.297 12.7306 462.2 13.9999 461Z" fill="#D0D0FB"/>
</g>
<g opacity="0.0399933">
<path d="M36 262C38.8948 259.33 38.7234 253.906 36 251C33.3419 248.095 27.8936 248.267 25 251C22.1052 253.67 22.2777 259.095 25 262C27.7234 264.904 33.104 264.668 36 262Z" fill="#787AF2"/>
</g>
<g opacity="0.0500031">
<path d="M35.0003 260C36.9861 258.167 37.8685 254.993 36.0003 253C34.1769 251.005 30.9848 250.124 29.0003 252C27.0145 253.831 26.1322 257.007 28.0003 259C29.8672 260.993 33.0145 261.831 35.0003 260Z" fill="#9597F2"/>
</g>
<g opacity="0.139999">
<path d="M33 258C34.3169 256.799 34.1959 255.321 33 254C31.8027 252.68 30.3155 252.799 29 254C27.6831 255.201 27.8027 256.679 29 258C30.219 259.297 31.7307 259.2 33 258Z" fill="#D0D0FB"/>
</g>
<g opacity="0.0399933">
<path d="M122 326C124.896 323.331 124.723 317.903 122 315C119.342 312.095 113.894 312.266 111 315C108.105 317.669 108.278 323.096 111 326C113.723 328.904 119.105 328.669 122 326Z" fill="#787AF2"/>
</g>
<g opacity="0.0500031">
<path d="M120 324C121.986 322.169 122.868 318.993 121 317C119.177 315.006 115.985 314.124 114 316C112.014 317.831 111.132 321.007 113 323C114.867 324.993 118.014 325.833 120 324Z" fill="#9597F2"/>
</g>
<g opacity="0.139999">
<path d="M119 322C120.317 320.8 120.197 319.32 119 318C117.804 316.679 116.316 316.8 115 318C113.683 319.201 113.804 320.68 115 322C116.22 323.298 117.731 323.2 119 322Z" fill="#D0D0FB"/>
</g>
<g opacity="0.0399933">
<path d="M58.0003 116C60.8949 113.331 60.7224 107.905 58.0003 105C55.3412 102.095 49.8926 102.266 47.0003 105C44.1044 107.669 44.2769 113.095 47.0003 116C49.7224 118.905 55.1056 118.668 58.0003 116Z" fill="#787AF2"/>
</g>
<g opacity="0.0500031">
<path d="M56.0003 114C57.9861 112.169 58.8685 108.993 57.0003 107C55.1769 105.006 51.9848 104.124 50.0003 106C48.0145 107.831 47.1322 111.007 49.0003 113C50.8685 114.993 54.0145 115.833 56.0003 114Z" fill="#9597F2"/>
</g>
<g opacity="0.139999">
<path d="M55.0003 112C56.3169 110.8 56.1973 109.32 55.0003 108C53.8032 106.679 52.3169 106.8 51.0003 108C49.6837 109.201 49.8032 110.679 51.0003 112C52.219 113.298 53.7299 113.2 55.0003 112Z" fill="#D0D0FB"/>
</g>
<g opacity="0.0399933">
<path d="M157 178C159.895 175.331 159.724 169.905 157 167C154.341 164.094 148.892 164.267 146 167C143.105 169.669 143.278 175.095 146 178C148.722 180.904 154.105 180.668 157 178Z" fill="#787AF2"/>
</g>
<g opacity="0.0500031">
<path d="M156 177C157.986 175.167 158.867 171.994 157 170C155.175 168.005 151.986 167.124 150 169C148.014 170.83 147.133 174.007 149 176C150.869 177.994 154.014 178.831 156 177Z" fill="#9597F2"/>
</g>
<g opacity="0.139999">
<path d="M154 175C155.317 173.799 155.197 172.321 154 171C152.803 169.68 151.317 169.799 150 171C148.683 172.201 148.803 173.679 150 175C151.22 176.297 152.73 176.2 154 175Z" fill="#D0D0FB"/>
</g>
<g opacity="0.0399933">
<path d="M269 258C271.895 255.331 271.724 249.906 269 247C266.341 244.095 260.894 244.267 258 247C255.105 249.669 255.278 255.097 258 258C260.722 260.905 266.105 260.669 269 258Z" fill="#787AF2"/>
</g>
<g opacity="0.0500031">
<path d="M267 257C268.986 255.167 269.867 251.993 268 250C266.175 248.006 262.986 247.125 261 249C259.014 250.833 258.133 254.007 260 256C261.869 257.996 265.014 258.831 267 257Z" fill="#9597F2"/>
</g>
<g opacity="0.139999">
<path d="M266 255C267.317 253.799 267.197 252.321 266 251C264.803 249.679 263.317 249.799 262 251C260.683 252.201 260.803 253.679 262 255C263.22 256.297 264.731 256.2 266 255Z" fill="#D0D0FB"/>
</g>
<g opacity="0.0399933">
<path d="M284 361C286.895 358.332 286.722 352.904 284 350C281.341 347.094 275.892 347.268 273 350C270.105 352.669 270.276 358.097 273 361C275.722 363.904 281.105 363.669 284 361Z" fill="#787AF2"/>
</g>
<g opacity="0.0500031">
<path d="M282 359C283.986 357.169 284.867 353.993 283 352C281.175 350.005 277.985 349.124 276 351C274.014 352.831 273.133 356.006 275 358C276.869 359.993 280.014 360.834 282 359Z" fill="#9597F2"/>
</g>
<g opacity="0.139999">
<path d="M281 358C282.317 356.799 282.197 355.321 281 354C279.803 352.679 278.317 352.799 277 354C275.683 355.201 275.803 356.679 277 358C278.22 359.297 279.73 359.2 281 358Z" fill="#D0D0FB"/>
</g>
<g opacity="0.0399933">
<path d="M71 847C73.8948 844.332 73.7223 838.904 71 836C68.3407 833.094 62.8924 833.268 60 836C57.1051 838.669 57.2764 844.097 60 847C62.7223 849.904 68.1051 849.669 71 847Z" fill="#787AF2"/>
</g>
<g opacity="0.0500031">
<path d="M69 845C70.9862 843.169 71.8672 839.993 70 838C68.175 836.005 64.9849 835.124 63 837C61.0138 838.831 60.1328 842.006 62 844C63.8685 845.993 67.0138 846.834 69 845Z" fill="#9597F2"/>
</g>
<g opacity="0.139999">
<path d="M67.9998 844C69.3164 842.799 69.1968 841.321 67.9998 840C66.8028 838.679 65.3164 838.799 63.9998 840C62.6832 841.201 62.8028 842.679 63.9998 844C65.2199 845.297 66.7294 845.2 67.9998 844Z" fill="#D0D0FB"/>
</g>
<g opacity="0.0399933">
<path d="M93 486C95.8948 483.332 95.7223 477.904 93 475C90.3407 472.094 84.8924 472.268 82 475C79.1051 477.669 79.2764 483.097 82 486C84.7223 488.904 90.1051 488.669 93 486Z" fill="#787AF2"/>
</g>
<g opacity="0.0500031">
<path d="M91 484C92.9862 482.169 93.8672 478.993 92 477C90.175 475.005 86.9849 474.124 85 476C83.0138 477.831 82.1328 481.006 84 483C85.8685 484.993 89.0138 485.834 91 484Z" fill="#9597F2"/>
</g>
<g opacity="0.139999">
<path d="M90 483C91.3166 481.799 91.1971 480.321 90 479C88.803 477.679 87.3166 477.799 86 479C84.6834 480.201 84.803 481.679 86 483C87.2202 484.297 88.7296 484.2 90 483Z" fill="#D0D0FB"/>
</g>
<g opacity="0.0399933">
<path d="M334 225C336.895 222.332 336.723 216.906 334 214C331.342 211.095 325.894 211.267 323 214C320.105 216.668 320.278 222.096 323 225C325.723 227.905 331.104 227.668 334 225Z" fill="#787AF2"/>
</g>
<g opacity="0.0500031">
<path d="M332 223C333.986 221.167 334.868 217.993 333 216C331.175 214.005 327.985 213.125 326 215C324.014 216.832 323.132 220.006 325 222C326.867 223.993 330.014 224.832 332 223Z" fill="#9597F2"/>
</g>
<g opacity="0.139999">
<path d="M331 221C332.317 219.799 332.196 218.321 331 217C329.803 215.677 328.316 215.8 327 217C325.683 218.203 325.803 219.677 327 221C328.219 222.295 329.729 222.2 331 221Z" fill="#D0D0FB"/>
</g>
<g opacity="0.0399933">
<path d="M332 330C334.895 327.331 334.722 321.903 332 319C329.341 316.095 323.892 316.266 321 319C318.105 321.669 318.276 327.096 321 330C323.722 332.904 329.104 332.669 332 330Z" fill="#787AF2"/>
</g>
<g opacity="0.0500031">
<path d="M330 328C331.986 326.169 332.867 322.994 331 321C329.174 319.006 325.985 318.124 324 320C322.014 321.83 321.133 325.006 323 327C324.869 328.993 328.013 329.834 330 328Z" fill="#9597F2"/>
</g>
<g opacity="0.139999">
<path d="M329 326C330.316 324.8 330.197 323.32 329 322C327.803 320.679 326.316 320.8 325 322C323.684 323.201 323.802 324.68 325 326C326.219 327.298 327.729 327.2 329 326Z" fill="#D0D0FB"/>
</g>
<g opacity="0.0299988">
<path d="M1077 -370L1058 -314M1008 -454L1077 -370M714 116L925 -63M714 116L817 -104M498 224L714 116M479 56L351 99L498 224M479 56L498 224M537 -117L479 56M1136 -243L925 -63M1136 -243L1058 -314M1136 -243L817 -104M981 -385L1077 -370M981 -385L1058 -314M981 -385L1008 -454M845 -371L1008 -454M845 -371L981 -385M807 -229L704 -105M807 -229L981 -385M807 -229L845 -371M815 -104L925 -63M815 -104H817M815 -104L807 -229M913 -237L864 -171L815 -104M913 -237L1136 -243M913 -237L981 -385M913 -237L807 -229M691 -234L704 -105M691 -234L845 -371M691 -234L727 -354L845 -371M691 -234L537 -117M691 -234L807 -229M594 28L704 -105M594 28L642 -103L691 -234M594 28L714 116M594 28L498 224M594 28L479 56M594 28L537 -117M594 28L815 -104" stroke="#706ED0" stroke-width="0.5"/>
</g>
<g opacity="0.0399933">
<path d="M358 99.9999C358.463 95.9385 355.102 92.4193 351 91.9999C346.945 91.536 343.419 94.8902 343 98.9999C342.537 103.06 345.896 106.582 350 107C354.102 107.419 357.537 104.06 358 99.9999Z" fill="#787AF2"/>
</g>
<g opacity="0.0500031">
<path d="M356 100C356.308 97.3016 354.725 94.2794 352 94C349.308 93.6936 346.276 95.2707 346 98C345.69 100.697 347.275 103.721 350 104C352.724 104.277 355.694 102.697 356 100Z" fill="#9597F2"/>
</g>
<g opacity="0.139999">
<path d="M354 100C354.194 98.3656 352.631 97.1961 351 97C349.369 96.8038 348.194 98.3656 348 100C347.806 101.633 349.369 102.805 351 103C352.632 103.165 353.837 101.604 354 100Z" fill="#D0D0FB"/>
</g>
<g opacity="0.0399933">
<path d="M248 881C248.463 876.938 245.102 873.419 241 873C236.945 872.536 233.419 875.89 233 880C232.537 884.06 235.896 887.582 240 888C244.102 888.419 247.537 885.06 248 881Z" fill="#787AF2"/>
</g>
<g opacity="0.0500031">
<path d="M246 881C246.308 878.302 244.725 875.279 242 875C239.308 874.694 236.276 876.271 236 879C235.69 881.697 237.275 884.721 240 885C242.724 885.277 245.694 883.697 246 881Z" fill="#9597F2"/>
</g>
<g opacity="0.139999">
<path d="M244 881C244.194 879.366 242.631 878.196 241 878C239.369 877.804 238.194 879.366 238 881C237.806 882.633 239.369 883.805 241 884C242.632 884.165 243.837 882.604 244 881Z" fill="#D0D0FB"/>
</g>
</g>
<defs>
<clipPath id="clip0_181_2421">
<rect width="408" height="937" fill="white"/>
</clipPath>
</defs>
</svg>
