<svg width="76" height="74" viewBox="0 0 76 74" fill="none" xmlns="http://www.w3.org/2000/svg">
<g opacity="0.169998">
<path d="M67.9999 58.9998C80.0436 43.4308 77.201 19.7372 60.9999 7.99983C45.1186 -3.81444 19.9833 -0.882614 7.9999 14.9998C-4.04986 30.563 -1.20121 54.2683 14.9999 65.9998C31.201 77.7491 55.9562 74.563 67.9999 58.9998Z" fill="#D0D0FB"/>
</g>
<g opacity="0.490005">
<path d="M63.9999 55.9999C74.3099 42.7418 71.8598 22.9908 57.9999 12.9999C44.423 2.93793 23.2533 5.47347 12.9999 18.9999C2.70603 32.2579 5.13996 51.9932 18.9999 61.9999C32.8517 71.9987 53.706 69.2658 63.9999 55.9999Z" fill="#D0D0FB"/>
</g>
<path d="M57 51C64.8202 41.1241 63.2075 28.5661 53 21C42.7925 13.4339 28.8103 15.1241 21 25C13.17 34.8854 14.7925 47.4244 25 55C35.345 62.376 49.504 60.8188 57 51Z" fill="#D0D0FB"/>
<g clip-path="url(#clip0_181_3255)">
<path d="M38 27C36.0238 26.9999 33.4044 27.6008 32 29C30.5956 30.3992 30.0198 33.0113 30 35C30 40.1704 36.7188 45.7547 37 46C37.1698 46.1462 37.7765 46 38 46C38.2235 46 37.8302 46.1462 38 46C38.3281 45.7547 45 40.1704 45 35C44.9802 33.0113 44.4044 30.3992 43 29C41.5956 27.6008 39.9762 26.9999 38 27ZM38 44C36.4344 42.4998 32 38.5193 32 35C32 33.4986 32.9451 31.0616 34 30C35.0549 28.9384 36.5082 29 38 29C39.4918 29 39.9451 28.9384 41 30C42.0549 31.0616 43 33.4986 43 35C43 38.491 39.5656 42.4998 38 44Z" fill="white"/>
<path d="M38.0001 31C37.337 31 36.5514 31.6316 36.0001 32C35.4487 32.3684 34.2538 32.3874 34.0001 33C33.7463 33.6126 33.8707 34.3496 34.0001 35C34.1294 35.6504 34.5312 36.5311 35.0001 37C35.4689 37.4689 36.3497 37.8706 37.0001 38C37.6504 38.1294 38.3874 38.2538 39.0001 38C39.6127 37.7462 39.6317 36.5514 40.0001 36C40.3685 35.4486 41.0001 34.6631 41.0001 34C41.0001 33.1108 40.6288 32.6288 40.0001 32C39.3713 31.3712 38.8893 31 38.0001 31ZM38.0001 36C37.7159 36 37.2364 36.1579 37.0001 36C36.7638 35.8421 36.1088 35.2626 36.0001 35C35.8913 34.7374 35.9446 34.2787 36.0001 34C36.0555 33.7213 35.7991 33.201 36.0001 33C36.201 32.799 36.7213 33.0554 37.0001 33C37.2788 32.9446 37.7375 32.8912 38.0001 33C38.2626 33.1088 38.8422 33.7637 39.0001 34C39.1579 34.2363 39.0001 33.7158 39.0001 34C39.0001 34.3811 39.2695 35.7305 39.0001 36C38.7306 36.2695 38.3811 36 38.0001 36Z" fill="white"/>
</g>
<defs>
<clipPath id="clip0_181_3255">
<rect width="23" height="23" fill="white" transform="translate(26 25)"/>
</clipPath>
</defs>
</svg>
