<svg width="115" height="116" viewBox="0 0 115 116" fill="none" xmlns="http://www.w3.org/2000/svg">
<g opacity="0.169998">
<path d="M103 92C122.089 66.7778 117.679 31.0149 92 12C66.828 -7.1394 30.9938 -2.72995 12 23C-7.09896 48.2127 -2.67887 84.9947 23 104C48.6789 123.034 83.9106 117.213 103 92Z" fill="#787AF2"/>
</g>
<g opacity="0.490005">
<path d="M96.9999 86C113.281 64.5135 108.887 34.1917 86.9999 18C65.5596 1.69325 35.1919 6.07861 18.9999 28C2.74411 49.4866 7.11267 79.7828 28.9999 96C50.8745 112.204 80.7441 107.499 96.9999 86Z" fill="#787AF2"/>
</g>
<path d="M86.9999 80.0001C99.4459 63.7197 96.2454 41.4729 79.9999 29.0001C63.7544 16.5274 41.4303 19.7197 28.9999 36.0001C16.5383 52.2962 19.7544 75.5117 35.9999 88.0001C52.4643 100.159 75.0699 96.1865 86.9999 80.0001Z" fill="#787AF2"/>
<g clip-path="url(#clip0_99_2189)">
<path d="M58 42C54.8381 41.9998 52.247 42.7755 50 45C47.753 47.2245 46.0316 50.8382 46 54C46 62.22 56.55 71.61 57 72C57.2717 72.2324 57.6425 72 58 72C58.3575 72 58.7283 72.2324 59 72C59.525 71.61 70 62.22 70 54C69.9684 50.8382 68.247 47.2245 66 45C63.753 42.7755 61.1619 41.9998 58 42ZM58 68C55.495 65.615 49 59.595 49 54C49 51.6131 50.3122 49.6878 52 48C53.6878 46.3122 55.6131 45 58 45C60.3869 45 62.3122 46.3122 64 48C65.6878 49.6878 67 51.6131 67 54C67 59.55 60.505 65.615 58 68Z" fill="white"/>
<path d="M58.9999 48C57.9121 48 55.9044 48.3957 54.9999 49C54.0954 49.6043 53.4162 49.995 52.9999 51C52.5836 52.005 52.7877 53.9331 52.9999 55C53.2121 56.0669 54.2307 56.2308 54.9999 57C55.7691 57.7692 55.933 58.7878 56.9999 59C58.0668 59.2122 59.9949 59.4163 60.9999 59C62.0049 58.5837 62.3956 57.9045 62.9999 57C63.6043 56.0955 63.9999 54.0878 63.9999 53C63.9999 51.5413 63.0314 51.0314 61.9999 50C60.9685 48.9686 60.4586 48 58.9999 48ZM58.9999 56C58.5337 56 57.3875 55.259 56.9999 55C56.6123 54.741 56.1783 54.4307 55.9999 54C55.8215 53.5693 55.909 53.4572 55.9999 53C56.0909 52.5428 56.6703 52.3297 56.9999 52C57.3296 51.6703 57.5427 51.091 57.9999 51C58.4571 50.909 58.5692 50.8216 58.9999 51C59.4306 51.1784 59.7409 51.6124 59.9999 52C60.2589 52.3876 60.9999 52.5338 60.9999 53C60.9999 53.6252 60.442 54.558 59.9999 55C59.5579 55.442 59.6251 56 58.9999 56Z" fill="white"/>
</g>
<defs>
<clipPath id="clip0_99_2189">
<rect width="36" height="36" fill="white" transform="translate(40 39)"/>
</clipPath>
</defs>
</svg>
