<svg width="1710" height="880" viewBox="0 0 1710 880" fill="none" xmlns="http://www.w3.org/2000/svg">
<g opacity="0.240005">
<path d="M1210.9 219.73L1145.9 315.73M1210.9 219.73L1016.9 255.73M1210.9 219.73L1555.9 437.73M1210.9 219.73L1455.9 319.73M1210.9 219.73L1449.9 244.73M1177.9 418.73L1350.9 655.73M1177.9 418.73L1145.9 315.73M1177.9 418.73L1555.9 437.73M1126.9 844.73L811.903 437.73M1126.9 844.73L641.903 622.73M1126.9 844.73L1350.9 655.73M641.903 622.73L251.903 655.73M641.903 622.73L1350.9 655.73M641.903 622.73L724.903 514.73M251.903 655.73L137.903 315.73M251.903 655.73L355.903 483.73M251.903 655.73L724.903 514.73M355.903 483.73L137.903 315.73M355.903 483.73L607.903 319.73M355.903 483.73L724.903 514.73M355.903 483.73L279.903 255.73M137.903 315.73L279.903 255.73M607.903 319.73L805.903 269.73M607.903 319.73L724.903 514.73M607.903 319.73L653.903 219.73M1350.9 655.73L972.903 428.73M1350.9 655.73L1555.9 437.73M1145.9 315.73L1016.9 255.73M1145.9 315.73L907.903 362.73M1016.9 255.73L1023.9 208.73M1016.9 255.73L907.903 362.73M1016.9 255.73L805.903 269.73M1016.9 255.73L830.903 208.73M907.903 362.73L749.903 418.73M907.903 362.73L840.903 514.73M907.903 362.73L972.903 428.73M907.903 362.73L805.903 269.73M749.903 418.73L805.903 269.73M749.903 418.73L724.903 514.73M840.903 514.73L933.903 539.73L972.903 428.73M840.903 514.73H724.903M972.903 428.73L993.903 459.73M805.903 269.73L830.903 208.73M805.903 269.73L782.903 248.73M805.903 269.73L693.903 387.73L724.903 514.73M830.903 208.73L653.903 219.73M724.903 514.73L527.903 483.73M1555.9 437.73L1455.9 319.73M1555.9 437.73L1691.9 222.73M1555.9 437.73L1708.9 459.73L1691.9 222.73M1455.9 319.73L1691.9 222.73M1691.9 222.73L1449.9 244.73M1691.9 222.73L1455.9 18.7303L1449.9 244.73M279.903 255.73L653.903 219.73" stroke="#706ED0" stroke-width="1.33333"/>
</g>
<path d="M255.903 642.73C261.7 644.533 264.714 650.931 262.903 656.73C261.092 662.531 255.7 666.533 249.903 664.73C244.106 662.928 241.092 656.53 242.903 650.73C244.714 644.931 250.106 640.928 255.903 642.73Z" fill="#36E19F"/>
<path d="M807.903 288.73C811.592 289.878 814.056 294.04 812.903 297.73C811.751 301.422 807.592 303.878 803.903 302.73C800.214 301.583 797.751 297.421 798.903 293.73C800.056 290.04 804.214 287.584 807.903 288.73Z" fill="#787AF2"/>
<g opacity="0.490005">
<path d="M816.903 441.73C818.563 439.537 818.137 436.384 815.903 434.73C813.714 433.068 810.554 433.493 808.903 435.73C807.243 437.923 807.671 441.077 809.903 442.73C812.137 444.385 815.242 443.923 816.903 441.73Z" fill="#787AF2"/>
</g>
<path d="M814.903 440.73C815.912 439.409 816.222 437.743 814.903 436.73C813.586 435.72 811.914 435.409 810.903 436.73C809.894 438.05 809.585 439.718 810.903 440.73C812.237 441.715 813.936 442.042 814.903 440.73Z" fill="white"/>
<g opacity="0.490005">
<path d="M785.903 251.73C787.563 249.538 787.137 246.384 784.903 244.73C782.714 243.068 779.554 243.493 777.903 245.73C776.243 247.923 776.671 251.077 778.903 252.73C781.137 254.384 784.242 253.924 785.903 251.73Z" fill="#787AF2"/>
</g>
<path d="M783.903 250.73C784.912 249.41 785.222 247.742 783.903 246.73C782.586 245.719 780.912 245.41 779.903 246.73C778.894 248.05 778.585 249.719 779.903 250.73C781.237 251.716 782.936 252.04 783.903 250.73Z" fill="white"/>
<g opacity="0.490005">
<path d="M1027.9 211.73C1029.56 209.538 1029.14 206.383 1026.9 204.73C1024.72 203.066 1021.55 203.494 1019.9 205.73C1018.24 207.923 1018.67 211.076 1020.9 212.73C1023.14 214.383 1026.24 213.925 1027.9 211.73Z" fill="#787AF2"/>
</g>
<path d="M1025.9 210.73C1026.91 209.41 1027.22 207.742 1025.9 206.73C1024.59 205.718 1022.91 205.41 1021.9 206.73C1020.89 208.05 1020.59 209.719 1021.9 210.73C1023.24 211.718 1024.94 212.042 1025.9 210.73Z" fill="white"/>
<g opacity="0.490005">
<path d="M996.903 460.73C998.563 458.538 998.135 455.384 995.903 453.73C993.713 452.066 990.555 452.493 988.903 454.73C987.243 456.923 987.67 460.077 989.903 461.73C992.135 463.384 995.245 462.923 996.903 460.73Z" fill="#787AF2"/>
</g>
<path d="M994.903 459.73C995.914 458.41 996.22 456.742 994.903 455.73C993.586 454.719 991.912 454.41 990.903 455.73C989.894 457.052 989.586 458.718 990.903 459.73C992.239 460.715 993.935 461.041 994.903 459.73Z" fill="white"/>
<g opacity="0.490005">
<path d="M532.903 485.73C534.563 483.538 534.135 480.383 531.903 478.73C529.714 477.066 526.554 477.495 524.903 479.73C523.242 481.924 523.67 485.074 525.903 486.73C528.137 488.383 531.243 487.925 532.903 485.73Z" fill="#787AF2"/>
</g>
<path d="M530.903 484.73C531.912 483.41 532.22 481.744 530.903 480.73C529.586 479.72 527.912 479.41 526.903 480.73C525.893 482.05 525.586 483.719 526.903 484.73C528.238 485.717 529.936 486.041 530.903 484.73Z" fill="white"/>
<g opacity="0.169998">
<path d="M467.903 448.73C470.559 445.221 470.476 440.377 466.903 437.73C463.4 435.069 458.546 435.153 455.903 438.73C453.247 442.238 453.331 447.083 456.903 449.73C460.475 452.376 465.247 452.24 467.903 448.73Z" fill="#787AF2"/>
</g>
<g opacity="0.490005">
<path d="M465.903 446.73C467.563 444.535 467.135 441.384 464.903 439.73C462.714 438.067 459.555 438.494 457.903 440.73C456.243 442.924 456.67 446.077 458.903 447.73C461.136 449.383 464.243 448.923 465.903 446.73Z" fill="#787AF2"/>
</g>
<path d="M463.903 445.73C464.914 444.41 465.22 442.743 463.903 441.73C462.586 440.72 460.914 440.41 459.903 441.73C458.894 443.051 458.586 444.719 459.903 445.73C461.237 446.718 462.936 447.042 463.903 445.73Z" fill="#9597F2"/>
<g opacity="0.169998">
<path d="M612.903 325.73C615.559 322.22 615.476 317.376 611.903 314.73C608.401 312.067 603.545 312.15 600.903 315.73C598.246 319.238 598.331 324.086 601.903 326.73C605.476 329.377 610.247 329.238 612.903 325.73Z" fill="#787AF2"/>
</g>
<g opacity="0.490005">
<path d="M611.903 323.73C613.564 321.538 613.136 318.383 610.903 316.73C608.714 315.065 605.554 315.494 603.903 317.73C602.243 319.923 602.67 323.076 604.903 324.73C607.136 326.383 610.243 325.924 611.903 323.73Z" fill="#787AF2"/>
</g>
<path d="M609.903 322.73C610.912 321.41 611.22 319.742 609.903 318.73C608.586 317.719 606.912 317.41 605.903 318.73C604.893 320.052 604.586 321.718 605.903 322.73C607.238 323.716 608.936 324.043 609.903 322.73Z" fill="#9597F2"/>
<g opacity="0.169998">
<path d="M754.903 422.73C757.56 419.22 757.476 414.377 753.903 411.73C750.401 409.069 745.544 409.15 742.903 412.73C740.246 416.238 740.331 421.086 743.903 423.73C747.476 426.377 752.247 426.238 754.903 422.73Z" fill="#787AF2"/>
</g>
<g opacity="0.490005">
<path d="M752.903 421.73C754.564 419.538 754.136 416.383 751.903 414.73C749.714 413.065 746.554 413.494 744.903 415.73C743.243 417.923 743.67 421.076 745.903 422.73C748.136 424.383 751.243 423.924 752.903 421.73Z" fill="#787AF2"/>
</g>
<path d="M750.903 420.73C751.912 419.41 752.22 417.742 750.903 416.73C749.586 415.719 747.912 415.41 746.903 416.73C745.893 418.05 745.586 419.718 746.903 420.73C748.238 421.716 749.936 422.042 750.903 420.73Z" fill="#9597F2"/>
<g opacity="0.169998">
<path d="M912.903 366.73C915.559 363.221 915.476 358.376 911.903 355.73C908.401 353.067 903.546 353.151 900.903 356.73C898.246 360.238 898.331 365.086 901.903 367.73C905.476 370.379 910.247 370.238 912.903 366.73Z" fill="#787AF2"/>
</g>
<g opacity="0.490005">
<path d="M911.903 365.73C913.565 363.538 913.137 360.383 910.903 358.73C908.716 357.066 905.555 357.494 903.903 359.73C902.243 361.923 902.67 365.076 904.903 366.73C907.135 368.384 910.245 367.924 911.903 365.73Z" fill="#787AF2"/>
</g>
<path d="M909.903 364.73C910.913 363.41 911.221 361.742 909.903 360.73C908.586 359.719 906.911 359.41 905.903 360.73C904.893 362.052 904.586 363.718 905.903 364.73C907.238 365.716 908.936 366.043 909.903 364.73Z" fill="#9597F2"/>
<g opacity="0.169998">
<path d="M907.903 213.73C910.559 210.22 910.476 205.376 906.903 202.73C903.401 200.067 898.546 200.15 895.903 203.73C893.246 207.238 893.331 212.086 896.903 214.73C900.476 217.377 905.247 217.238 907.903 213.73Z" fill="#787AF2"/>
</g>
<g opacity="0.490005">
<path d="M905.903 211.73C907.565 209.538 907.137 206.383 904.903 204.73C902.716 203.065 899.555 203.494 897.903 205.73C896.243 207.923 896.67 211.076 898.903 212.73C901.135 214.383 904.245 213.924 905.903 211.73Z" fill="#787AF2"/>
</g>
<path d="M903.903 210.73C904.913 209.411 905.221 207.742 903.903 206.73C902.586 205.718 900.911 205.411 899.903 206.73C898.893 208.052 898.586 209.718 899.903 210.73C901.238 211.716 902.936 212.043 903.903 210.73Z" fill="#9597F2"/>
<g opacity="0.169998">
<path d="M1150.9 320.73C1153.56 317.221 1153.48 312.376 1149.9 309.73C1146.4 307.067 1141.55 307.151 1138.9 310.73C1136.25 314.238 1136.33 319.086 1139.9 321.73C1143.48 324.379 1148.25 324.238 1150.9 320.73Z" fill="#787AF2"/>
</g>
<g opacity="0.490005">
<path d="M1148.9 318.73C1150.56 316.538 1150.14 313.383 1147.9 311.73C1145.72 310.066 1142.56 310.494 1140.9 312.73C1139.24 314.923 1139.67 318.076 1141.9 319.73C1144.14 321.384 1147.24 320.924 1148.9 318.73Z" fill="#787AF2"/>
</g>
<path d="M1146.9 317.73C1147.91 316.41 1148.22 314.742 1146.9 313.73C1145.59 312.719 1143.91 312.41 1142.9 313.73C1141.89 315.052 1141.59 316.718 1142.9 317.73C1144.24 318.716 1145.94 319.043 1146.9 317.73Z" fill="#9597F2"/>
<g opacity="0.169998">
<path d="M1465.9 27.7305C1471.71 20.0541 1470.72 9.51761 1462.9 3.73047C1455.24 -2.09457 1444.68 -1.1004 1438.9 6.73047C1433.09 14.4039 1434.09 25.9462 1441.9 31.7305C1449.72 37.5234 1460.09 35.4039 1465.9 27.7305Z" fill="#D0D0FB"/>
</g>
<g opacity="0.490005">
<path d="M1464.9 26.7306C1469.89 20.1531 1468.6 10.6872 1461.9 5.73058C1455.34 0.738712 1445.86 2.01995 1440.9 8.73058C1435.93 15.3081 1437.2 24.7661 1443.9 29.7306C1450.6 34.6911 1459.93 33.312 1464.9 26.7306Z" fill="#D0D0FB"/>
</g>
<path d="M1460.9 23.7305C1464.44 19.1104 1463.51 12.2701 1458.9 8.73053C1454.29 5.19096 1447.43 6.11041 1443.9 10.7305C1440.37 15.3551 1441.29 22.1865 1445.9 25.7305C1450.58 29.1812 1457.52 28.324 1460.9 23.7305Z" fill="#D0D0FB"/>
<g opacity="0.169998">
<path d="M1566.9 439.73C1570.89 434.467 1569.26 426.699 1563.9 422.73C1558.65 418.736 1550.87 420.361 1546.9 425.73C1542.92 430.992 1544.54 438.764 1549.9 442.73C1555.26 446.703 1562.92 444.992 1566.9 439.73Z" fill="#9597F2"/>
</g>
<g opacity="0.490005">
<path d="M1564.9 439.731C1568.23 435.346 1567.37 429.035 1562.9 425.731C1558.53 422.403 1552.21 423.257 1548.9 427.731C1545.59 432.116 1546.44 438.421 1550.9 441.731C1555.37 445.038 1561.59 444.118 1564.9 439.731Z" fill="#9597F2"/>
</g>
<path d="M1562.9 436.73C1565.26 433.65 1563.98 429.09 1560.9 426.73C1557.83 424.371 1553.26 425.65 1550.9 428.73C1548.55 431.813 1549.83 436.368 1552.9 438.73C1556.02 441.031 1560.65 439.793 1562.9 436.73Z" fill="#9597F2"/>
<g opacity="0.169998">
<path d="M1183.9 422.73C1186.56 419.22 1186.48 414.376 1182.9 411.73C1179.4 409.067 1174.55 409.15 1171.9 412.73C1169.25 416.238 1169.33 421.086 1172.9 423.73C1176.48 426.377 1181.25 426.238 1183.9 422.73Z" fill="#787AF2"/>
</g>
<g opacity="0.490005">
<path d="M1181.9 421.731C1183.56 419.538 1183.14 416.383 1180.9 414.731C1178.72 413.065 1175.56 413.494 1173.9 415.731C1172.24 417.923 1172.67 421.076 1174.9 422.731C1177.14 424.383 1180.24 423.924 1181.9 421.731Z" fill="#787AF2"/>
</g>
<path d="M1179.9 420.731C1180.91 419.41 1181.22 417.742 1179.9 416.731C1178.59 415.719 1176.91 415.41 1175.9 416.731C1174.89 418.052 1174.59 419.718 1175.9 420.731C1177.24 421.716 1178.94 422.043 1179.9 420.731Z" fill="#9597F2"/>
<g opacity="0.0299988">
<path d="M898.904 500.73L845.904 532.73M901.904 387.73L898.904 500.73M282.904 636.73L570.904 638.73M282.904 636.73L513.904 532.73M39.9036 573.73L282.904 636.73M137.904 428.73L8.90356 374.73L39.9036 573.73M137.904 428.73L39.9036 573.73M302.904 331.73L137.904 428.73M858.904 640.73L570.904 638.73M858.904 640.73L845.904 532.73M858.904 640.73L513.904 532.73M832.904 423.73L898.904 500.73M832.904 423.73L845.904 532.73M832.904 423.73L901.904 387.73M716.904 341.73L901.904 387.73M716.904 341.73L832.904 423.73M590.904 427.73L424.904 454.73M590.904 427.73L832.904 423.73M590.904 427.73L716.904 341.73M511.904 531.73L570.904 638.73M511.904 531.73L513.904 532.73M511.904 531.73L590.904 427.73M679.904 493.73L595.904 512.73L511.904 531.73M679.904 493.73L858.904 640.73M679.904 493.73L832.904 423.73M679.904 493.73L590.904 427.73M502.904 344.73L424.904 454.73M502.904 344.73L716.904 341.73M502.904 344.73L612.904 275.73L716.904 341.73M502.904 344.73L302.904 331.73M502.904 344.73L590.904 427.73M247.904 484.73L424.904 454.73M247.904 484.73L374.904 414.73L502.904 344.73M247.904 484.73L282.904 636.73M247.904 484.73L39.9036 573.73M247.904 484.73L137.904 428.73M247.904 484.73L302.904 331.73M247.904 484.73L511.904 531.73" stroke="#706ED0" stroke-width="1.33333"/>
</g>
<g opacity="0.0399933">
<path d="M142.904 434.731C146.141 431.752 146.948 426.972 143.904 423.731C140.93 420.489 136.138 419.68 132.904 422.731C129.667 425.709 128.858 430.489 131.904 433.731C134.948 436.972 139.667 437.708 142.904 434.731Z" fill="#787AF2"/>
</g>
<g opacity="0.0500031">
<path d="M140.904 432.73C142.927 430.869 143.806 427.756 141.904 425.73C140.045 423.704 136.925 422.824 134.904 424.73C132.881 426.591 132.002 429.705 133.904 431.73C135.807 433.756 138.881 434.593 140.904 432.73Z" fill="#9597F2"/>
</g>
<g opacity="0.139999">
<path d="M139.904 430.73C141.133 429.612 141.021 427.96 139.904 426.73C138.786 425.499 137.133 425.611 135.904 426.73C134.674 427.85 134.786 429.499 135.904 430.73C137.043 431.94 138.717 431.848 139.904 430.73Z" fill="#D0D0FB"/>
</g>
<g opacity="0.0399933">
<path d="M251.904 489.73C255.141 486.753 255.948 481.971 252.904 478.73C249.93 475.489 245.138 474.681 241.904 477.73C238.667 480.709 237.858 485.489 240.904 488.73C243.948 491.972 248.667 492.709 251.904 489.73Z" fill="#787AF2"/>
</g>
<g opacity="0.0500031">
<path d="M249.904 487.73C251.927 485.869 252.806 482.756 250.904 480.73C249.045 478.702 245.925 477.824 243.904 479.73C241.881 481.59 241.002 484.704 242.904 486.73C244.807 488.756 247.881 489.594 249.904 487.73Z" fill="#9597F2"/>
</g>
<g opacity="0.139999">
<path d="M248.904 485.73C250.133 484.611 250.021 482.961 248.904 481.73C247.786 480.499 246.133 480.611 244.904 481.73C243.674 482.848 243.786 484.501 244.904 485.73C246.041 486.94 247.717 486.848 248.904 485.73Z" fill="#D0D0FB"/>
</g>
<g opacity="0.0399933">
<path d="M12.9035 380.731C16.1402 377.752 16.9473 372.972 13.9035 369.731C10.9301 366.488 6.13888 365.68 2.90346 368.731C-0.333298 371.707 -1.1404 376.489 1.90346 379.731C4.94864 382.971 9.6667 383.708 12.9035 380.731Z" fill="#787AF2"/>
</g>
<g opacity="0.0500031">
<path d="M10.9035 379.73C12.9266 377.867 13.8068 374.756 11.9035 372.73C10.0459 370.704 6.92533 369.824 4.90353 371.73C2.88043 373.59 2.00028 376.705 3.90353 378.73C5.80679 380.756 8.88043 381.592 10.9035 379.73Z" fill="#9597F2"/>
</g>
<g opacity="0.139999">
<path d="M9.90358 377.73C11.1329 376.611 11.0213 374.961 9.90358 373.73C8.78589 372.499 7.1329 372.612 5.90358 373.73C4.67552 374.85 4.78589 376.498 5.90358 377.73C7.04283 378.937 8.71739 378.848 9.90358 377.73Z" fill="#D0D0FB"/>
</g>
<g opacity="0.0399933">
<path d="M43.9036 577.73C47.1404 574.752 47.9474 569.973 44.9036 566.73C41.9302 563.489 37.139 562.681 33.9036 565.73C30.6668 568.709 29.8583 573.49 32.9036 576.73C35.9474 579.972 40.6668 580.709 43.9036 577.73Z" fill="#787AF2"/>
</g>
<g opacity="0.0500031">
<path d="M41.9034 575.73C43.9265 573.868 44.8066 570.756 42.9034 568.73C41.0445 566.704 37.9252 565.824 35.9034 567.73C33.8804 569.592 33.0015 572.705 34.9034 574.73C36.8066 576.758 39.8804 577.591 41.9034 575.73Z" fill="#9597F2"/>
</g>
<g opacity="0.139999">
<path d="M40.9036 573.73C42.1329 572.611 42.0213 570.961 40.9036 569.73C39.7859 568.499 38.1329 568.611 36.9036 569.73C35.6755 570.85 35.7859 572.499 36.9036 573.73C38.0428 574.939 39.7174 574.848 40.9036 573.73Z" fill="#D0D0FB"/>
</g>
<g opacity="0.0399933">
<path d="M287.904 640.73C291.14 637.754 291.947 632.972 288.904 629.73C285.93 626.488 281.138 625.681 277.904 628.73C274.665 631.709 273.858 636.489 276.904 639.73C279.947 642.97 284.667 643.709 287.904 640.73Z" fill="#787AF2"/>
</g>
<g opacity="0.0500031">
<path d="M286.903 639.73C288.926 637.868 289.807 634.757 287.903 632.73C286.046 630.704 282.925 629.825 280.903 631.73C278.88 633.591 278 636.704 279.903 638.73C281.807 640.756 284.88 641.593 286.903 639.73Z" fill="#9597F2"/>
</g>
<g opacity="0.139999">
<path d="M285.904 637.73C287.133 636.611 287.021 634.961 285.904 633.73C284.786 632.499 283.133 632.611 281.904 633.73C280.674 634.85 280.786 636.499 281.904 637.73C283.041 638.939 284.717 638.848 285.904 637.73Z" fill="#D0D0FB"/>
</g>
<g opacity="0.0399933">
<path d="M862.903 645.731C866.14 642.753 866.947 637.971 863.903 634.731C860.93 631.488 856.139 630.68 852.903 633.731C849.667 636.709 848.86 641.489 851.903 644.731C854.949 647.972 859.667 648.709 862.903 645.731Z" fill="#787AF2"/>
</g>
<g opacity="0.0500031">
<path d="M861.903 644.73C863.926 642.869 864.807 639.756 862.903 637.73C861.046 635.702 857.925 634.824 855.903 636.73C853.88 638.59 853 641.704 854.903 643.73C856.807 645.756 859.88 646.594 861.903 644.73Z" fill="#9597F2"/>
</g>
<g opacity="0.139999">
<path d="M860.904 642.731C862.132 641.613 862.02 639.96 860.904 638.731C859.786 637.499 858.132 637.613 856.904 638.731C855.674 639.85 855.786 641.501 856.904 642.731C858.042 643.94 859.717 643.849 860.904 642.731Z" fill="#D0D0FB"/>
</g>
<g opacity="0.0399933">
<path d="M306.904 339.73C310.141 336.753 310.948 331.972 307.904 328.73C304.93 325.488 300.138 324.681 296.904 327.73C293.667 330.709 292.858 335.49 295.904 338.73C298.949 341.972 303.667 342.709 306.904 339.73Z" fill="#787AF2"/>
</g>
<g opacity="0.0500031">
<path d="M305.904 337.73C307.927 335.868 308.806 332.756 306.904 330.73C305.045 328.702 301.925 327.825 299.904 329.73C297.881 331.591 297.002 334.704 298.904 336.73C300.807 338.757 303.881 339.593 305.904 337.73Z" fill="#9597F2"/>
</g>
<g opacity="0.139999">
<path d="M304.904 335.731C306.133 334.611 306.021 332.963 304.904 331.731C303.786 330.5 302.133 330.611 300.904 331.731C299.674 332.85 299.786 334.5 300.904 335.731C302.041 336.939 303.717 336.85 304.904 335.731Z" fill="#D0D0FB"/>
</g>
<g opacity="0.0399933">
<path d="M428.904 460.731C432.141 457.753 432.948 452.971 429.904 449.731C426.93 446.488 422.138 445.68 418.904 448.731C415.667 451.709 414.858 456.489 417.904 459.731C420.948 462.972 425.667 463.709 428.904 460.731Z" fill="#787AF2"/>
</g>
<g opacity="0.0500031">
<path d="M426.904 458.73C428.927 456.869 429.806 453.757 427.904 451.73C426.045 449.704 422.925 448.824 420.904 450.73C418.881 452.59 418.002 455.704 419.904 457.73C421.807 459.756 424.881 460.594 426.904 458.73Z" fill="#9597F2"/>
</g>
<g opacity="0.139999">
<path d="M425.904 456.731C427.133 455.613 427.021 453.96 425.904 452.731C424.786 451.499 423.133 451.613 421.904 452.731C420.674 453.85 420.786 455.501 421.904 456.731C423.041 457.94 424.717 457.849 425.904 456.731Z" fill="#D0D0FB"/>
</g>
<g opacity="0.0399933">
<path d="M516.903 537.731C520.14 534.753 520.947 529.972 517.903 526.731C514.93 523.489 510.139 522.681 506.903 525.731C503.667 528.708 502.86 533.492 505.903 536.731C508.949 539.972 513.665 540.71 516.903 537.731Z" fill="#787AF2"/>
</g>
<g opacity="0.0500031">
<path d="M514.903 535.73C516.926 533.867 517.807 530.757 515.903 528.73C514.046 526.702 510.925 525.825 508.903 527.73C506.88 529.591 506 532.705 507.903 534.73C509.807 536.756 512.88 537.591 514.903 535.73Z" fill="#9597F2"/>
</g>
<g opacity="0.139999">
<path d="M513.904 533.73C515.133 532.61 515.02 530.961 513.904 529.73C512.786 528.498 511.132 528.613 509.904 529.73C508.674 530.85 508.786 532.499 509.904 533.73C511.042 534.939 512.719 534.848 513.904 533.73Z" fill="#D0D0FB"/>
</g>
<g opacity="0.0399933">
<path d="M574.904 643.731C578.14 640.752 578.949 635.973 575.904 632.731C572.93 629.489 568.139 628.68 564.904 631.731C561.667 634.708 560.86 639.489 563.904 642.731C566.949 645.97 571.667 646.709 574.904 643.731Z" fill="#787AF2"/>
</g>
<g opacity="0.0500031">
<path d="M572.903 642.73C574.926 640.868 575.807 637.756 573.903 635.73C572.044 633.704 568.925 632.824 566.903 634.73C564.88 636.592 564 639.705 565.903 641.73C567.805 643.756 570.88 644.592 572.903 642.73Z" fill="#9597F2"/>
</g>
<g opacity="0.139999">
<path d="M571.904 640.73C573.133 639.611 573.021 637.961 571.904 636.73C570.786 635.501 569.133 635.611 567.904 636.73C566.676 637.85 566.786 639.498 567.904 640.73C569.043 641.939 570.719 641.848 571.904 640.73Z" fill="#D0D0FB"/>
</g>
<g opacity="0.0399933">
<path d="M594.903 433.731C598.14 430.752 598.949 425.973 595.903 422.731C592.931 419.489 588.139 418.681 584.903 421.731C581.667 424.709 580.86 429.489 583.903 432.731C586.949 435.971 591.665 436.708 594.903 433.731Z" fill="#787AF2"/>
</g>
<g opacity="0.0500031">
<path d="M593.903 431.73C595.926 429.868 596.807 426.756 594.903 424.73C593.046 422.704 589.925 421.824 587.903 423.73C585.88 425.592 585 428.705 586.903 430.73C588.805 432.756 591.88 433.592 593.903 431.73Z" fill="#9597F2"/>
</g>
<g opacity="0.139999">
<path d="M592.904 429.73C594.133 428.611 594.02 426.961 592.904 425.73C591.786 424.501 590.132 424.611 588.904 425.73C587.674 426.85 587.786 428.499 588.904 429.73C590.042 430.939 591.719 430.848 592.904 429.73Z" fill="#D0D0FB"/>
</g>
<g opacity="0.0399933">
<path d="M683.904 499.731C687.142 496.752 687.949 491.971 684.904 488.731C681.931 485.488 677.139 484.68 673.904 487.731C670.667 490.709 669.86 495.489 672.904 498.731C675.949 501.972 680.667 502.709 683.904 499.731Z" fill="#787AF2"/>
</g>
<g opacity="0.0500031">
<path d="M681.903 497.73C683.926 495.869 684.807 492.756 682.903 490.73C681.046 488.704 677.925 487.824 675.903 489.73C673.88 491.591 673 494.705 674.903 496.73C676.805 498.756 679.88 499.593 681.903 497.73Z" fill="#9597F2"/>
</g>
<g opacity="0.139999">
<path d="M680.904 495.731C682.133 494.613 682.021 492.96 680.904 491.731C679.787 490.499 678.132 490.613 676.904 491.731C675.674 492.85 675.787 494.501 676.904 495.731C678.043 496.94 679.719 496.849 680.904 495.731Z" fill="#D0D0FB"/>
</g>
<g opacity="0.0399933">
<path d="M616.904 281.731C620.14 278.752 620.947 273.972 617.904 270.731C614.93 267.489 610.138 266.68 606.904 269.731C603.665 272.709 602.858 277.489 605.904 280.731C608.947 283.972 613.667 284.708 616.904 281.731Z" fill="#787AF2"/>
</g>
<g opacity="0.0500031">
<path d="M615.903 279.73C617.926 277.869 618.807 274.756 616.903 272.73C615.046 270.704 611.925 269.824 609.903 271.73C607.88 273.591 607 276.705 608.903 278.73C610.807 280.756 613.88 281.593 615.903 279.73Z" fill="#9597F2"/>
</g>
<g opacity="0.139999">
<path d="M614.904 277.731C616.133 276.613 616.021 274.96 614.904 273.731C613.786 272.499 612.133 272.613 610.904 273.731C609.674 274.85 609.786 276.499 610.904 277.731C612.041 278.94 613.717 278.849 614.904 277.731Z" fill="#D0D0FB"/>
</g>
<g opacity="0.0399933">
<path d="M507.904 349.73C511.14 346.753 511.949 341.971 508.904 338.73C505.93 335.489 501.139 334.681 497.904 337.73C494.667 340.709 493.86 345.489 496.904 348.73C499.949 351.972 504.667 352.709 507.904 349.73Z" fill="#787AF2"/>
</g>
<g opacity="0.0500031">
<path d="M505.903 347.73C507.926 345.869 508.807 342.756 506.903 340.73C505.044 338.702 501.925 337.824 499.903 339.73C497.88 341.59 497 344.704 498.903 346.73C500.805 348.756 503.88 349.594 505.903 347.73Z" fill="#9597F2"/>
</g>
<g opacity="0.139999">
<path d="M504.904 345.731C506.133 344.611 506.021 342.96 504.904 341.731C503.786 340.5 502.133 340.611 500.904 341.731C499.676 342.848 499.786 344.501 500.904 345.731C502.043 346.94 503.719 346.85 504.904 345.731Z" fill="#D0D0FB"/>
</g>
<g opacity="0.0399933">
<path d="M720.904 346.731C724.14 343.752 724.949 338.972 721.904 335.731C718.93 332.488 714.138 331.681 710.904 334.731C707.667 337.709 706.86 342.489 709.904 345.731C712.948 348.971 717.667 349.708 720.904 346.731Z" fill="#787AF2"/>
</g>
<g opacity="0.0500031">
<path d="M718.903 344.731C720.926 342.868 721.805 339.757 719.903 337.731C718.044 335.704 714.926 334.824 712.903 336.731C710.88 338.59 710.001 341.705 711.903 343.731C713.806 345.757 716.88 346.592 718.903 344.731Z" fill="#9597F2"/>
</g>
<g opacity="0.139999">
<path d="M717.904 342.73C719.133 341.611 719.021 339.961 717.904 338.73C716.786 337.501 715.133 337.611 713.904 338.73C712.674 339.85 712.786 341.499 713.904 342.73C715.043 343.939 716.717 343.848 717.904 342.73Z" fill="#D0D0FB"/>
</g>
<g opacity="0.0399933">
<path d="M836.904 429.73C840.14 426.752 840.949 421.973 837.904 418.73C834.93 415.489 830.139 414.681 826.904 417.73C823.667 420.709 822.86 425.49 825.904 428.73C828.948 431.972 833.667 432.709 836.904 429.73Z" fill="#787AF2"/>
</g>
<g opacity="0.0500031">
<path d="M834.903 427.73C836.926 425.868 837.805 422.756 835.903 420.73C834.044 418.704 830.926 417.825 828.903 419.73C826.88 421.593 826.001 424.705 827.903 426.73C829.806 428.758 832.88 429.591 834.903 427.73Z" fill="#9597F2"/>
</g>
<g opacity="0.139999">
<path d="M833.904 425.73C835.133 424.611 835.021 422.961 833.904 421.73C832.786 420.499 831.133 420.611 829.904 421.73C828.674 422.85 828.786 424.499 829.904 425.73C831.043 426.939 832.719 426.848 833.904 425.73Z" fill="#D0D0FB"/>
</g>
<g opacity="0.0399933">
<path d="M851.904 536.73C855.141 533.753 855.948 528.972 852.904 525.73C849.93 522.488 845.138 521.681 841.904 524.73C838.667 527.709 837.858 532.49 840.904 535.73C843.948 538.972 848.667 539.709 851.904 536.73Z" fill="#787AF2"/>
</g>
<g opacity="0.0500031">
<path d="M849.903 534.73C851.926 532.869 852.805 529.756 850.903 527.73C849.044 525.702 845.925 524.824 843.903 526.73C841.88 528.591 841.001 531.704 842.903 533.73C844.806 535.756 847.88 536.594 849.903 534.73Z" fill="#9597F2"/>
</g>
<g opacity="0.139999">
<path d="M848.904 532.73C850.133 531.611 850.021 529.961 848.904 528.73C847.786 527.499 846.133 527.611 844.904 528.73C843.674 529.85 843.786 531.499 844.904 532.73C846.043 533.939 847.717 533.848 848.904 532.73Z" fill="#D0D0FB"/>
</g>
<g opacity="0.0399933">
<path d="M904.903 394.73C908.14 391.753 908.949 386.973 905.903 383.73C902.931 380.489 898.139 379.681 894.903 382.73C891.667 385.708 890.86 390.49 893.903 393.73C896.949 396.972 901.665 397.708 904.903 394.73Z" fill="#787AF2"/>
</g>
<g opacity="0.0500031">
<path d="M902.903 392.73C904.926 390.868 905.807 387.756 903.903 385.73C902.044 383.704 898.925 382.825 896.903 384.73C894.88 386.591 894 389.705 895.903 391.73C897.805 393.756 900.88 394.591 902.903 392.73Z" fill="#9597F2"/>
</g>
<g opacity="0.139999">
<path d="M901.903 390.73C903.133 389.611 903.02 387.961 901.903 386.73C900.785 385.498 899.131 385.613 897.903 386.73C896.674 387.851 896.785 389.498 897.903 390.73C899.041 391.937 900.717 391.848 901.903 390.73Z" fill="#D0D0FB"/>
</g>
<g opacity="0.0399933">
<path d="M902.904 503.731C906.141 500.752 906.948 495.971 903.904 492.731C900.93 489.488 896.138 488.68 892.904 491.731C889.667 494.709 888.858 499.489 891.904 502.731C894.948 505.972 899.665 506.709 902.904 503.731Z" fill="#787AF2"/>
</g>
<g opacity="0.0500031">
<path d="M900.903 502.73C902.926 500.869 903.805 497.757 901.903 495.73C900.043 493.704 896.925 492.824 894.903 494.73C892.88 496.59 892.001 499.704 893.903 501.73C895.807 503.756 898.879 504.594 900.903 502.73Z" fill="#9597F2"/>
</g>
<g opacity="0.139999">
<path d="M899.903 500.731C901.133 499.613 901.021 497.96 899.903 496.731C898.786 495.499 897.133 495.613 895.903 496.731C894.674 497.85 894.785 499.501 895.903 500.731C897.041 501.94 898.716 501.849 899.903 500.731Z" fill="#D0D0FB"/>
</g>
<g opacity="0.0399933">
<path d="M1063.9 220.731C1064.4 216.353 1061.33 212.181 1056.9 211.731C1052.53 211.23 1048.35 214.301 1047.9 218.731C1047.4 223.108 1050.47 227.281 1054.9 227.731C1059.33 228.183 1063.4 225.108 1063.9 220.731Z" fill="#787AF2"/>
</g>
<g opacity="0.0500031">
<path d="M1060.9 220.731C1061.22 217.995 1059.67 215.013 1056.9 214.731C1054.17 214.418 1051.19 215.961 1050.9 218.731C1050.59 221.467 1052.14 224.446 1054.9 224.731C1057.67 225.011 1060.59 223.466 1060.9 220.731Z" fill="#9597F2"/>
</g>
<g opacity="0.139999">
<path d="M1058.9 219.73C1059.1 218.08 1057.55 216.927 1055.9 216.73C1054.25 216.532 1053.1 218.078 1052.9 219.73C1052.71 221.38 1054.25 222.535 1055.9 222.73C1057.55 222.897 1058.74 221.352 1058.9 219.73Z" fill="#D0D0FB"/>
</g>
<g opacity="0.0399933">
<path d="M1181.9 190.731C1182.4 186.353 1179.33 182.181 1174.9 181.731C1170.53 181.23 1166.36 184.301 1165.9 188.731C1165.4 193.11 1168.48 197.28 1172.9 197.731C1177.33 198.183 1181.4 195.108 1181.9 190.731Z" fill="#787AF2"/>
</g>
<g opacity="0.0500031">
<path d="M1179.9 190.731C1180.22 187.995 1178.67 185.014 1175.9 184.731C1173.17 184.418 1170.19 185.962 1169.9 188.731C1169.59 191.467 1171.14 194.447 1173.9 194.731C1176.67 195.011 1179.59 193.466 1179.9 190.731Z" fill="#9597F2"/>
</g>
<g opacity="0.139999">
<path d="M1176.9 189.731C1177.1 188.079 1175.55 186.926 1173.9 186.731C1172.25 186.532 1171.1 188.078 1170.9 189.731C1170.71 191.38 1172.25 192.535 1173.9 192.731C1175.55 192.897 1176.74 191.352 1176.9 189.731Z" fill="#D0D0FB"/>
</g>
<g opacity="0.0399933">
<path d="M930.903 265.731C931.403 261.352 928.33 257.183 923.903 256.731C919.528 256.23 915.355 259.3 914.903 263.731C914.404 268.108 917.474 272.28 921.903 272.731C926.33 273.183 930.404 270.108 930.903 265.731Z" fill="#787AF2"/>
</g>
<g opacity="0.0500031">
<path d="M927.904 265.731C928.217 262.994 926.672 260.014 923.904 259.731C921.169 259.42 918.184 260.962 917.904 263.731C917.589 266.466 919.135 269.447 921.904 269.731C924.671 270.011 927.593 268.466 927.904 265.731Z" fill="#9597F2"/>
</g>
<g opacity="0.139999">
<path d="M925.904 264.73C926.1 263.08 924.553 261.928 922.904 261.73C921.255 261.532 920.1 263.08 919.904 264.73C919.707 266.38 921.255 267.534 922.904 267.73C924.554 267.897 925.739 266.35 925.904 264.73Z" fill="#D0D0FB"/>
</g>
<g opacity="0.0399933">
<path d="M1082.9 393.731C1083.4 389.353 1080.33 385.181 1075.9 384.731C1071.53 384.23 1067.36 387.301 1066.9 391.731C1066.4 396.108 1069.47 400.28 1073.9 400.731C1078.33 401.183 1082.4 398.108 1082.9 393.731Z" fill="#787AF2"/>
</g>
<g opacity="0.0500031">
<path d="M1079.9 393.73C1080.22 390.993 1078.67 388.013 1075.9 387.73C1073.17 387.417 1070.18 388.961 1069.9 391.73C1069.59 394.468 1071.14 397.447 1073.9 397.73C1076.67 398.013 1079.59 396.466 1079.9 393.73Z" fill="#9597F2"/>
</g>
<g opacity="0.139999">
<path d="M1077.9 392.73C1078.1 391.08 1076.55 389.927 1074.9 389.73C1073.25 389.534 1072.1 391.079 1071.9 392.73C1071.71 394.38 1073.25 395.532 1074.9 395.73C1076.55 395.897 1077.74 394.352 1077.9 392.73Z" fill="#D0D0FB"/>
</g>
<g opacity="0.0399933">
<path d="M1308.9 281.731C1309.41 277.354 1306.33 273.18 1301.9 272.731C1297.53 272.23 1293.36 275.301 1292.9 279.731C1292.4 284.11 1295.48 288.28 1299.9 288.731C1304.34 289.183 1308.41 286.11 1308.9 281.731Z" fill="#787AF2"/>
</g>
<g opacity="0.0500031">
<path d="M1305.9 281.731C1306.22 278.995 1304.67 276.014 1301.9 275.731C1299.16 275.418 1296.18 276.962 1295.9 279.731C1295.59 282.466 1297.14 285.447 1299.9 285.731C1302.67 286.011 1305.59 284.466 1305.9 281.731Z" fill="#9597F2"/>
</g>
<g opacity="0.139999">
<path d="M1303.9 280.731C1304.09 279.079 1302.55 277.926 1300.9 277.731C1299.25 277.532 1298.11 279.079 1297.9 280.731C1297.71 282.382 1299.25 283.535 1300.9 283.731C1302.55 283.897 1303.74 282.352 1303.9 280.731Z" fill="#D0D0FB"/>
</g>
<g opacity="0.169998">
<path d="M1385.9 677.73C1402.5 655.798 1398.23 624.265 1375.9 607.73C1354.01 591.087 1322.42 595.357 1305.9 617.73C1289.3 639.655 1293.57 671.204 1315.9 687.73C1338.23 704.282 1369.3 699.654 1385.9 677.73Z" fill="#D0D0FB"/>
</g>
<g opacity="0.490005">
<path d="M1380.9 674.73C1395.02 656.094 1391.89 629.774 1372.9 615.73C1354.31 601.587 1327.95 604.717 1313.9 623.73C1299.8 642.367 1302.92 669.664 1321.9 683.73C1340.88 697.785 1366.8 693.378 1380.9 674.73Z" fill="#D0D0FB"/>
</g>
<path d="M1369.9 665.73C1379.99 652.53 1377.08 633.843 1363.9 623.73C1350.73 613.617 1331.98 616.53 1321.9 629.73C1311.8 642.943 1314.73 661.605 1327.9 671.73C1341.25 681.589 1360.23 678.855 1369.9 665.73Z" fill="#D0D0FB"/>
<g opacity="0.5">
<path d="M1345.9 635.73C1343.27 635.73 1340.78 636.877 1338.9 638.73C1337.03 640.584 1335.93 643.096 1335.9 645.73C1335.9 652.58 1344.53 660.405 1344.9 660.73C1345.13 660.924 1345.61 660.73 1345.9 660.73C1346.2 660.73 1346.68 660.924 1346.9 660.73C1347.34 660.405 1355.9 652.58 1355.9 645.73C1355.88 643.096 1354.78 640.584 1352.9 638.73C1351.03 636.877 1348.54 635.73 1345.9 635.73ZM1345.9 657.73C1343.82 655.743 1338.9 650.393 1338.9 645.73C1338.9 643.741 1339.5 642.137 1340.9 640.73C1342.31 639.324 1343.91 637.73 1345.9 637.73C1347.89 637.73 1349.5 639.324 1350.9 640.73C1352.31 642.137 1353.9 643.741 1353.9 645.73C1353.9 650.355 1347.99 655.743 1345.9 657.73Z" fill="white"/>
<path d="M1346.9 640.73C1346.01 640.73 1344.64 641.236 1343.9 641.73C1343.16 642.225 1342.24 642.908 1341.9 643.73C1341.56 644.553 1341.73 644.858 1341.9 645.73C1342.08 646.603 1342.27 648.101 1342.9 648.73C1343.53 649.36 1345.03 649.557 1345.9 649.73C1346.78 649.904 1347.08 650.071 1347.9 649.73C1348.73 649.39 1349.41 648.47 1349.9 647.73C1350.4 646.99 1350.9 645.62 1350.9 644.73C1350.9 643.537 1350.75 642.574 1349.9 641.73C1349.06 640.887 1348.1 640.73 1346.9 640.73ZM1346.9 646.73C1346.52 646.73 1345.22 646.942 1344.9 646.73C1344.59 646.519 1345.05 646.083 1344.9 645.73C1344.76 645.378 1344.83 645.105 1344.9 644.73C1344.98 644.356 1344.63 644 1344.9 643.73C1345.17 643.461 1345.53 643.805 1345.9 643.73C1346.28 643.656 1346.55 643.584 1346.9 643.73C1347.26 643.876 1347.69 643.413 1347.9 643.73C1348.12 644.048 1347.9 644.349 1347.9 644.73C1347.9 645.242 1348.26 646.369 1347.9 646.73C1347.54 647.092 1347.41 646.73 1346.9 646.73Z" fill="white"/>
</g>
<g opacity="0.169998">
<path d="M1154.9 865.731C1166.69 850.159 1163.76 827.47 1147.9 815.731C1132.36 803.914 1109.63 806.845 1097.9 822.731C1086.11 838.297 1089.05 860.997 1104.9 872.731C1120.76 884.482 1143.12 881.297 1154.9 865.731Z" fill="#36E19F"/>
</g>
<g opacity="0.490005">
<path d="M1150.9 863.731C1160.87 850.576 1158.3 831.644 1144.9 821.731C1131.78 811.747 1112.82 814.309 1102.9 827.731C1092.95 840.886 1095.5 859.802 1108.9 869.731C1122.3 879.652 1140.95 876.894 1150.9 863.731Z" fill="#36E19F"/>
</g>
<path d="M1143.9 857.73C1151.14 848.27 1148.34 833.978 1138.9 826.73C1129.46 819.483 1116.13 822.27 1108.9 831.73C1101.66 841.2 1104.46 854.474 1113.9 861.73C1123.47 868.796 1136.97 867.136 1143.9 857.73Z" fill="#36E19F"/>
<g opacity="0.5">
<path d="M1126.9 833.73C1124.66 833.73 1122.49 834.173 1120.9 835.73C1119.31 837.288 1117.93 839.517 1117.9 841.73C1117.9 847.484 1125.58 854.457 1125.9 854.73C1126.1 854.893 1126.65 854.73 1126.9 854.73C1127.16 854.73 1126.71 854.893 1126.9 854.73C1127.28 854.457 1134.9 847.484 1134.9 841.73C1134.88 839.517 1133.49 837.288 1131.9 835.73C1130.31 834.173 1129.14 833.73 1126.9 833.73ZM1126.9 852.73C1125.13 851.061 1119.9 845.647 1119.9 841.73C1119.9 840.06 1120.71 838.912 1121.9 837.73C1123.1 836.549 1125.21 835.73 1126.9 835.73C1128.59 835.73 1129.71 836.549 1130.9 837.73C1132.1 838.912 1132.9 840.06 1132.9 841.73C1132.9 845.615 1128.68 851.061 1126.9 852.73Z" fill="white"/>
<path d="M1126.9 837.73C1126.21 837.73 1125.48 838.346 1124.9 838.73C1124.33 839.115 1123.17 839.091 1122.9 839.73C1122.64 840.37 1122.77 841.052 1122.9 841.73C1123.04 842.409 1123.41 843.241 1123.9 843.73C1124.39 844.22 1125.22 844.595 1125.9 844.73C1126.58 844.866 1127.26 844.995 1127.9 844.73C1128.54 844.466 1128.52 843.306 1128.9 842.73C1129.29 842.155 1129.9 841.423 1129.9 840.73C1129.9 839.802 1129.56 839.387 1128.9 838.73C1128.25 838.074 1127.83 837.73 1126.9 837.73ZM1126.9 842.73C1126.61 842.73 1126.15 842.895 1125.9 842.73C1125.66 842.566 1125.02 842.005 1124.9 841.73C1124.79 841.456 1124.85 841.021 1124.9 840.73C1124.96 840.439 1124.69 839.94 1124.9 839.73C1125.11 839.521 1125.61 839.788 1125.9 839.73C1126.19 839.673 1126.63 839.617 1126.9 839.73C1127.18 839.844 1127.74 840.484 1127.9 840.73C1128.07 840.977 1127.9 840.434 1127.9 840.73C1127.9 841.128 1128.18 842.449 1127.9 842.73C1127.62 843.012 1127.3 842.73 1126.9 842.73Z" fill="white"/>
</g>
</svg>
