<svg width="106" height="105" viewBox="0 0 106 105" fill="none" xmlns="http://www.w3.org/2000/svg">
<g opacity="0.169998">
<path d="M95.0001 82.9999C112.264 60.1902 107.223 28.196 84.0001 10.9999C61.2358 -6.30882 28.177 -2.26897 11.0001 20.9999C-6.27204 43.8009 -1.22257 76.8125 22.0001 93.9999C45.2227 111.213 77.7366 105.801 95.0001 82.9999Z" fill="#36E19F"/>
</g>
<g opacity="0.490005">
<path d="M88 77.9999C102.62 58.7059 98.6539 31.5394 79 16.9999C59.7475 2.35712 32.5397 6.31541 18 25.9999C3.40293 45.294 7.34612 72.4375 27 86.9999C46.6424 101.551 73.4029 97.3055 88 77.9999Z" fill="#36E19F"/>
</g>
<path d="M80.0001 72.9999C91.2688 58.2596 88.7088 37.2928 74.0001 25.9999C59.2913 14.707 38.2546 17.2596 27.0001 31.9999C15.7172 46.7545 18.2913 67.6928 33.0001 78.9999C47.907 90.0091 69.1986 87.6551 80.0001 72.9999Z" fill="#36E19F"/>
<g clip-path="url(#clip0_99_2139)">
<path d="M53 37C49.8381 36.9998 47.247 37.7755 45 40C42.753 42.2245 41.0316 45.8382 41 49C41 57.22 51.55 66.61 52 67C52.2717 67.2324 52.6425 67 53 67C53.3575 67 53.7283 67.2324 54 67C54.525 66.61 65 57.22 65 49C64.9684 45.8382 63.247 42.2245 61 40C58.753 37.7755 56.1619 36.9998 53 37ZM53 63C50.495 60.615 44 54.595 44 49C44 46.6131 45.3122 44.6878 47 43C48.6878 41.3122 50.6131 40 53 40C55.3869 40 57.3122 41.3122 59 43C60.6878 44.6878 62 46.6131 62 49C62 54.55 55.505 60.615 53 63Z" fill="white"/>
<path d="M53.9999 43C52.9121 43 50.9044 43.3957 49.9999 44C49.0954 44.6043 48.4162 44.995 47.9999 46C47.5836 47.005 47.7877 48.9331 47.9999 50C48.2121 51.0669 49.2307 51.2308 49.9999 52C50.7691 52.7692 50.933 53.7878 51.9999 54C53.0668 54.2122 54.9949 54.4163 55.9999 54C57.0049 53.5837 57.3956 52.9045 57.9999 52C58.6043 51.0955 58.9999 49.0878 58.9999 48C58.9999 46.5413 58.0314 46.0314 56.9999 45C55.9685 43.9686 55.4586 43 53.9999 43ZM53.9999 51C53.5337 51 52.3875 50.259 51.9999 50C51.6123 49.741 51.1783 49.4307 50.9999 49C50.8215 48.5693 50.909 48.4572 50.9999 48C51.0909 47.5428 51.6703 47.3297 51.9999 47C52.3296 46.6703 52.5427 46.091 52.9999 46C53.4571 45.909 53.5692 45.8216 53.9999 46C54.4306 46.1784 54.7409 46.6124 54.9999 47C55.2589 47.3876 55.9999 47.5338 55.9999 48C55.9999 48.6252 55.442 49.558 54.9999 50C54.5579 50.442 54.6251 51 53.9999 51Z" fill="white"/>
</g>
<defs>
<clipPath id="clip0_99_2139">
<rect width="36" height="36" fill="white" transform="translate(35 34)"/>
</clipPath>
</defs>
</svg>
