<svg width="1440" height="880" viewBox="0 0 1440 880" fill="none" xmlns="http://www.w3.org/2000/svg">
<g opacity="0.240005">
<path d="M1041.5 219.03L976.34 315.017M1041.5 219.03L847.266 255.265M1041.5 219.03L1386 437.384M1041.5 219.03L1286 319.227M1041.5 219.03L1279.93 244.77M1008 418.56L1181.5 656M1008 418.56L976.34 315.017M1008 418.56L1386 437.384M957.5 844.5L641.972 437.384M957.5 844.5L472.427 622.044M957.5 844.5L1181.5 656M472.427 622.044L82 656M472.427 622.044L1181.5 656M472.427 622.044L555.5 515M82 656L-31.5 315.017M82 656L186 483.893M82 656L555.5 515M186 483.893L-31.5 315.017M186 483.893L438 319.227M186 483.893L555.5 515M186 483.893L110 255.265M-31.5 315.017L110 255.265M438 319.227L636.5 270M438 319.227L555.5 515M438 319.227L484.667 219.03M1181.5 656L803.5 429M1181.5 656L1386 437.384M976.34 315.017L847.266 255.265M976.34 315.017L738.478 362.329M847.266 255.265L854.667 208.56M847.266 255.265L738.478 362.329M847.266 255.265L636.5 270M847.266 255.265L661.5 208.56M738.478 362.329L580 418.56M738.478 362.329L671.5 515M738.478 362.329L803.5 429M738.478 362.329L636.5 270M580 418.56L636.5 270M580 418.56L555.5 515M671.5 515L764.5 539.5L803.5 429M671.5 515H555.5M803.5 429L824.34 459.789M636.5 270L661.5 208.56M636.5 270L612.851 248.652M636.5 270L524.28 387.905L555.5 515M661.5 208.56L484.667 219.03M555.5 515L358.667 483.893M1386 437.384L1286 319.227M1386 437.384L1522.5 222M1386 437.384L1539 459.789L1522.5 222M1286 319.227L1522.5 222M1522.5 222L1279.93 244.77M1522.5 222L1286 18.5001L1279.93 244.77M110 255.265L484.667 219.03" stroke="#706ED0" stroke-width="1.33333"/>
</g>
<path d="M87.279 643.499C93.0762 645.306 96.3077 651.481 94.4969 657.293C92.6855 663.106 86.5178 666.353 80.7212 664.546C74.924 662.74 71.6919 656.564 73.5033 650.752C75.3141 644.94 81.4818 641.693 87.279 643.499Z" fill="#36E19F"/>
<path d="M639.115 289.319C642.816 290.472 644.879 294.414 643.723 298.125C642.567 301.835 638.629 303.908 634.929 302.755C631.228 301.601 629.165 297.659 630.321 293.949C631.477 290.239 635.415 288.166 639.115 289.319Z" fill="#787AF2"/>
<g opacity="0.490005">
<path d="M648.071 442.102C649.77 439.861 649.333 436.646 647.047 434.957C644.807 433.258 641.591 433.694 639.902 435.98C638.203 438.22 638.641 441.436 640.925 443.125C643.21 444.816 646.371 444.342 648.071 442.102Z" fill="#787AF2"/>
</g>
<path d="M646.497 440.917C647.558 439.531 647.266 437.567 645.88 436.504C644.494 435.444 642.53 435.735 641.468 437.121C640.406 438.507 640.698 440.472 642.085 441.535C643.488 442.568 645.48 442.293 646.497 440.917Z" fill="white"/>
<g opacity="0.490005">
<path d="M617.493 252.173C619.192 249.933 618.755 246.717 616.469 245.027C614.229 243.329 611.013 243.766 609.324 246.051C607.625 248.291 608.063 251.507 610.347 253.197C612.632 254.886 615.793 254.414 617.493 252.173Z" fill="#787AF2"/>
</g>
<path d="M615.918 250.989C616.98 249.604 616.688 247.637 615.301 246.576C613.916 245.515 611.95 245.807 610.889 247.192C609.828 248.577 610.12 250.544 611.506 251.605C612.909 252.64 614.901 252.364 615.918 250.989Z" fill="white"/>
<g opacity="0.490005">
<path d="M859.259 211.462C860.956 209.222 860.52 206.006 858.235 204.318C855.996 202.618 852.78 203.055 851.091 205.341C849.391 207.581 849.828 210.797 852.114 212.487C854.398 214.175 857.56 213.705 859.259 211.462Z" fill="#787AF2"/>
</g>
<path d="M857.685 210.278C858.746 208.893 858.453 206.927 857.067 205.866C855.682 204.803 853.717 205.097 852.657 206.482C851.594 207.867 851.886 209.833 853.271 210.894C854.675 211.93 856.667 211.654 857.685 210.278Z" fill="white"/>
<g opacity="0.490005">
<path d="M828.061 460.721C829.76 458.481 829.322 455.265 827.038 453.576C824.797 451.876 821.582 452.313 819.892 454.598C818.193 456.838 818.63 460.054 820.916 461.744C823.2 463.433 826.364 462.961 828.061 460.721Z" fill="#787AF2"/>
</g>
<path d="M826.487 459.536C827.549 458.151 827.256 456.184 825.871 455.123C824.485 454.061 822.519 454.353 821.457 455.739C820.396 457.125 820.688 459.091 822.073 460.153C823.479 461.187 825.468 460.912 826.487 459.536Z" fill="white"/>
<g opacity="0.490005">
<path d="M364.591 486.128C366.29 483.888 365.853 480.672 363.569 478.984C361.329 477.284 358.113 477.722 356.423 480.006C354.723 482.247 355.161 485.462 357.446 487.154C359.731 488.842 362.893 488.371 364.591 486.128Z" fill="#787AF2"/>
</g>
<path d="M363.019 484.945C364.08 483.56 363.787 481.594 362.401 480.53C361.016 479.47 359.051 479.764 357.989 481.149C356.927 482.534 357.22 484.5 358.605 485.561C360.009 486.597 362.001 486.321 363.019 484.945Z" fill="white"/>
<g opacity="0.169998">
<path d="M299.473 448.432C302.134 444.921 301.45 439.885 297.87 437.237C294.36 434.574 289.322 435.261 286.674 438.84C284.013 442.349 284.698 447.388 288.278 450.036C291.857 452.682 296.812 451.942 299.473 448.432Z" fill="#787AF2"/>
</g>
<g opacity="0.490005">
<path d="M297.539 446.814C299.238 444.572 298.801 441.357 296.517 439.668C294.277 437.968 291.061 438.405 289.37 440.69C287.671 442.932 288.109 446.148 290.394 447.837C292.679 449.525 295.841 449.054 297.539 446.814Z" fill="#787AF2"/>
</g>
<path d="M295.965 445.628C297.028 444.243 296.734 442.278 295.349 441.215C293.964 440.155 291.998 440.447 290.936 441.832C289.874 443.218 290.168 445.183 291.553 446.244C292.956 447.28 294.948 447.004 295.965 445.628Z" fill="#9597F2"/>
<g opacity="0.169998">
<path d="M444.682 325.643C447.343 322.131 446.659 317.095 443.079 314.448C439.57 311.784 434.531 312.469 431.885 316.051C429.222 319.56 429.907 324.599 433.487 327.244C437.067 329.892 442.021 329.152 444.682 325.643Z" fill="#787AF2"/>
</g>
<g opacity="0.490005">
<path d="M442.749 324.023C444.449 321.783 444.012 318.567 441.726 316.879C439.486 315.178 436.27 315.615 434.581 317.9C432.882 320.14 433.318 323.356 435.604 325.047C437.889 326.735 441.05 326.264 442.749 324.023Z" fill="#787AF2"/>
</g>
<path d="M441.175 322.838C442.237 321.453 441.943 319.488 440.558 318.426C439.173 317.365 437.207 317.657 436.146 319.042C435.083 320.429 435.377 322.393 436.762 323.456C438.166 324.49 440.158 324.216 441.175 322.838Z" fill="#9597F2"/>
<g opacity="0.169998">
<path d="M586.015 422.976C588.678 419.464 587.992 414.428 584.412 411.78C580.903 409.117 575.864 409.803 573.218 413.384C570.555 416.893 571.24 421.932 574.82 424.577C578.4 427.225 583.354 426.485 586.015 422.976Z" fill="#787AF2"/>
</g>
<g opacity="0.490005">
<path d="M584.082 421.356C585.782 419.116 585.345 415.9 583.06 414.212C580.82 412.511 577.604 412.948 575.914 415.234C574.216 417.474 574.652 420.69 576.937 422.38C579.222 424.068 582.384 423.598 584.082 421.356Z" fill="#787AF2"/>
</g>
<path d="M582.509 420.171C583.57 418.786 583.277 416.821 581.892 415.759C580.506 414.698 578.541 414.99 577.48 416.375C576.417 417.761 576.71 419.726 578.096 420.789C579.5 421.823 581.492 421.547 582.509 420.171Z" fill="#9597F2"/>
<g opacity="0.169998">
<path d="M744.682 366.976C747.343 363.465 746.659 358.428 743.079 355.781C739.57 353.117 734.533 353.803 731.885 357.384C729.222 360.893 729.907 365.932 733.487 368.577C737.067 371.227 742.021 370.485 744.682 366.976Z" fill="#787AF2"/>
</g>
<g opacity="0.490005">
<path d="M742.748 365.356C744.448 363.116 744.011 359.9 741.726 358.212C739.487 356.512 736.271 356.948 734.58 359.233C732.882 361.473 733.319 364.689 735.604 366.38C737.888 368.069 741.051 367.597 742.748 365.356Z" fill="#787AF2"/>
</g>
<path d="M741.176 364.171C742.237 362.786 741.944 360.821 740.558 359.759C739.173 358.698 737.208 358.99 736.148 360.375C735.085 361.762 735.377 363.726 736.762 364.789C738.166 365.823 740.158 365.549 741.176 364.171Z" fill="#9597F2"/>
<g opacity="0.169998">
<path d="M739.349 213.642C742.01 210.13 741.326 205.094 737.746 202.448C734.237 199.784 729.199 200.469 726.551 204.05C723.889 207.56 724.574 212.598 728.154 215.244C731.734 217.892 736.687 217.152 739.349 213.642Z" fill="#787AF2"/>
</g>
<g opacity="0.490005">
<path d="M737.415 212.023C739.115 209.783 738.678 206.567 736.392 204.879C734.154 203.178 730.938 203.615 729.247 205.9C727.548 208.14 727.986 211.356 730.271 213.047C732.555 214.735 735.718 214.264 737.415 212.023Z" fill="#787AF2"/>
</g>
<path d="M735.842 210.838C736.904 209.453 736.61 207.488 735.225 206.426C733.84 205.364 731.874 205.657 730.814 207.042C729.752 208.429 730.044 210.393 731.429 211.456C732.833 212.49 734.825 212.216 735.842 210.838Z" fill="#9597F2"/>
<g opacity="0.169998">
<path d="M982.015 320.309C984.676 316.799 983.992 311.761 980.412 309.115C976.903 306.451 971.866 307.136 969.218 310.717C966.555 314.227 967.24 319.265 970.82 321.911C974.4 324.56 979.354 323.819 982.015 320.309Z" fill="#787AF2"/>
</g>
<g opacity="0.490005">
<path d="M980.082 318.69C981.782 316.45 981.344 313.234 979.059 311.546C976.82 309.846 973.604 310.282 971.914 312.567C970.216 314.807 970.652 318.023 972.938 319.714C975.222 321.403 978.384 320.931 980.082 318.69Z" fill="#787AF2"/>
</g>
<path d="M978.509 317.505C979.57 316.119 979.277 314.154 977.891 313.093C976.506 312.031 974.541 312.323 973.481 313.709C972.418 315.095 972.71 317.059 974.095 318.122C975.499 319.157 977.491 318.882 978.509 317.505Z" fill="#9597F2"/>
<g opacity="0.169998">
<path d="M1297.47 27.9726C1303.28 20.3087 1301.79 9.31193 1293.97 3.53414C1286.31 -2.2815 1275.31 -0.785385 1269.53 7.03283C1263.72 14.6939 1265.22 25.6935 1273.03 31.4684C1280.85 37.252 1291.66 35.6337 1297.47 27.9726Z" fill="#D0D0FB"/>
</g>
<g opacity="0.490005">
<path d="M1295.68 27.0861C1300.61 20.5895 1299.34 11.2621 1292.72 6.36635C1286.22 1.43583 1276.9 2.70036 1271.99 9.32853C1267.07 15.8252 1268.33 25.1526 1274.96 30.0561C1281.59 34.9556 1290.76 33.5867 1295.68 27.0861Z" fill="#D0D0FB"/>
</g>
<path d="M1291.87 23.8515C1295.4 19.2314 1294.42 12.6769 1289.81 9.13737C1285.2 5.5978 1278.66 6.57163 1275.14 11.1917C1271.6 15.8163 1272.57 22.3663 1277.18 25.9103C1281.85 29.3609 1288.48 28.4449 1291.87 23.8515Z" fill="#D0D0FB"/>
<g opacity="0.169998">
<path d="M1397.58 440.182C1401.56 434.926 1400.54 427.386 1395.18 423.424C1389.93 419.436 1382.39 420.462 1378.42 425.823C1374.44 431.076 1375.46 438.619 1380.82 442.579C1386.18 446.545 1393.6 445.435 1397.58 440.182Z" fill="#9597F2"/>
</g>
<g opacity="0.490005">
<path d="M1396.35 439.574C1399.73 435.119 1398.86 428.723 1394.32 425.366C1389.87 421.985 1383.47 422.852 1380.11 427.397C1376.73 431.852 1377.6 438.248 1382.14 441.61C1386.69 444.97 1392.98 444.031 1396.35 439.574Z" fill="#9597F2"/>
</g>
<path d="M1393.74 437.356C1396.16 434.188 1395.49 429.693 1392.33 427.266C1389.17 424.839 1384.68 425.507 1382.26 428.675C1379.84 431.846 1380.51 436.337 1383.67 438.767C1386.87 441.134 1391.42 440.505 1393.74 437.356Z" fill="#9597F2"/>
<g opacity="0.169998">
<path d="M1015.35 422.976C1018.01 419.464 1017.33 414.428 1013.75 411.781C1010.24 409.117 1005.2 409.803 1002.55 413.384C999.888 416.893 1000.57 421.932 1004.15 424.577C1007.73 427.225 1012.69 426.485 1015.35 422.976Z" fill="#787AF2"/>
</g>
<g opacity="0.490005">
<path d="M1013.41 421.356C1015.11 419.116 1014.68 415.9 1012.39 414.212C1010.15 412.511 1006.94 412.948 1005.25 415.234C1003.55 417.474 1003.99 420.69 1006.27 422.38C1008.55 424.068 1011.72 423.598 1013.41 421.356Z" fill="#787AF2"/>
</g>
<path d="M1011.84 420.171C1012.9 418.786 1012.61 416.821 1011.22 415.759C1009.84 414.698 1007.87 414.99 1006.81 416.375C1005.75 417.762 1006.04 419.726 1007.43 420.789C1008.83 421.823 1010.82 421.549 1011.84 420.171Z" fill="#9597F2"/>
<g opacity="0.0299988">
<path d="M729.89 500.483L676.811 531.917M732.45 387.648L729.89 500.483M113.431 635.904L401.547 638.117M113.431 635.904L344.309 532.12M-129.589 573.175L113.431 635.904M-30.7393 428.099L-160.141 374.68L-129.589 573.175M-30.7393 428.099L-129.589 573.175M133.471 331.795L-30.7393 428.099M689.663 640.331L401.547 638.117M689.663 640.331L676.811 531.917M689.663 640.331L344.309 532.12M663.958 423.505L729.89 500.483M663.958 423.505L676.811 531.917M663.958 423.505L732.45 387.648M547.585 341.725L732.45 387.648M547.585 341.725L663.958 423.505M421.471 427.709L255.515 454.825M421.471 427.709L663.958 423.505M421.471 427.709L547.585 341.725M342.718 531.621L401.547 638.117M342.718 531.621L344.309 532.12M342.718 531.621L421.471 427.709M510.418 493.193L426.569 512.407L342.718 531.621M510.418 493.193L689.663 640.331M510.418 493.193L663.958 423.505M510.418 493.193L421.471 427.709M333.275 344.893L255.515 454.825M333.275 344.893L547.585 341.725M333.275 344.893L443.789 275.481L547.585 341.725M333.275 344.893L133.471 331.795M333.275 344.893L421.471 427.709M79.0127 484.585L255.515 454.825M79.0127 484.585L206.145 414.739L333.275 344.893M79.0127 484.585L113.431 635.904M79.0127 484.585L-129.589 573.175M79.0127 484.585L-30.7393 428.099M79.0127 484.585L133.471 331.795M79.0127 484.585L342.718 531.621" stroke="#706ED0" stroke-width="1.33333"/>
</g>
<g opacity="0.0399933">
<path d="M83.6638 489.19C86.9078 486.211 87.1305 481.13 84.0798 477.888C81.0998 474.646 76.0198 474.422 72.7785 477.472C69.5345 480.452 69.3105 485.531 72.3625 488.774C75.4131 492.016 80.4198 492.17 83.6638 489.19Z" fill="#787AF2"/>
</g>
<g opacity="0.0500031">
<path d="M82.0504 487.252C84.121 485.35 84.2624 482.109 82.3157 480.04C80.413 477.968 77.1704 477.826 75.101 479.774C73.0304 481.674 72.889 484.917 74.8357 486.988C76.7837 489.057 79.9797 489.156 82.0504 487.252Z" fill="#9597F2"/>
</g>
<g opacity="0.139999">
<path d="M80.712 485.807C82.004 484.632 82.0653 482.647 80.8906 481.355C79.716 480.063 77.7306 480.001 76.4386 481.176C75.1466 482.349 75.0853 484.336 76.26 485.627C77.456 486.896 79.4653 486.98 80.712 485.807Z" fill="#D0D0FB"/>
</g>
<g opacity="0.0399933">
<path d="M119.927 640.735C123.171 637.758 123.394 632.676 120.343 629.434C117.363 626.19 112.283 625.967 109.042 629.018C105.797 631.998 105.574 637.078 108.626 640.32C111.677 643.562 116.683 643.715 119.927 640.735Z" fill="#787AF2"/>
</g>
<g opacity="0.0500031">
<path d="M118.313 638.799C120.383 636.896 120.526 633.656 118.578 631.586C116.677 629.515 113.434 629.374 111.365 631.32C109.294 633.222 109.151 636.464 111.099 638.535C113.047 640.604 116.242 640.702 118.313 638.799Z" fill="#9597F2"/>
</g>
<g opacity="0.139999">
<path d="M116.976 637.352C118.268 636.178 118.329 634.192 117.154 632.9C115.98 631.608 113.994 631.547 112.702 632.722C111.41 633.896 111.349 635.882 112.524 637.174C113.72 638.442 115.729 638.526 116.976 637.352Z" fill="#D0D0FB"/>
</g>
<g opacity="0.0399933">
<path d="M694.87 645.851C698.114 642.872 698.337 637.791 695.286 634.55C692.306 631.306 687.226 631.082 683.984 634.134C680.74 637.114 680.517 642.192 683.568 645.435C686.62 648.678 691.626 648.831 694.87 645.851Z" fill="#787AF2"/>
</g>
<g opacity="0.0500031">
<path d="M693.256 643.913C695.326 642.012 695.469 638.771 693.521 636.701C691.62 634.629 688.377 634.488 686.308 636.436C684.237 638.336 684.094 641.579 686.042 643.649C687.99 645.719 691.185 645.817 693.256 643.913Z" fill="#9597F2"/>
</g>
<g opacity="0.139999">
<path d="M691.918 642.467C693.209 641.294 693.27 639.307 692.097 638.016C690.922 636.724 688.936 636.663 687.645 637.836C686.353 639.011 686.292 640.998 687.466 642.288C688.662 643.558 690.672 643.64 691.918 642.467Z" fill="#D0D0FB"/>
</g>
<g opacity="0.0399933">
<path d="M138.903 339.296C142.147 336.318 142.37 331.238 139.319 327.995C136.339 324.751 131.259 324.528 128.018 327.579C124.774 330.559 124.55 335.639 127.602 338.88C130.654 342.123 135.659 342.276 138.903 339.296Z" fill="#787AF2"/>
</g>
<g opacity="0.0500031">
<path d="M137.29 337.36C139.361 335.457 139.502 332.216 137.555 330.147C135.653 328.075 132.41 327.935 130.341 329.881C128.27 331.783 128.129 335.024 130.075 337.095C132.023 339.165 135.219 339.263 137.29 337.36Z" fill="#9597F2"/>
</g>
<g opacity="0.139999">
<path d="M135.951 335.913C137.243 334.739 137.305 332.755 136.13 331.461C134.955 330.169 132.97 330.108 131.678 331.283C130.386 332.457 130.325 334.443 131.499 335.735C132.695 337.003 134.705 337.088 135.951 335.913Z" fill="#D0D0FB"/>
</g>
<g opacity="0.0399933">
<path d="M260.649 460.239C263.893 457.26 264.115 452.179 261.065 448.938C258.085 445.694 253.005 445.47 249.763 448.522C246.519 451.502 246.295 456.58 249.347 459.823C252.398 463.066 257.405 463.219 260.649 460.239Z" fill="#787AF2"/>
</g>
<g opacity="0.0500031">
<path d="M259.035 458.302C261.106 456.4 261.247 453.159 259.301 451.088C257.398 449.018 254.155 448.876 252.086 450.824C250.015 452.724 249.874 455.967 251.821 458.038C253.769 460.107 256.965 460.206 259.035 458.302Z" fill="#9597F2"/>
</g>
<g opacity="0.139999">
<path d="M257.697 456.855C258.989 455.682 259.05 453.695 257.876 452.404C256.701 451.112 254.716 451.051 253.424 452.224C252.132 453.399 252.07 455.386 253.245 456.676C254.441 457.946 256.45 458.028 257.697 456.855Z" fill="#D0D0FB"/>
</g>
<g opacity="0.0399933">
<path d="M348.694 537.143C351.938 534.164 352.161 529.084 349.11 525.841C346.13 522.599 341.05 522.376 337.808 525.427C334.564 528.405 334.341 533.487 337.392 536.727C340.444 539.969 345.449 540.123 348.694 537.143Z" fill="#787AF2"/>
</g>
<g opacity="0.0500031">
<path d="M347.08 535.208C349.15 533.304 349.293 530.064 347.345 527.993C345.444 525.921 342.201 525.781 340.132 527.728C338.061 529.629 337.918 532.873 339.866 534.942C341.814 537.012 345.009 537.109 347.08 535.208Z" fill="#9597F2"/>
</g>
<g opacity="0.139999">
<path d="M345.741 533.761C347.033 532.585 347.094 530.601 345.921 529.309C344.746 528.016 342.76 527.956 341.469 529.129C340.177 530.304 340.116 532.289 341.29 533.581C342.486 534.849 344.496 534.935 345.741 533.761Z" fill="#D0D0FB"/>
</g>
<g opacity="0.0399933">
<path d="M406.623 643.831C409.867 640.851 410.091 635.771 407.039 632.527C404.059 629.285 398.981 629.062 395.738 632.114C392.494 635.093 392.271 640.173 395.322 643.415C398.374 646.657 403.379 646.811 406.623 643.831Z" fill="#787AF2"/>
</g>
<g opacity="0.0500031">
<path d="M405.01 641.894C407.081 639.991 407.223 636.75 405.275 634.681C403.373 632.61 400.131 632.467 398.062 634.415C395.991 636.317 395.849 639.559 397.797 641.629C399.743 643.698 402.939 643.795 405.01 641.894Z" fill="#9597F2"/>
</g>
<g opacity="0.139999">
<path d="M403.671 640.447C404.963 639.273 405.025 637.287 403.85 635.995C402.675 634.705 400.69 634.642 399.398 635.817C398.107 636.991 398.045 638.975 399.219 640.269C400.417 641.537 402.426 641.621 403.671 640.447Z" fill="#D0D0FB"/>
</g>
<g opacity="0.0399933">
<path d="M426.752 433.385C429.996 430.405 430.218 425.325 427.166 422.081C424.188 418.838 419.108 418.616 415.865 421.666C412.621 424.646 412.398 429.726 415.449 432.969C418.501 436.21 423.506 436.364 426.752 433.385Z" fill="#787AF2"/>
</g>
<g opacity="0.0500031">
<path d="M425.137 431.447C427.208 429.545 427.351 426.303 425.403 424.234C423.501 422.163 420.259 422.021 418.189 423.969C416.119 425.87 415.976 429.113 417.924 431.182C419.871 433.251 423.067 433.349 425.137 431.447Z" fill="#9597F2"/>
</g>
<g opacity="0.139999">
<path d="M423.799 430.001C425.091 428.826 425.152 426.841 423.979 425.549C422.804 424.258 420.817 424.196 419.527 425.37C418.235 426.545 418.173 428.53 419.348 429.822C420.544 431.09 422.553 431.174 423.799 430.001Z" fill="#D0D0FB"/>
</g>
<g opacity="0.0399933">
<path d="M515.383 499.556C518.628 496.576 518.851 491.496 515.799 488.254C512.82 485.01 507.74 484.786 504.497 487.838C501.253 490.818 501.031 495.897 504.081 499.14C507.133 502.382 512.139 502.536 515.383 499.556Z" fill="#787AF2"/>
</g>
<g opacity="0.0500031">
<path d="M513.769 497.618C515.84 495.717 515.983 492.474 514.035 490.405C512.133 488.334 508.891 488.191 506.821 490.139C504.751 492.041 504.608 495.283 506.556 497.353C508.503 499.422 511.699 499.521 513.769 497.618Z" fill="#9597F2"/>
</g>
<g opacity="0.139999">
<path d="M512.431 496.171C513.723 494.998 513.784 493.011 512.609 491.721C511.436 490.429 509.449 490.367 508.159 491.541C506.867 492.715 506.805 494.702 507.979 495.993C509.176 497.262 511.185 497.345 512.431 496.171Z" fill="#D0D0FB"/>
</g>
<g opacity="0.0399933">
<path d="M448.804 281.551C452.048 278.571 452.27 273.491 449.22 270.249C446.24 267.006 441.16 266.782 437.918 269.834C434.673 272.814 434.45 277.893 437.502 281.135C440.553 284.378 445.56 284.53 448.804 281.551Z" fill="#787AF2"/>
</g>
<g opacity="0.0500031">
<path d="M447.189 279.614C449.26 277.713 449.403 274.47 447.455 272.401C445.553 270.33 442.311 270.187 440.241 272.135C438.171 274.037 438.028 277.279 439.976 279.349C441.924 281.418 445.119 281.517 447.189 279.614Z" fill="#9597F2"/>
</g>
<g opacity="0.139999">
<path d="M445.852 278.167C447.144 276.994 447.205 275.007 446.031 273.717C444.856 272.425 442.871 272.363 441.579 273.537C440.287 274.711 440.225 276.697 441.4 277.989C442.596 279.258 444.605 279.341 445.852 278.167Z" fill="#D0D0FB"/>
</g>
<g opacity="0.0399933">
<path d="M339.231 349.799C342.475 346.82 342.699 341.739 339.647 338.498C336.667 335.255 331.589 335.031 328.346 338.082C325.102 341.062 324.879 346.14 327.93 349.383C330.982 352.626 335.987 352.779 339.231 349.799Z" fill="#787AF2"/>
</g>
<g opacity="0.0500031">
<path d="M337.618 347.861C339.689 345.96 339.831 342.719 337.883 340.649C335.981 338.577 332.739 338.436 330.67 340.384C328.599 342.284 328.457 345.527 330.405 347.597C332.351 349.667 335.547 349.765 337.618 347.861Z" fill="#9597F2"/>
</g>
<g opacity="0.139999">
<path d="M336.28 346.416C337.572 345.241 337.633 343.255 336.458 341.964C335.284 340.672 333.298 340.611 332.006 341.785C330.716 342.959 330.653 344.945 331.828 346.236C333.025 347.505 335.034 347.591 336.28 346.416Z" fill="#D0D0FB"/>
</g>
<g opacity="0.0399933">
<path d="M552.58 346.398C555.824 343.418 556.048 338.338 552.996 335.095C550.016 331.851 544.936 331.629 541.694 334.679C538.45 337.659 538.228 342.739 541.278 345.982C544.329 349.223 549.336 349.377 552.58 346.398Z" fill="#787AF2"/>
</g>
<g opacity="0.0500031">
<path d="M550.966 344.461C553.037 342.558 553.178 339.318 551.232 337.247C549.329 335.177 546.088 335.035 544.017 336.983C541.946 338.883 541.805 342.126 543.752 344.195C545.7 346.266 548.896 346.362 550.966 344.461Z" fill="#9597F2"/>
</g>
<g opacity="0.139999">
<path d="M549.627 343.014C550.919 341.839 550.981 339.854 549.806 338.562C548.631 337.271 546.646 337.208 545.354 338.383C544.062 339.558 544.001 341.543 545.175 342.835C546.373 344.103 548.381 344.187 549.627 343.014Z" fill="#D0D0FB"/>
</g>
<g opacity="0.0399933">
<path d="M668.601 429.719C671.845 426.739 672.069 421.661 669.017 418.417C666.037 415.174 660.959 414.951 657.716 418.002C654.472 420.982 654.249 426.062 657.3 429.303C660.351 432.546 665.357 432.699 668.601 429.719Z" fill="#787AF2"/>
</g>
<g opacity="0.0500031">
<path d="M666.988 427.783C669.059 425.881 669.2 422.638 667.253 420.569C665.351 418.498 662.109 418.357 660.039 420.303C657.968 422.206 657.827 425.447 659.773 427.517C661.721 429.589 664.917 429.685 666.988 427.783Z" fill="#9597F2"/>
</g>
<g opacity="0.139999">
<path d="M665.649 426.337C666.941 425.162 667.002 423.177 665.827 421.885C664.653 420.593 662.667 420.532 661.375 421.706C660.083 422.881 660.022 424.866 661.197 426.158C662.394 427.426 664.403 427.51 665.649 426.337Z" fill="#D0D0FB"/>
</g>
<g opacity="0.0399933">
<path d="M683.122 536.68C686.366 533.702 686.589 528.622 683.538 525.379C680.558 522.135 675.478 521.912 672.237 524.963C668.993 527.943 668.769 533.023 671.821 536.264C674.871 539.507 679.878 539.66 683.122 536.68Z" fill="#787AF2"/>
</g>
<g opacity="0.0500031">
<path d="M681.509 534.743C683.58 532.842 683.721 529.6 681.774 527.531C679.872 525.459 676.629 525.318 674.56 527.266C672.489 529.167 672.348 532.408 674.294 534.479C676.242 536.548 679.438 536.647 681.509 534.743Z" fill="#9597F2"/>
</g>
<g opacity="0.139999">
<path d="M680.17 533.298C681.462 532.123 681.524 530.138 680.349 528.846C679.174 527.554 677.189 527.492 675.897 528.667C674.605 529.842 674.544 531.827 675.718 533.119C676.916 534.387 678.924 534.471 680.17 533.298Z" fill="#D0D0FB"/>
</g>
<g opacity="0.0399933">
<path d="M736.277 394.541C739.521 391.562 739.744 386.482 736.692 383.238C733.713 379.996 728.633 379.773 725.39 382.824C722.146 385.802 721.924 390.884 724.974 394.125C728.026 397.368 733.032 397.52 736.277 394.541Z" fill="#787AF2"/>
</g>
<g opacity="0.0500031">
<path d="M734.662 392.605C736.733 390.702 736.876 387.461 734.928 385.392C733.025 383.321 729.784 383.178 727.714 385.125C725.644 387.026 725.501 390.27 727.449 392.34C729.396 394.409 732.592 394.506 734.662 392.605Z" fill="#9597F2"/>
</g>
<g opacity="0.139999">
<path d="M733.324 391.158C734.616 389.983 734.677 387.998 733.504 386.706C732.329 385.413 730.343 385.353 729.052 386.526C727.76 387.702 727.699 389.686 728.873 390.979C730.069 392.246 732.077 392.331 733.324 391.158Z" fill="#D0D0FB"/>
</g>
<g opacity="0.0399933">
<path d="M734.104 503.902C737.348 500.922 737.57 495.842 734.52 492.6C731.54 489.356 726.46 489.132 723.218 492.184C719.974 495.164 719.75 500.243 722.802 503.486C725.853 506.728 730.858 506.882 734.104 503.902Z" fill="#787AF2"/>
</g>
<g opacity="0.0500031">
<path d="M732.489 501.964C734.56 500.063 734.703 496.822 732.756 494.751C730.852 492.68 727.611 492.539 725.541 494.487C723.471 496.387 723.329 499.63 725.276 501.7C727.224 503.77 730.417 503.868 732.489 501.964Z" fill="#9597F2"/>
</g>
<g opacity="0.139999">
<path d="M731.152 500.518C732.444 499.344 732.505 497.358 731.331 496.067C730.156 494.775 728.171 494.714 726.879 495.887C725.587 497.062 725.524 499.048 726.7 500.339C727.896 501.608 729.904 501.691 731.152 500.518Z" fill="#D0D0FB"/>
</g>
<g opacity="0.0399933">
<path d="M894.492 221.031C894.992 216.655 891.833 212.669 887.404 212.219C883.027 211.719 879.043 214.877 878.592 219.305C878.092 223.681 881.248 227.668 885.679 228.117C890.108 228.569 893.992 225.407 894.492 221.031Z" fill="#787AF2"/>
</g>
<g opacity="0.0500031">
<path d="M892.004 220.624C892.322 217.831 890.306 215.287 887.48 214.999C884.686 214.68 882.142 216.695 881.854 219.523C881.536 222.318 883.552 224.859 886.378 225.15C889.205 225.436 891.684 223.418 892.004 220.624Z" fill="#9597F2"/>
</g>
<g opacity="0.139999">
<path d="M890.045 220.407C890.25 218.674 888.998 217.134 887.264 216.927C885.529 216.719 883.99 217.974 883.782 219.708C883.574 221.44 884.83 222.983 886.564 223.188C888.297 223.363 889.872 222.11 890.045 220.407Z" fill="#D0D0FB"/>
</g>
<g opacity="0.0399933">
<path d="M1013.22 190.809C1013.72 186.433 1010.56 182.448 1006.13 181.997C1001.75 181.497 997.768 184.655 997.316 189.083C996.816 193.46 999.974 197.445 1004.4 197.896C1008.83 198.348 1012.72 195.185 1013.22 190.809Z" fill="#787AF2"/>
</g>
<g opacity="0.0500031">
<path d="M1010.73 190.402C1011.05 187.608 1009.03 185.066 1006.2 184.776C1003.41 184.458 1000.87 186.474 1000.58 189.3C1000.26 192.095 1002.28 194.638 1005.1 194.927C1007.93 195.214 1010.41 193.195 1010.73 190.402Z" fill="#9597F2"/>
</g>
<g opacity="0.139999">
<path d="M1008.77 190.186C1008.98 188.452 1007.72 186.911 1005.99 186.706C1004.26 186.498 1002.71 187.751 1002.51 189.486C1002.3 191.218 1003.55 192.76 1005.29 192.966C1007.02 193.14 1008.6 191.888 1008.77 190.186Z" fill="#D0D0FB"/>
</g>
<g opacity="0.0399933">
<path d="M761.513 265.617C762.013 261.239 758.854 257.255 754.426 256.803C750.049 256.303 746.063 259.462 745.611 263.891C745.111 268.267 748.27 272.253 752.701 272.703C757.129 273.155 761.013 269.993 761.513 265.617Z" fill="#787AF2"/>
</g>
<g opacity="0.0500031">
<path d="M759.023 265.21C759.343 262.416 757.328 259.873 754.5 259.584C751.707 259.266 749.163 261.282 748.876 264.109C748.555 266.902 750.571 269.445 753.399 269.734C756.226 270.021 758.706 268.004 759.023 265.21Z" fill="#9597F2"/>
</g>
<g opacity="0.139999">
<path d="M757.066 264.993C757.273 263.26 756.018 261.72 754.285 261.512C752.552 261.304 751.01 262.56 750.804 264.293C750.597 266.025 751.852 267.568 753.585 267.774C755.32 267.949 756.893 266.694 757.066 264.993Z" fill="#D0D0FB"/>
</g>
<g opacity="0.0399933">
<path d="M913.579 394.023C914.079 389.647 910.922 385.661 906.492 385.211C902.115 384.711 898.13 387.869 897.678 392.297C897.178 396.673 900.336 400.659 904.767 401.109C909.196 401.561 913.079 398.399 913.579 394.023Z" fill="#787AF2"/>
</g>
<g opacity="0.0500031">
<path d="M911.091 393.617C911.409 390.822 909.395 388.279 906.567 387.991C903.773 387.671 901.229 389.687 900.943 392.515C900.621 395.31 902.639 397.851 905.465 398.141C908.292 398.429 910.772 396.41 911.091 393.617Z" fill="#9597F2"/>
</g>
<g opacity="0.139999">
<path d="M909.133 393.399C909.339 391.666 908.085 390.125 906.351 389.918C904.618 389.711 903.077 390.966 902.871 392.701C902.663 394.433 903.918 395.973 905.653 396.181C907.386 396.355 908.959 395.102 909.133 393.399Z" fill="#D0D0FB"/>
</g>
<g opacity="0.0399933">
<path d="M1139.87 281.579C1140.37 277.204 1137.21 273.217 1132.79 272.768C1128.41 272.268 1124.43 275.425 1123.97 279.853C1123.47 284.231 1126.63 288.216 1131.05 288.667C1135.49 289.119 1139.37 285.956 1139.87 281.579Z" fill="#787AF2"/>
</g>
<g opacity="0.0500031">
<path d="M1137.39 281.173C1137.71 278.379 1135.69 275.837 1132.87 275.547C1130.07 275.229 1127.52 277.245 1127.24 280.071C1126.92 282.865 1128.93 285.409 1131.76 285.698C1134.59 285.985 1137.07 283.966 1137.39 281.173Z" fill="#9597F2"/>
</g>
<g opacity="0.139999">
<path d="M1135.43 280.957C1135.63 279.223 1134.37 277.682 1132.64 277.477C1130.91 277.269 1129.37 278.522 1129.16 280.255C1128.96 281.989 1130.21 283.531 1131.95 283.737C1133.68 283.911 1135.25 282.659 1135.43 280.957Z" fill="#D0D0FB"/>
</g>
<g opacity="0.169998">
<path d="M1216.91 677.922C1233.51 656.025 1229.25 624.606 1206.92 608.098C1185.03 591.482 1153.61 595.756 1137.09 618.094C1120.48 639.983 1124.76 671.41 1147.09 687.91C1169.42 704.434 1200.31 699.811 1216.91 677.922Z" fill="#D0D0FB"/>
</g>
<g opacity="0.490005">
<path d="M1211.8 675.389C1225.89 656.827 1222.27 630.178 1203.33 616.19C1184.78 602.103 1158.13 605.716 1144.12 624.653C1130.05 643.215 1133.67 669.865 1152.6 683.875C1171.53 697.874 1197.74 693.962 1211.8 675.389Z" fill="#D0D0FB"/>
</g>
<path d="M1200.91 666.147C1211 652.947 1208.21 634.22 1195.04 624.107C1181.87 613.994 1163.18 616.776 1153.1 629.977C1143 643.19 1145.78 661.904 1158.95 672.03C1172.3 681.888 1191.24 679.271 1200.91 666.147Z" fill="#D0D0FB"/>
<g opacity="0.5">
<path d="M1177 635.5C1174.37 635.5 1171.84 636.54 1169.96 638.394C1168.09 640.247 1167.03 642.765 1167 645.4C1167 652.25 1175.81 659.875 1176.19 660.2C1176.41 660.394 1176.7 660.5 1177 660.5C1177.3 660.5 1177.59 660.394 1177.81 660.2C1178.25 659.875 1187 652.25 1187 645.4C1186.97 642.765 1185.91 640.247 1184.04 638.394C1182.16 636.54 1179.63 635.5 1177 635.5ZM1177 657.563C1174.91 655.575 1169.5 650.063 1169.5 645.4C1169.5 643.411 1170.29 641.503 1171.7 640.097C1173.1 638.69 1175.01 637.9 1177 637.9C1178.99 637.9 1180.9 638.69 1182.3 640.097C1183.71 641.503 1184.5 643.411 1184.5 645.4C1184.5 650.025 1179.09 655.575 1177 657.563Z" fill="white"/>
<path d="M1177 640.5C1176.13 640.5 1175.29 640.757 1174.57 641.237C1173.85 641.718 1173.29 642.401 1172.96 643.201C1172.63 644 1172.54 644.88 1172.71 645.729C1172.88 646.577 1173.29 647.357 1173.91 647.969C1174.52 648.581 1175.3 648.997 1176.15 649.166C1177 649.335 1177.87 649.248 1178.67 648.917C1179.47 648.586 1180.16 648.025 1180.64 647.306C1181.12 646.586 1181.38 645.74 1181.38 644.875C1181.38 643.715 1180.91 642.602 1180.09 641.782C1179.27 640.961 1178.16 640.5 1177 640.5ZM1177 646.75C1176.63 646.75 1176.27 646.64 1175.96 646.434C1175.65 646.228 1175.41 645.935 1175.27 645.593C1175.13 645.25 1175.09 644.873 1175.16 644.509C1175.23 644.146 1175.41 643.812 1175.67 643.549C1175.94 643.287 1176.27 643.108 1176.63 643.036C1177 642.964 1177.37 643.001 1177.72 643.143C1178.06 643.285 1178.35 643.525 1178.56 643.833C1178.77 644.142 1178.88 644.504 1178.88 644.875C1178.88 645.372 1178.68 645.849 1178.33 646.201C1177.97 646.553 1177.5 646.75 1177 646.75Z" fill="white"/>
</g>
<g opacity="0.169998">
<path d="M985.838 865.744C997.623 850.198 994.594 827.89 978.74 816.169C963.199 804.372 940.892 807.407 929.165 823.267C917.373 838.808 920.408 861.121 936.262 872.836C952.116 884.568 974.052 881.285 985.838 865.744Z" fill="#36E19F"/>
</g>
<g opacity="0.490005">
<path d="M982.211 863.946C992.212 850.767 989.639 831.846 976.194 821.915C963.023 811.913 944.101 814.478 934.154 827.924C924.168 841.103 926.733 860.024 940.179 869.971C953.617 879.91 972.224 877.133 982.211 863.946Z" fill="#36E19F"/>
</g>
<path d="M974.477 857.384C981.642 848.012 979.661 834.716 970.309 827.536C960.957 820.356 947.689 822.331 940.534 831.703C933.36 841.085 935.331 854.372 944.683 861.561C954.161 868.561 967.609 866.703 974.477 857.384Z" fill="#36E19F"/>
<g opacity="0.5">
<path d="M957.5 834.083C955.304 834.083 953.197 834.95 951.637 836.495C950.076 838.039 949.189 840.138 949.167 842.333C949.167 848.042 956.51 854.396 956.823 854.667C957.012 854.828 957.252 854.917 957.5 854.917C957.748 854.917 957.988 854.828 958.177 854.667C958.542 854.396 965.833 848.042 965.833 842.333C965.811 840.138 964.924 838.039 963.363 836.495C961.803 834.95 959.696 834.083 957.5 834.083ZM957.5 852.469C955.76 850.813 951.25 846.219 951.25 842.333C951.25 840.676 951.909 839.086 953.081 837.914C954.253 836.742 955.842 836.083 957.5 836.083C959.158 836.083 960.747 836.742 961.919 837.914C963.092 839.086 963.75 840.676 963.75 842.333C963.75 846.188 959.24 850.813 957.5 852.469Z" fill="white"/>
<path d="M957.5 838.25C956.779 838.25 956.074 838.464 955.475 838.864C954.875 839.265 954.408 839.834 954.132 840.501C953.856 841.167 953.784 841.9 953.924 842.607C954.065 843.314 954.412 843.964 954.922 844.474C955.432 844.984 956.082 845.331 956.789 845.472C957.496 845.612 958.229 845.54 958.895 845.264C959.561 844.988 960.131 844.521 960.531 843.921C960.932 843.322 961.146 842.617 961.146 841.896C961.146 840.929 960.762 840.002 960.078 839.318C959.394 838.634 958.467 838.25 957.5 838.25ZM957.5 843.458C957.191 843.458 956.889 843.367 956.632 843.195C956.375 843.023 956.175 842.779 956.057 842.494C955.938 842.208 955.907 841.894 955.968 841.591C956.028 841.288 956.177 841.009 956.395 840.791C956.614 840.572 956.892 840.424 957.195 840.363C957.498 840.303 957.813 840.334 958.098 840.452C958.384 840.571 958.628 840.771 958.799 841.028C958.971 841.285 959.063 841.587 959.063 841.896C959.063 842.31 958.898 842.708 958.605 843.001C958.312 843.294 957.914 843.458 957.5 843.458Z" fill="white"/>
</g>
</svg>
